<svg width="204" height="58" viewBox="0 0 204 58" fill="none" xmlns="http://www.w3.org/2000/svg">
<rect width="204" height="58" rx="5" fill="white"/>
<path d="M40.8485 33.9366C43.4194 27.7329 43.6895 21.1054 43.5033 18.5671C40.4853 26.1121 34.3282 30.7463 31.6269 32.1202C26.8204 35.0823 21.1011 35.9626 18.8423 36.0324C21.9162 41.4536 27.0626 44.5322 29.2516 45.3938C35.9024 42.8229 39.754 36.6845 40.8485 33.9366Z" fill="#75DAB4"/>
<path d="M29.1818 12C24.2636 17.8124 17.678 18.6135 15 18.2875C15 25.0501 16.0712 29.3954 16.6068 30.7228C19.8204 31.4214 24.9901 30.9324 27.2257 30.4433C37.0761 27.3694 42.1527 21.1984 43.4335 18.2875C37.0062 18.9023 31.2544 14.352 29.1818 12Z" fill="#B3CF2D"/>
<path d="M31.9064 23.0383C23.523 24.3796 17.2122 22.2931 15.0698 21.0822C15.0698 24.7149 16.0479 29.3956 16.6068 30.723C31.557 33.238 41.0582 23.2479 43.5033 18.2877C39.3116 21.3616 34.0255 22.7355 31.9064 23.0383Z" fill="#A2BE1C"/>
<path d="M62.6163 30.9772C62.6163 30.5898 62.6339 30.2376 62.6691 29.9207L62.6339 29.8678C62.3053 29.9148 61.9473 29.95 61.56 29.9735C61.1727 29.9852 60.8148 29.9852 60.4861 29.9735V27.6843L65.081 27.6667V33.6538C64.5411 33.9003 63.9249 34.094 63.2325 34.2349C62.5518 34.364 61.6833 34.4286 60.627 34.4286C59.2186 34.4286 58.1154 34.2407 57.3173 33.8651C56.5192 33.4777 55.9558 32.8614 55.6272 32.0161C55.2986 31.1592 55.1343 30.0204 55.1343 28.6C55.1343 27.4495 55.2634 26.5045 55.5216 25.7649C55.7915 25.0253 56.1788 24.456 56.6835 24.0568C57.1999 23.646 57.8278 23.3642 58.5672 23.2116C59.3066 23.0473 60.1516 22.9651 61.1023 22.9651C61.6657 22.9651 62.229 22.9886 62.7924 23.0355C63.3675 23.0825 63.9367 23.1705 64.5 23.2997V25.6241L64.4472 25.6593C63.9543 25.5419 63.4613 25.4597 62.9684 25.4127C62.4872 25.3658 62.0001 25.3423 61.5072 25.3423C60.7913 25.3423 60.1634 25.4186 59.6235 25.5712C59.0954 25.7121 58.6846 26.0114 58.3912 26.4693C58.0978 26.9271 57.951 27.6373 57.951 28.6C57.951 29.5509 58.0273 30.2787 58.1799 30.7835C58.3442 31.2765 58.6435 31.617 59.0778 31.8048C59.5237 31.9809 60.1575 32.069 60.9791 32.069C61.0847 32.069 61.249 32.069 61.472 32.069C61.695 32.0572 61.918 32.0455 62.141 32.0337C62.364 32.022 62.5224 32.0044 62.6163 31.9809V30.9772Z" fill="#505050"/>
<path d="M67.9026 34.2701V23.1236H72.7791C73.7532 23.1236 74.5689 23.2057 75.2262 23.3701C75.8834 23.5227 76.4116 23.7986 76.8106 24.1977C77.2096 24.5969 77.4972 25.1545 77.6732 25.8706C77.8493 26.5749 77.9373 27.4847 77.9373 28.6C77.9373 29.7622 77.8493 30.7131 77.6732 31.4526C77.4972 32.1922 77.2096 32.7674 76.8106 33.1783C76.4116 33.5892 75.8834 33.8768 75.2262 34.0412C74.5689 34.1938 73.7532 34.2701 72.7791 34.2701H67.9026ZM72.3742 25.5008H70.7193V31.8929H72.3742C73.0549 31.8929 73.5889 31.8166 73.9762 31.6639C74.3753 31.5113 74.6569 31.2002 74.8213 30.7307C74.9973 30.2611 75.0853 29.5509 75.0853 28.6C75.0853 27.696 74.9973 27.0269 74.8213 26.5925C74.6569 26.1465 74.3753 25.853 73.9762 25.7121C73.5889 25.5712 73.0549 25.5008 72.3742 25.5008Z" fill="#505050"/>
<path d="M86.4532 31.3998C86.9696 31.5759 87.533 31.7168 88.1433 31.8224C88.7653 31.9163 89.3815 31.9633 89.9918 31.9633C90.8251 31.9633 91.4412 31.9281 91.8403 31.8576C92.2511 31.7755 92.521 31.6522 92.6501 31.4879C92.7792 31.3235 92.8438 31.1122 92.8438 30.8539C92.8438 30.6309 92.7968 30.4548 92.7029 30.3257C92.609 30.1965 92.4271 30.0967 92.1572 30.0263C91.8872 29.9441 91.4882 29.8796 90.96 29.8326L89.7981 29.727C88.9296 29.6448 88.243 29.4628 87.7384 29.1811C87.2454 28.8993 86.8933 28.5237 86.6821 28.0541C86.4826 27.5728 86.3828 26.9976 86.3828 26.3284C86.3828 25.5301 86.5412 24.8845 86.8581 24.3914C87.1867 23.8984 87.7149 23.5403 88.4426 23.3173C89.1702 23.0825 90.1385 22.9651 91.3473 22.9651C92.92 22.9651 94.2169 23.1705 95.238 23.5814L95.1852 25.9762L95.1324 26.0467C93.9705 25.6358 92.7557 25.4304 91.4882 25.4304C90.8779 25.4304 90.4084 25.4656 90.0798 25.536C89.7512 25.5947 89.5223 25.6945 89.3932 25.8354C89.2641 25.9762 89.1996 26.1758 89.1996 26.4341C89.1996 26.6923 89.2406 26.886 89.3228 27.0152C89.4167 27.1443 89.5986 27.2441 89.8685 27.3145C90.1385 27.3732 90.5317 27.4319 91.0481 27.4906L92.1572 27.6139C93.0961 27.7195 93.8179 27.9074 94.3226 28.1774C94.8272 28.4474 95.1735 28.8113 95.3612 29.2691C95.5608 29.7152 95.6605 30.2611 95.6605 30.9068C95.6605 31.6933 95.4903 32.3507 95.15 32.879C94.8214 33.3955 94.2815 33.7829 93.5303 34.0412C92.7792 34.2994 91.7757 34.4286 90.5199 34.4286C89.6984 34.4286 88.959 34.3875 88.3017 34.3053C87.6445 34.2114 87.0048 34.0881 86.3828 33.9355V31.4526L86.4532 31.3998Z" fill="#505050"/>
<path d="M108.519 34.2173V34.2701H105.527C105.444 33.9883 105.345 33.6655 105.227 33.3016C105.122 32.9377 105.004 32.5503 104.875 32.1394H101.073C100.838 32.9611 100.621 33.6714 100.421 34.2701H97.4284V34.2349L101.037 23.1236H104.91L108.519 34.2173ZM102.939 25.131C102.821 25.7297 102.651 26.4575 102.428 27.3145C102.205 28.1715 101.97 29.0461 101.724 29.9383H104.241C103.983 29.0461 103.743 28.1715 103.52 27.3145C103.297 26.4575 103.127 25.7297 103.009 25.131H102.939Z" fill="#505050"/>
<path d="M113.456 34.2701H110.639V23.1236H118.913V25.4127H113.456V27.9661H118.561V30.2552H113.456V34.2701Z" fill="#505050"/>
<path d="M121.112 34.2701V23.1236H129.387V25.4127H123.929V27.5258H128.665V29.815H123.929V31.9809H129.387V34.2701H121.112Z" fill="#505050"/>
<path d="M138.92 31.3998C139.436 31.5759 140 31.7168 140.61 31.8224C141.232 31.9163 141.848 31.9633 142.458 31.9633C143.292 31.9633 143.908 31.9281 144.307 31.8576C144.718 31.7755 144.988 31.6522 145.117 31.4879C145.246 31.3235 145.31 31.1122 145.31 30.8539C145.31 30.6309 145.264 30.4548 145.17 30.3257C145.076 30.1965 144.894 30.0967 144.624 30.0263C144.354 29.9441 143.955 29.8796 143.427 29.8326L142.265 29.727C141.396 29.6448 140.71 29.4628 140.205 29.1811C139.712 28.8993 139.36 28.5237 139.149 28.0541C138.949 27.5728 138.849 26.9976 138.849 26.3284C138.849 25.5301 139.008 24.8845 139.325 24.3914C139.653 23.8984 140.182 23.5403 140.909 23.3173C141.637 23.0825 142.605 22.9651 143.814 22.9651C145.387 22.9651 146.684 23.1705 147.705 23.5814L147.652 25.9762L147.599 26.0467C146.437 25.6358 145.222 25.4304 143.955 25.4304C143.345 25.4304 142.875 25.4656 142.546 25.536C142.218 25.5947 141.989 25.6945 141.86 25.8354C141.731 25.9762 141.666 26.1758 141.666 26.4341C141.666 26.6923 141.707 26.886 141.789 27.0152C141.883 27.1443 142.065 27.2441 142.335 27.3145C142.605 27.3732 142.998 27.4319 143.515 27.4906L144.624 27.6139C145.563 27.7195 146.285 27.9074 146.789 28.1774C147.294 28.4474 147.64 28.8113 147.828 29.2691C148.027 29.7152 148.127 30.2611 148.127 30.9068C148.127 31.6933 147.957 32.3507 147.617 32.879C147.288 33.3955 146.748 33.7829 145.997 34.0412C145.246 34.2994 144.242 34.4286 142.987 34.4286C142.165 34.4286 141.426 34.3875 140.768 34.3053C140.111 34.2114 139.472 34.0881 138.849 33.9355V31.4526L138.92 31.3998Z" fill="#505050"/>
<path d="M153.592 34.2701H150.775V23.1236H153.592V34.2701Z" fill="#505050"/>
<path d="M158.878 34.2701V25.5008H155.71V23.1236H164.864V25.5008H161.695V34.2701H158.878Z" fill="#505050"/>
<path d="M166.977 34.2701V23.1236H175.252V25.4127H169.794V27.5258H174.53V29.815H169.794V31.9809H175.252V34.2701H166.977Z" fill="#505050"/>
<path d="M178.793 31.3998C179.309 31.5759 179.873 31.7168 180.483 31.8224C181.105 31.9163 181.721 31.9633 182.331 31.9633C183.165 31.9633 183.781 31.9281 184.18 31.8576C184.591 31.7755 184.861 31.6522 184.99 31.4879C185.119 31.3235 185.183 31.1122 185.183 30.8539C185.183 30.6309 185.136 30.4548 185.043 30.3257C184.949 30.1965 184.767 30.0967 184.497 30.0263C184.227 29.9441 183.828 29.8796 183.3 29.8326L182.138 29.727C181.269 29.6448 180.583 29.4628 180.078 29.1811C179.585 28.8993 179.233 28.5237 179.022 28.0541C178.822 27.5728 178.722 26.9976 178.722 26.3284C178.722 25.5301 178.881 24.8845 179.198 24.3914C179.526 23.8984 180.055 23.5403 180.782 23.3173C181.51 23.0825 182.478 22.9651 183.687 22.9651C185.26 22.9651 186.557 23.1705 187.578 23.5814L187.525 25.9762L187.472 26.0467C186.31 25.6358 185.095 25.4304 183.828 25.4304C183.217 25.4304 182.748 25.4656 182.419 25.536C182.091 25.5947 181.862 25.6945 181.733 25.8354C181.604 25.9762 181.539 26.1758 181.539 26.4341C181.539 26.6923 181.58 26.886 181.662 27.0152C181.756 27.1443 181.938 27.2441 182.208 27.3145C182.478 27.3732 182.871 27.4319 183.388 27.4906L184.497 27.6139C185.436 27.7195 186.158 27.9074 186.662 28.1774C187.167 28.4474 187.513 28.8113 187.701 29.2691C187.9 29.7152 188 30.2611 188 30.9068C188 31.6933 187.83 32.3507 187.49 32.879C187.161 33.3955 186.621 33.7829 185.87 34.0412C185.119 34.2994 184.115 34.4286 182.86 34.4286C182.038 34.4286 181.299 34.3875 180.641 34.3053C179.984 34.2114 179.344 34.0881 178.722 33.9355V31.4526L178.793 31.3998Z" fill="#505050"/>
</svg>
