<svg width="29" height="38" viewBox="0 0 29 38" fill="none" xmlns="http://www.w3.org/2000/svg">
<path d="M9.45509 29.9721L9.39057 30.1689H9.59762H18.7978H19.0049L18.9403 29.9721L17.7661 26.3933L17.7322 26.2901H17.6236H10.7713H10.6626L10.6287 26.3933L9.45509 29.9721ZM16.4499 23.0109H16.657L16.5925 22.8142L14.3394 15.9442L14.1968 15.5094L14.0543 15.9442L11.803 22.8142L11.7386 23.0109H11.9456H16.4499ZM24.4799 36.5168L21.4248 37.5515L20.1132 33.551L20.0794 33.4478H19.9707H8.42595H8.31728L8.28342 33.551L6.97156 37.5515L3.91675 36.5169L12.0538 11.6982L12.0744 11.6351L12.0417 11.5775C11.8331 11.2095 11.7073 10.789 11.7073 10.3345C11.7073 8.93324 12.8254 7.80019 14.1976 7.80019C15.5699 7.80019 16.6879 8.93324 16.6879 10.3345C16.6879 10.789 16.5621 11.2095 16.3537 11.5775L16.3211 11.6352L16.3417 11.6982L24.4799 36.5168ZM24.1555 0.425703C29.4447 5.9204 29.4448 14.7479 24.1556 20.2432L21.8754 17.9266C25.9129 13.7082 25.9129 6.96045 21.8754 2.74212L24.1555 0.425703ZM4.24083 20.2427C-1.04824 14.7473 -1.04824 5.92036 4.24082 0.42544L6.51933 2.74193C2.48206 6.96042 2.48206 13.7079 6.51933 17.9265L4.24083 20.2427ZM20.4188 4.22305C21.9871 5.86931 22.8483 8.0336 22.8483 10.3343C22.8483 12.6346 21.9871 14.7993 20.4188 16.4453L18.1399 14.1284C19.1011 13.1001 19.6279 11.7585 19.6279 10.3343C19.6279 8.90977 19.1011 7.56818 18.1399 6.53989L20.4188 4.22305ZM10.2553 14.1283L7.97608 16.4452C6.40968 14.7992 5.54681 12.6345 5.54681 10.3343C5.54681 8.03372 6.40961 5.86943 7.97609 4.22311L10.2553 6.53998C9.29573 7.56814 8.76696 8.90965 8.76696 10.3343C8.76696 11.7587 9.29571 13.1002 10.2553 14.1283Z" fill="#5BBAC0" stroke="black" stroke-width="0.3"/>
</svg>
