<svg width="32" height="32" viewBox="0 0 32 32" fill="none" xmlns="http://www.w3.org/2000/svg">
<path d="M11.4125 30.4343L31.0232 19.0444C31.5681 18.7279 31.4311 17.7715 30.8548 17.5126C29.5202 16.9133 27.9264 15.8129 26.8747 13.9804L25.4681 11.4554C22.6147 6.48358 16.3141 4.76907 11.3952 7.62592C6.54783 10.4413 4.8978 16.6955 7.7098 21.5952L9.19137 24.2509C10.2359 26.0708 10.3558 28.0163 10.1727 29.4965C10.0939 30.1344 10.8608 30.7547 11.4125 30.4343Z" fill="#EE4242"/>
<path d="M12.5752 3.19606C13.4654 4.7471 12.9371 6.73042 11.3952 7.62592C9.85341 8.52142 7.88187 7.98999 6.99169 6.43894C6.10151 4.88789 6.62978 2.90458 8.17162 2.00908C9.71346 1.11358 11.685 1.64501 12.5752 3.19606Z" fill="#EE4242"/>
<path d="M11.4125 30.4343L11.1614 30.0019L11.4125 30.4343ZM10.1727 29.4965L9.67653 29.4352L10.1727 29.4965ZM9.19137 24.2509L8.75469 24.4945L8.75771 24.4997L9.19137 24.2509ZM7.7098 21.5952L8.14648 21.3516L8.14346 21.3463L7.7098 21.5952ZM31.0232 19.0444L31.2743 19.4767L31.0232 19.0444ZM30.8548 17.5126L31.0596 17.0565H31.0596L30.8548 17.5126ZM26.8747 13.9804L26.4379 14.2237L26.441 14.2293L26.8747 13.9804ZM25.4681 11.4554L25.905 11.212L25.9018 11.2065L25.4681 11.4554ZM11.3952 7.62592L11.6464 8.05828L11.3952 7.62592ZM20.6921 30.3105L20.9432 30.7429L20.6921 30.3105ZM0.973589 15.2841C1.01253 15.5575 1.26572 15.7475 1.5391 15.7086C1.81249 15.6696 2.00254 15.4164 1.96359 15.1431L0.973589 15.2841ZM3.15943 9.11672C3.30387 8.88136 3.23016 8.57348 2.9948 8.42905C2.75945 8.28461 2.45156 8.35832 2.30713 8.59368L3.15943 9.11672ZM16.2716 0.501911C15.9955 0.507149 15.776 0.735213 15.7812 1.01131C15.7864 1.2874 16.0145 1.50697 16.2906 1.50173L16.2716 0.501911ZM22.0859 3.43022C22.3007 3.60375 22.6155 3.5703 22.789 3.3555C22.9625 3.14069 22.9291 2.82588 22.7143 2.65235L22.0859 3.43022ZM10.669 29.5579C10.8609 28.0053 10.7387 25.9425 9.62502 24.002L8.75771 24.4997C9.73304 26.1992 9.85061 28.0273 9.67653 29.4352L10.669 29.5579ZM9.62801 24.0073L8.14645 21.3516L7.27316 21.8388L8.75472 24.4945L9.62801 24.0073ZM31.0596 17.0565C29.7923 16.4874 28.2937 15.4483 27.3084 13.7315L26.441 14.2293C27.5591 16.1774 29.2481 17.3392 30.6499 17.9687L31.0596 17.0565ZM27.3115 13.7371L25.9049 11.2121L25.0313 11.6987L26.4379 14.2237L27.3115 13.7371ZM25.9018 11.2065C22.9122 5.99752 16.3058 4.19567 11.1441 7.19355L11.6464 8.05828C16.3224 5.34247 22.3172 6.96965 25.0345 11.7043L25.9018 11.2065ZM31.2743 19.4767C31.7741 19.1865 31.9096 18.635 31.8557 18.196C31.8019 17.7575 31.5457 17.2748 31.0596 17.0565L30.6499 17.9687C30.7402 18.0093 30.8407 18.1342 30.8632 18.3178C30.8857 18.5008 30.8173 18.5858 30.7721 18.612L31.2743 19.4767ZM8.14346 21.3463C5.46661 16.6821 7.03999 10.7337 11.6464 8.05828L11.1441 7.19355C6.05567 10.1489 4.329 16.709 7.27615 21.8441L8.14346 21.3463ZM11.1614 30.0019C11.1184 30.0269 11.0116 30.0454 10.8628 29.9299C10.7138 29.8142 10.6564 29.6597 10.669 29.5579L9.67653 29.4352C9.61024 29.9713 9.89678 30.4458 10.2495 30.7197C10.6023 30.9937 11.1549 31.1621 11.6636 30.8666L11.1614 30.0019ZM30.7721 18.612L11.1614 30.0019L11.6636 30.8666L31.2743 19.4767L30.7721 18.612ZM22.1794 24.1779C23.2802 26.0958 22.5411 28.6584 20.441 29.8782L20.9432 30.7429C23.4686 29.2761 24.4496 26.1245 23.0467 23.6801L22.1794 24.1779ZM20.441 29.8782C18.3422 31.0971 15.7711 30.4603 14.6715 28.5444L13.8042 29.0422C15.2083 31.4887 18.4165 32.2104 20.9432 30.7429L20.441 29.8782ZM12.1415 3.44494C12.8954 4.75857 12.4468 6.43694 11.1441 7.19355L11.6464 8.05828C13.4273 7.02391 14.0353 4.73564 13.0088 2.94717L12.1415 3.44494ZM11.1441 7.19355C9.84317 7.94915 8.17827 7.50196 7.42534 6.19006L6.55803 6.68783C7.58547 8.47802 9.86364 9.09369 11.6464 8.05828L11.1441 7.19355ZM7.42534 6.19006C6.67142 4.87643 7.12002 3.19806 8.42274 2.44144L7.9205 1.57671C6.13954 2.61109 5.5316 4.89936 6.55803 6.68783L7.42534 6.19006ZM8.42274 2.44144C9.72369 1.68585 11.3886 2.13304 12.1415 3.44494L13.0088 2.94717C11.9814 1.15698 9.70322 0.541311 7.9205 1.57671L8.42274 2.44144ZM1.96359 15.1431C1.66344 13.036 2.06452 10.9009 3.15943 9.11672L2.30713 8.59368C1.08215 10.5898 0.64287 12.9624 0.973589 15.2841L1.96359 15.1431ZM16.2906 1.50173C18.4111 1.4615 20.4671 2.12245 22.0859 3.43022L22.7143 2.65235C20.8998 1.18647 18.6104 0.457541 16.2716 0.501911L16.2906 1.50173Z" fill="#EE4242"/>
</svg>
