<svg width="35" height="35" viewBox="0 0 35 35" fill="none" xmlns="http://www.w3.org/2000/svg">
<path fill-rule="evenodd" clip-rule="evenodd" d="M15.9445 1.55543C15.9445 0.696325 16.6408 0 17.4999 0C18.359 0 19.0553 0.696325 19.0553 1.55543V5.44435C19.0553 6.30345 18.359 7.00005 17.4999 7.00005C16.6408 7.00005 15.9445 6.30345 15.9445 5.44435V1.55543ZM25.2778 17.5C25.2778 21.7955 21.7956 25.2778 17.5001 25.2778C13.2046 25.2778 9.72229 21.7955 9.72229 17.5C9.72229 13.2045 13.2046 9.72216 17.5001 9.72216C21.7956 9.72216 25.2778 13.2045 25.2778 17.5ZM29.8744 5.12559C29.2668 4.51795 28.2821 4.51795 27.6744 5.12559L24.9246 7.87548C24.3172 8.48285 24.3172 9.46785 24.9246 10.0755C25.5319 10.6829 26.5169 10.6829 27.1246 10.0755L29.8744 7.32533C30.4818 6.71796 30.4818 5.73296 29.8744 5.12559ZM33.4446 15.9444C34.3037 15.9444 35 16.6408 35 17.4999C35 18.359 34.3037 19.0553 33.4446 19.0553H29.5557C28.6966 19.0553 28 18.359 28 17.4999C28 16.6408 28.6966 15.9444 29.5557 15.9444H33.4446ZM29.8744 29.8744C30.4818 29.2667 30.4818 28.2817 29.8744 27.6744L27.1246 24.9245C26.5169 24.3169 25.5319 24.3169 24.9246 24.9245C24.3172 25.5319 24.3172 26.5169 24.9246 27.1245L27.6744 29.8744C28.2821 30.4818 29.2668 30.4818 29.8744 29.8744ZM15.9446 29.5557C15.9446 28.6966 16.6409 27.9999 17.5 27.9999C18.3591 27.9999 19.0554 28.6966 19.0554 29.5557V33.4446C19.0554 34.3037 18.3591 35 17.5 35C16.6409 35 15.9446 34.3037 15.9446 33.4446V29.5557ZM10.0754 24.9245C9.46778 24.3171 8.48306 24.3171 7.87542 24.9245L5.12556 27.6747C4.51819 28.282 4.51819 29.267 5.12556 29.8744C5.73319 30.482 6.71792 30.482 7.32555 29.8744L10.0754 27.1245C10.6828 26.5172 10.6828 25.5322 10.0754 24.9245ZM5.44431 15.9446C6.3034 15.9446 7 16.6409 7 17.5C7 18.3591 6.3034 19.0554 5.44431 19.0554H1.55542C0.69632 19.0554 0 18.3591 0 17.5C0 16.6409 0.69632 15.9446 1.55542 15.9446H5.44431ZM10.0754 10.0754C10.6828 9.46772 10.6828 8.483 10.0754 7.87535L7.32555 5.12547C6.71792 4.5181 5.73319 4.5181 5.12556 5.12547C4.51819 5.73284 4.51819 6.71784 5.12556 7.32549L7.87542 10.0754C8.48306 10.6827 9.46778 10.6827 10.0754 10.0754Z" fill="#20E89C"/>
</svg>
