<svg width="31" height="36" viewBox="0 0 31 36" fill="none" xmlns="http://www.w3.org/2000/svg">
<path d="M27.9949 12.7386C25.2543 12.7386 22.6264 11.6466 20.6741 9.68825C18.7218 7.72987 17.6332 5.09376 17.6706 2.34459C17.6706 1.62899 17.1076 1.02637 16.3565 1.02637C15.6431 1.02637 15.0424 1.59116 15.0424 2.34459C15.0049 5.7717 16.3939 9.12335 18.8341 11.5712C21.2742 14.019 24.5406 15.3748 27.9945 15.3748C28.7078 15.3748 29.3086 14.7722 29.3086 14.0566C29.3088 13.341 28.7081 12.7386 27.9947 12.7386H27.9949Z" fill="#1DF3CD"/>
<path d="M27.991 7.27688C26.673 7.27688 25.4307 6.74975 24.4893 5.84599C23.548 4.90466 23.0585 3.6621 23.0585 2.34437C23.0585 1.62889 22.4559 1.02637 21.7405 1.02637C21.025 1.02637 20.4225 1.62888 20.4225 2.34437C20.4225 4.37751 21.2133 6.26018 22.6439 7.69114C24.0748 9.12203 25.9575 9.91262 27.9907 9.91262C28.7062 9.91262 29.3087 9.3101 29.3087 8.59461C29.309 7.8794 28.7065 7.27688 27.991 7.27688Z" fill="#1DF3CD"/>
<path d="M30.1239 2.33059C30.1239 3.50131 29.175 4.45025 28.0043 4.45025C26.8336 4.45025 25.8846 3.50131 25.8846 2.33059C25.8846 1.15988 26.8336 0.210938 28.0043 0.210938C29.175 0.210938 30.1239 1.15988 30.1239 2.33059Z" fill="#1DF3CD"/>
<path d="M2.42211 33.8466C2.12091 34.6778 2.53503 35.5846 3.36325 35.8866C3.55153 35.9622 3.73981 35.9999 3.92782 35.9999C4.56776 35.9999 5.17012 35.5843 5.43351 34.9421L7.54159 29.1617L5.05719 26.7061L2.42211 33.8466Z" fill="#1DF3CD"/>
<path d="M16.8451 18.3618L14.0556 17.9472C13.9049 17.9096 13.754 17.8342 13.6785 17.7211C11.3415 14.2915 10.8514 14.103 10.173 14.0654L7.91114 13.9148C7.45888 13.8772 7.08185 13.8772 3.68935 15.8746C2.97308 16.2892 2.40778 16.8922 1.99314 17.6459L0.523025 20.4349C0.183829 21.1132 0.40996 21.9423 1.08835 22.3193C1.27687 22.4323 1.50301 22.4699 1.72913 22.4699C2.21925 22.4699 2.70914 22.206 2.93551 21.7162L4.40562 18.9273C4.55629 18.6257 4.78268 18.3997 5.04641 18.249C5.15947 18.1736 5.23493 18.136 5.348 18.0605L4.36799 22.3945C4.17946 23.2613 4.40559 24.1658 5.04637 24.7689L9.49427 29.2159C9.53187 29.2535 9.56973 29.2914 9.56973 29.3666L11.4921 34.9443C11.7182 35.585 12.3214 35.9996 12.9998 35.9996C13.1883 35.9996 13.339 35.962 13.5275 35.9241C14.3568 35.6226 14.8091 34.718 14.5075 33.8891L12.5851 28.3114C12.3966 27.8214 12.1329 27.3316 11.7558 26.9546L9.26789 24.4672L11.0772 18.7764C11.1903 18.927 11.3033 19.0779 11.4164 19.2664C11.9441 20.0201 12.7734 20.5477 13.6782 20.6608L16.4677 21.0753C17.2216 21.1884 17.9379 20.6608 18.0509 19.9071C18.1267 19.1907 17.5989 18.4749 16.8451 18.3618Z" fill="#1DF3CD"/>
<path d="M9.78812 7.15884C11.4664 7.34153 12.679 8.85026 12.4963 10.5285C12.3136 12.207 10.8048 13.4193 9.12657 13.2369C7.44829 13.0542 6.23565 11.5454 6.41836 9.86695C6.60106 8.18873 8.10984 6.97614 9.78812 7.15884Z" fill="#1DF3CD"/>
</svg>
