<svg width="34" height="33" viewBox="0 0 34 33" fill="none" xmlns="http://www.w3.org/2000/svg">
<path d="M27.0197 13.0085C26.5624 12.6203 25.8056 12.3888 24.9975 12.3888C24.1886 12.3888 23.4319 12.6203 22.9746 13.0085L19.3441 16.5325L15.7107 13.0085C15.2853 12.5951 14.5184 12.3425 13.6908 12.3421H13.6894C12.8617 12.3421 12.0948 12.5947 11.6687 13.0076L8.02667 16.5367L4.3839 13.0072C4.06339 12.6936 3.54104 12.4675 2.93332 12.3783C2.32486 12.2894 1.68096 12.345 1.1434 12.5328C0.605854 12.7205 0.219504 13.0253 0.0690182 13.3798C-0.0814672 13.7338 0.0162005 14.1085 0.341779 14.4204L6.00596 19.9071V19.9067C6.46321 20.2944 7.21925 20.5259 8.02737 20.5259C8.83479 20.5255 9.59083 20.294 10.048 19.9062L13.6886 16.3792L17.3234 19.9054C17.7799 20.2935 18.5367 20.5259 19.3455 20.5259C20.1537 20.5259 20.9104 20.2935 21.367 19.9054L24.9975 16.3814L28.628 19.9054H28.6273C28.9478 20.2186 29.4695 20.4451 30.0772 20.5343C30.6849 20.6232 31.3281 20.568 31.8656 20.3807C32.4032 20.1933 32.7902 19.889 32.9415 19.5353C33.0927 19.1813 32.9957 18.807 32.6723 18.4951L27.0197 13.0085Z" fill="#20E89C"/>
<path d="M5.99266 7.56163C6.44991 7.94978 7.20667 8.18174 8.01481 8.18174C8.82367 8.18174 9.58043 7.94978 10.0377 7.56163L13.6682 4.03761L17.3016 7.56163C17.727 7.97503 18.4939 8.22805 19.3215 8.22805H19.3229H19.3222C20.1506 8.22805 20.9175 7.97545 21.3436 7.56247L24.9857 4.03382L28.6284 7.56333C28.9504 7.8757 29.472 8.10093 30.079 8.18934C30.686 8.27774 31.3292 8.22175 31.8653 8.03441C32.4021 7.84665 32.7885 7.54271 32.9397 7.18908C33.0902 6.83588 32.9939 6.46204 32.6705 6.15009L27.0064 0.663448C26.5491 0.275718 25.7931 0.0441814 24.985 0.0446017C24.1775 0.0446017 23.4215 0.276558 22.9643 0.664288L19.3237 4.19133L15.6889 0.66515V0.664729C15.2317 0.276999 14.4756 0.0454634 13.6675 0.0454634C12.8594 0.0454634 12.1026 0.276999 11.6454 0.664729L8.01483 4.18875L4.38429 0.664729H4.38501C3.71434 0.0164183 2.26803 -0.19365 1.15249 0.19533C0.0376028 0.58432 -0.32632 1.42543 0.34002 2.0754L5.99266 7.56163Z" fill="#20E89C"/>
<path d="M27.005 25.3521C26.5477 24.9648 25.7917 24.7333 24.9836 24.7333C24.1762 24.7333 23.4201 24.9653 22.9629 25.353L19.3224 28.88L15.6876 25.3538C15.2303 24.9661 14.4743 24.7342 13.6661 24.7342C12.858 24.7342 12.1012 24.9661 11.644 25.3538L8.01345 28.8779L4.38291 25.3538H4.38364C4.06312 25.0406 3.54149 24.8141 2.93377 24.7253C2.32677 24.6361 1.68286 24.6912 1.14604 24.879C0.608497 25.0663 0.221422 25.3703 0.070214 25.7239C-0.0817179 26.0779 0.0152258 26.4522 0.338622 26.7641L5.99131 32.2508C6.44857 32.6385 7.20533 32.8705 8.01421 32.8705C8.82235 32.8705 9.57911 32.6385 10.0364 32.2508L13.6669 28.7268L17.3002 32.2508C17.7256 32.6638 18.4925 32.9168 19.3202 32.9172H19.3216C20.1493 32.9168 20.9162 32.6642 21.3423 32.2512L24.9843 28.7225L28.6271 32.2521C28.949 32.5644 29.4707 32.7897 30.0776 32.8781C30.6846 32.9665 31.3278 32.9105 31.8639 32.7231C32.4008 32.5354 32.7871 32.2314 32.9383 31.8782C33.0888 31.5246 32.9926 31.1508 32.6692 30.8388L27.005 25.3521Z" fill="#20E89C"/>
</svg>
