<svg width="33" height="34" viewBox="0 0 33 34" fill="none" xmlns="http://www.w3.org/2000/svg">
<path d="M31.5672 16.9998C31.5672 25.3945 24.7619 32.1998 16.3672 32.1998C7.97245 32.1998 1.16718 25.3945 1.16718 16.9998C1.16718 8.60507 7.97245 1.7998 16.3672 1.7998C24.7619 1.7998 31.5672 8.60507 31.5672 16.9998Z" fill="#E8D420"/>
<path d="M16.3672 16.9998V9.3998M16.3672 22.633V22.6998M31.5672 16.9998C31.5672 25.3945 24.7619 32.1998 16.3672 32.1998C7.97245 32.1998 1.16718 25.3945 1.16718 16.9998C1.16718 8.60507 7.97245 1.7998 16.3672 1.7998C24.7619 1.7998 31.5672 8.60507 31.5672 16.9998Z" stroke="#060607" stroke-width="2" stroke-linecap="round" stroke-linejoin="round"/>
</svg>
