<svg width="33" height="33" viewBox="0 0 33 33" fill="none" xmlns="http://www.w3.org/2000/svg">
<path d="M4.35303 30.3829C4.35303 31.2758 3.6027 32 2.67712 32C1.75113 32 1 31.2758 1 30.3829C1 29.4895 1.75071 28.7653 2.67712 28.7653C3.60271 28.7653 4.35303 29.4892 4.35303 30.3829ZM20.1512 30.3829C20.1512 31.2758 19.4005 32 18.4745 32C17.5489 32 16.7978 31.2758 16.7978 30.3829C16.7978 29.4895 17.5489 28.7653 18.4745 28.7653C19.4005 28.7653 20.1512 29.4892 20.1512 30.3829ZM12.2517 30.3829C12.2517 31.2758 11.5014 32 10.5754 32C9.6494 32 8.89908 31.2758 8.89908 30.3829C8.89908 29.4895 9.6494 28.7653 10.5754 28.7653C11.5014 28.7653 12.2517 29.4892 12.2517 30.3829ZM28.0499 30.3829C28.0499 31.2758 27.2999 32 26.374 32C25.448 32 24.6976 31.2758 24.6976 30.3829C24.6976 29.4895 25.448 28.7653 26.374 28.7653C27.2999 28.7653 28.0499 29.4892 28.0499 30.3829ZM8.30317 23.4416C8.30317 24.3345 7.55285 25.0588 6.62726 25.0588C5.70127 25.0588 4.95014 24.3345 4.95014 23.4416C4.95014 22.5483 5.70086 21.8241 6.62726 21.8241C7.55325 21.8241 8.30317 22.5479 8.30317 23.4416ZM24.1013 23.4416C24.1013 24.3345 23.3506 25.0588 22.4246 25.0588C21.499 25.0588 20.7479 24.3345 20.7479 23.4416C20.7479 22.5483 21.499 21.8241 22.4246 21.8241C23.3502 21.8241 24.1013 22.5479 24.1013 23.4416ZM16.2018 23.4416C16.2018 24.3345 15.4515 25.0588 14.5255 25.0588C13.5995 25.0588 12.8492 24.3345 12.8492 23.4416C12.8492 22.5483 13.5995 21.8241 14.5255 21.8241C15.4515 21.8241 16.2018 22.5479 16.2018 23.4416ZM32 23.4416C32 24.3345 31.2501 25.0588 30.3241 25.0588C29.3981 25.0588 28.6478 24.3345 28.6478 23.4416C28.6478 22.5483 29.3981 21.8241 30.3241 21.8241C31.2501 21.8241 32 22.5479 32 23.4416ZM12.2533 16.5C12.2533 17.3929 11.503 18.1171 10.5774 18.1171C9.65142 18.1171 8.90029 17.3929 8.90029 16.5C8.90029 15.6067 9.651 14.8825 10.5774 14.8825C11.503 14.8825 12.2533 15.6067 12.2533 16.5ZM28.0515 16.5C28.0515 17.3929 27.3008 18.1171 26.3748 18.1171C25.4492 18.1171 24.698 17.3929 24.698 16.5C24.698 15.6067 25.4492 14.8825 26.3748 14.8825C27.3008 14.8825 28.0515 15.6067 28.0515 16.5ZM16.7998 16.5C16.7998 15.6067 17.5501 14.8825 18.4761 14.8825C19.4021 14.8825 20.1524 15.6063 20.1524 16.5C20.1524 17.3929 19.4021 18.1171 18.4761 18.1171C17.5505 18.1171 16.7998 17.3929 16.7998 16.5ZM16.2038 9.55877C16.2038 10.4517 15.4535 11.1759 14.5279 11.1759C13.6019 11.1759 12.8508 10.4517 12.8508 9.55877C12.8508 8.66546 13.6015 7.94123 14.5279 7.94123C15.4535 7.94123 16.2038 8.66545 16.2038 9.55877ZM20.7495 9.55877C20.7495 8.66546 21.4998 7.94123 22.4258 7.94123C23.3518 7.94123 24.1021 8.66507 24.1021 9.55877C24.1021 10.4517 23.3518 11.1759 22.4258 11.1759C21.5002 11.1759 20.7495 10.4517 20.7495 9.55877ZM16.7998 2.61754C16.7998 1.72423 17.5505 1 18.4769 1C19.4029 1 20.1528 1.72384 20.1528 2.61754C20.1528 3.51046 19.4025 4.23468 18.4769 4.23468C17.5509 4.23468 16.7998 3.51046 16.7998 2.61754Z" fill="#20E89C" stroke="#20E89C"/>
</svg>
