<svg width="33" height="28" viewBox="0 0 33 28" fill="none" xmlns="http://www.w3.org/2000/svg">
<path d="M32.7469 14.0664C31.5841 7.14357 26.2505 1.54301 19.5729 0.288225C9.12691 -1.6705 0 6.62043 0 17.0715C0 20.7675 1.15632 24.1752 3.08564 26.9724C3.20906 27.1535 3.41694 27.2609 3.63781 27.2609H11.5501C11.5696 25.0607 12.9403 23.2094 14.8436 22.505V11.9466C14.8436 11.0008 15.5842 10.2428 16.4936 10.2428C17.4031 10.2428 18.1436 11.0075 18.1436 11.9466V22.505C20.047 23.2026 21.4177 25.0539 21.4372 27.2609H29.3625C29.5769 27.2609 29.7848 27.1535 29.9147 26.9724C32.3637 23.4307 33.559 18.9028 32.747 14.0664H32.7469ZM4.94981 18.7753H3.29981C2.39039 18.7753 1.64982 18.0106 1.64982 17.0715C1.64982 16.1257 2.39039 15.361 3.29981 15.361H4.94981C5.85923 15.361 6.5998 16.1257 6.5998 17.0715C6.5998 18.0173 5.85923 18.7753 4.94981 18.7753ZM9.49705 9.82677C8.85394 10.4908 7.80803 10.4908 7.16492 9.82677L5.9956 8.61933C5.35249 7.95526 5.35249 6.87526 5.9956 6.2045C6.6387 5.54043 7.68461 5.54043 8.32772 6.2045L9.49705 7.41195C10.1467 8.08276 10.1467 9.1627 9.49705 9.82677ZM18.15 5.11788C18.15 6.06369 17.4094 6.8284 16.5 6.8284C15.5906 6.8284 14.85 6.06369 14.85 5.11788V3.4141C14.85 2.46828 15.5906 1.70357 16.5 1.70357C17.4094 1.70357 18.15 2.46828 18.15 3.4141V5.11788ZM23.5028 9.82677C22.8597 9.1627 22.8597 8.07602 23.5028 7.41195L24.6721 6.2045C25.3152 5.54043 26.3611 5.54043 27.0042 6.2045C27.6473 6.86857 27.6473 7.95526 27.0042 8.61933L25.8349 9.82677C25.1918 10.4976 24.1459 10.4976 23.5028 9.82677ZM29.6998 18.7753H28.0498C27.1404 18.7753 26.3999 18.0106 26.3999 17.0715C26.3999 16.1257 27.1404 15.361 28.0498 15.361H29.6998C30.6093 15.361 31.3498 16.1257 31.3498 17.0715C31.3498 18.0173 30.6093 18.7753 29.6998 18.7753Z" fill="#20E89C"/>
</svg>
