<svg width="44" height="44" viewBox="0 0 44 44" fill="none" xmlns="http://www.w3.org/2000/svg">
<path d="M39.2508 12.1058C39.3308 11.6042 39.3762 11.0979 39.3871 10.5895C39.362 7.90125 38.3249 5.32144 36.4826 3.36372C34.6403 1.406 32.1274 0.214568 29.4459 0.0261182C26.7637 -0.161637 24.1093 0.668027 22.0121 2.34911C20.3249 1.32694 18.2623 1.13443 16.4151 1.82583C14.5674 2.5179 13.1385 4.01729 12.5372 5.89623C10.5904 5.32278 8.48779 5.70169 6.86375 6.9184C5.23898 8.13512 4.28464 10.0472 4.28724 12.0768V12.2422V12.2415C2.12164 13.4359 0.602589 15.5345 0.143613 17.9639C-0.3146 20.394 0.336121 22.9019 1.91757 24.8026C3.49964 26.7039 5.84707 27.7994 8.32033 27.7898H35.4997C37.9982 27.7891 40.3624 26.6619 41.9358 24.7219C43.5091 22.7812 44.1231 20.2354 43.608 17.7911C43.0929 15.3468 41.5026 13.2652 39.2801 12.1251L39.2508 12.1058Z" fill="#20E89C"/>
<path d="M10.7389 31.1036C10.4908 30.9592 10.1952 30.9205 9.918 30.9951C9.64008 31.0704 9.40421 31.2527 9.26187 31.5015L7.59032 34.4169C7.29276 34.9348 7.47103 35.5963 7.9889 35.8939C8.50677 36.1921 9.16834 36.0139 9.4659 35.496L11.1374 32.5806C11.2811 32.3318 11.3205 32.0363 11.2452 31.759C11.1707 31.4818 10.9883 31.2459 10.7389 31.1036Z" fill="#20E89C"/>
<path d="M22.1088 31.1036C21.8607 30.9592 21.5651 30.9205 21.2879 30.9951C21.0107 31.0704 20.7741 31.2527 20.6318 31.5015L18.9602 34.4169H18.9609C18.8016 34.665 18.7515 34.9673 18.8213 35.2533C18.8911 35.5394 19.0748 35.7848 19.3296 35.9318C19.5845 36.0796 19.8882 36.1162 20.1708 36.0335C20.4535 35.9515 20.6907 35.757 20.8263 35.496L22.5073 32.5806C22.8015 32.062 22.6239 31.4039 22.1088 31.1036Z" fill="#20E89C"/>
<path d="M33.4684 31.1036C33.2203 30.9592 32.9241 30.9205 32.6468 30.9951C32.3696 31.0704 32.1337 31.2527 31.9914 31.5015L30.3198 34.4169C30.0223 34.9348 30.2005 35.5963 30.7184 35.8939C31.2363 36.1921 31.8978 36.0139 32.1954 35.496L33.8669 32.5806C34.0106 32.3318 34.0499 32.0363 33.9747 31.759C33.9001 31.4818 33.7178 31.2459 33.4684 31.1036Z" fill="#20E89C"/>
<path d="M14.0055 38.1676C13.7581 38.0226 13.4632 37.9826 13.1867 38.0558C12.9094 38.1283 12.6729 38.3086 12.5285 38.556L10.8569 41.4715C10.7126 41.7189 10.6726 42.0137 10.7458 42.2903C10.8183 42.5675 10.9986 42.8041 11.246 42.9485C11.7612 43.2494 12.4221 43.0752 12.723 42.5601L14.404 39.6447C14.5477 39.3959 14.5871 39.1004 14.5118 38.8231C14.4373 38.5459 14.2549 38.31 14.0055 38.1676Z" fill="#20E89C"/>
<path d="M25.3648 38.1676C25.1174 38.0226 24.8225 37.9826 24.5453 38.0558C24.2687 38.1283 24.0315 38.3086 23.8878 38.556L22.2163 41.4715C21.977 41.9825 22.1674 42.5919 22.6555 42.8746C23.1435 43.1579 23.7671 43.021 24.0918 42.5601L25.7634 39.6446C25.9125 39.3972 25.9545 39.0997 25.8793 38.8211C25.804 38.5425 25.6183 38.3059 25.3648 38.1676Z" fill="#20E89C"/>
</svg>
