<svg width="41" height="42" viewBox="0 0 41 42" fill="none" xmlns="http://www.w3.org/2000/svg">
<path d="M21.5008 0.00010824C20.3377 0.00010824 19.1813 0.446211 18.3589 1.21186C17.5365 1.97711 17.0578 3.05248 17.0573 4.13493C17.059 5.64381 18.0254 7.11888 19.4663 7.80953C19.7619 7.95102 19.9514 8.23087 19.9607 8.54019L20.1406 14.7604H20.1401C20.1515 15.1539 19.8704 15.5029 19.4617 15.6035C15.9555 16.4682 13.0816 19.2557 12.2954 22.5521C12.2013 22.9487 11.8179 23.2274 11.3818 23.2168L9.26452 23.1661C8.91917 23.1574 8.60886 22.968 8.4632 22.6763C7.7535 21.2621 6.12089 20.2941 4.44391 20.2914H4.44264C3.27992 20.2918 2.124 20.7375 1.30161 21.5031C0.479185 22.2688 0.000432321 23.3441 0 24.4273C0 25.5106 0.478763 26.5867 1.30161 27.3523C2.12404 28.1179 3.28046 28.564 4.44351 28.564C6.02753 28.564 7.5787 27.7092 8.33991 26.4156L8.34033 26.416C8.50372 26.137 8.82163 25.9664 9.16276 25.9746L11.4679 26.0297C11.8816 26.0399 12.2363 26.3083 12.3309 26.6833C12.6825 28.0715 13.3846 29.3819 14.3641 30.4789C14.6241 30.7706 14.6452 31.1876 14.4151 31.5004L13.0393 33.3724V33.372C12.8544 33.6232 12.5398 33.7631 12.2139 33.7387C12.1282 33.7321 12.0421 33.7297 11.9564 33.7277C10.7941 33.7285 9.63935 34.1734 8.81783 34.9383C7.9954 35.7039 7.51622 36.7805 7.51622 37.8633C7.51622 38.9465 7.99498 40.0226 8.81783 40.7882C9.64026 41.5539 10.7967 42 11.9597 42C13.1228 42 14.2784 41.5543 15.1008 40.7882C15.9232 40.0226 16.4024 38.946 16.4024 37.8633C16.4024 37.0799 16.1575 36.2981 15.7049 35.6379V35.6383C15.5086 35.3513 15.5149 34.9831 15.7214 34.7028L16.7688 33.2777C17.0188 32.9373 17.4958 32.8139 17.8986 32.9848C19.1833 33.5304 20.5942 33.8169 22.0065 33.8201C24.5975 33.8173 27.1724 32.828 29.0107 31.1281C29.3159 30.8463 29.7917 30.8011 30.1514 31.0204L31.7343 31.9834H31.7347C32.0226 32.1587 32.1801 32.4703 32.1413 32.7887C32.1231 32.9369 32.1138 33.0862 32.113 33.2356V33.2368C32.1134 34.3196 32.5922 35.3954 33.4146 36.161C34.237 36.9266 35.3934 37.3727 36.5565 37.3727C37.7201 37.3727 38.876 36.927 39.6984 36.161C40.5208 35.3953 41 34.3187 41 33.236C41 32.1527 40.5212 31.0766 39.6984 30.311C38.8764 29.5457 37.7213 29.1 36.5585 29.0992H36.556C35.7834 29.1016 35.0117 29.2954 34.3428 29.6562L34.3433 29.6558C34.0461 29.8162 33.6771 29.8071 33.3896 29.6326L31.738 28.6288C31.3846 28.4146 31.2356 28.0026 31.3774 27.6328C31.7549 26.6474 31.9512 25.6019 31.9554 24.5557V24.5545C31.9541 22.425 31.1355 20.3046 29.6798 18.6624C28.2236 17.0199 26.1406 15.8679 23.8946 15.463V15.4634C23.4753 15.3875 23.1684 15.0511 23.157 14.6533L22.9831 8.61701C22.9733 8.28726 23.1697 7.98225 23.4867 7.83447C24.9538 7.15216 25.9438 5.66212 25.9443 4.13553C25.9443 3.05267 25.4655 1.97696 24.6426 1.21135C23.8202 0.446093 22.6638 0 21.5008 0L21.5008 0.00010824Z" fill="#20E89C"/>
</svg>
