<svg width="44" height="31" viewBox="0 0 44 31" fill="none" xmlns="http://www.w3.org/2000/svg">
<path fill-rule="evenodd" clip-rule="evenodd" d="M43.8889 0V30.3846H0V0H2.41144V27.5452H41.4771V0H43.8889Z" fill="#20E89C"/>
<path fill-rule="evenodd" clip-rule="evenodd" d="M20.1719 19.8621C19.398 19.8621 18.7147 19.4948 18.0124 19.1096C17.6168 18.8927 17.0604 18.5684 16.6304 18.5684C16.2004 18.5684 15.6439 18.8932 15.2483 19.1096C14.546 19.4944 13.8624 19.8621 13.0889 19.8621C12.315 19.8621 11.6317 19.4948 10.9294 19.1096C10.5338 18.8927 9.97738 18.5684 9.54771 18.5684C9.11771 18.5684 8.56124 18.8932 8.16563 19.1096C7.46331 19.4944 6.77972 19.8621 6.00621 19.8621C5.23233 19.8621 4.54908 19.4948 3.84679 19.1096C3.45117 18.8927 2.11703 18.5684 1.68701 18.5684V28.6966H42.1998V19.8621C42.1998 18.8341 39.9647 19.4948 39.2624 19.1096C38.8667 18.8927 38.3107 18.5684 37.8806 18.5684C37.4506 18.5684 36.8942 18.8932 36.4989 19.1096C35.7962 19.4943 35.113 19.8621 34.3395 19.8621C33.5656 19.8621 32.8824 19.4948 32.1801 19.1096C31.7844 18.8927 31.228 18.5684 30.798 18.5684C30.368 18.5684 29.8115 18.8932 29.4163 19.1096C28.7139 19.4943 28.0303 19.8621 27.2568 19.8621C26.483 19.8621 25.7997 19.4948 25.0971 19.1096C24.7014 18.8927 24.145 18.5684 23.7153 18.5684C23.2853 18.5684 22.7289 18.8932 22.3336 19.1096C21.6313 19.4943 20.9477 19.8621 20.1742 19.8621L20.1719 19.8621Z" fill="#20E89C"/>
<path fill-rule="evenodd" clip-rule="evenodd" d="M25.0965 12.3664C24.7008 12.1462 24.1444 11.8169 23.7147 11.8169C23.2846 11.8169 22.7281 12.1467 22.3328 12.3664C21.6305 12.757 20.9468 13.1304 20.1733 13.1304C19.3993 13.1304 18.716 12.7575 18.0137 12.3664C17.618 12.1462 17.0615 11.8169 16.6315 11.8169C16.2014 11.8169 15.6449 12.1467 15.2493 12.3664C14.5466 12.757 13.8633 13.1304 13.0897 13.1304C12.3158 13.1304 11.6325 12.7575 10.9301 12.3664C10.5345 12.1462 9.97799 11.8169 9.5483 11.8169C9.11826 11.8169 8.56175 12.1462 8.16611 12.3664C7.46374 12.757 6.7801 13.1304 6.00653 13.1304C5.2326 13.1304 4.54929 12.7575 3.84695 12.3664C3.4513 12.1462 2.11706 11.8169 1.68701 11.8169V17.255C2.46095 17.255 3.92236 17.6279 4.6247 18.0191C5.02035 18.2392 5.57648 18.5685 6.00653 18.5685C6.43658 18.5685 6.99308 18.2388 7.38872 18.0191C8.09144 17.6284 8.77473 17.255 9.5483 17.255C10.3222 17.255 11.0055 17.6279 11.7079 18.0191C12.1035 18.2392 12.6597 18.5685 13.0897 18.5685C13.5198 18.5685 14.0763 18.2388 14.4715 18.0191C15.1743 17.6284 15.8576 17.255 16.6311 17.255C17.4051 17.255 18.0884 17.6279 18.7907 18.0191C19.1864 18.2392 19.7428 18.5685 20.1725 18.5685C20.6026 18.5685 21.1591 18.2388 21.5544 18.0191C22.2567 17.6284 22.9404 17.255 23.714 17.255C24.4879 17.255 25.1712 17.6279 25.8735 18.0191C26.2692 18.2392 26.8257 18.5685 27.2557 18.5685C27.6858 18.5685 28.2423 18.2388 28.6375 18.0191C29.3399 17.6284 30.0236 17.255 30.7971 17.255C31.5711 17.255 32.2544 17.6279 32.9567 18.0191C33.3524 18.2392 33.9089 18.5685 34.3385 18.5685C34.7686 18.5685 35.3251 18.2388 35.7207 18.0191C36.4231 17.6284 37.1067 17.255 37.8803 17.255C38.6542 17.255 39.3376 17.6279 40.0399 18.0191C40.4355 18.2392 41.7698 18.5685 42.1998 18.5685V13.1299C42.1998 12.0862 39.9645 12.757 39.2621 12.3659C38.8665 12.1457 38.3104 11.8164 37.8803 11.8164C37.4503 11.8164 36.8938 12.1462 36.4985 12.3659C35.7958 12.7566 35.1125 13.1299 34.3389 13.1299C33.565 13.1299 32.8817 12.757 32.1793 12.3659C31.7837 12.1457 31.2275 11.8164 30.7971 11.8164C30.3671 11.8164 29.8106 12.1462 29.4153 12.3659C28.7129 12.7566 28.0293 13.1299 27.2557 13.1299C26.4818 13.1299 25.7985 12.757 25.0958 12.3659L25.0965 12.3664Z" fill="#20E89C"/>
</svg>
