<svg width="36" height="41" viewBox="0 0 36 41" fill="none" xmlns="http://www.w3.org/2000/svg">
<path d="M31.7361 26.9332C34.8926 19.3165 35.2243 11.1794 34.9955 8.06293C31.2901 17.3265 23.7305 23.0162 20.4139 24.7031C14.5127 28.3399 7.49065 29.4207 4.71729 29.5064C8.49134 36.1625 14.81 39.9423 17.4976 41.0002C25.6633 37.8437 30.3923 30.307 31.7361 26.9332Z" fill="#75DAB4"/>
<path d="M17.4121 0C11.3736 7.1364 3.28801 8.11994 0 7.71967C0 16.0226 1.3152 21.3577 1.9728 22.9874C5.91841 23.8452 12.2657 23.2448 15.0105 22.6444C27.1046 18.8703 33.3375 11.2936 34.91 7.71967C27.0188 8.47448 19.9568 2.88773 17.4121 0Z" fill="#B3CF2D"/>
<path d="M20.7574 13.5526C10.4645 15.1995 2.71628 12.6377 0.0858765 11.151C0.0858765 15.6112 1.28671 21.3581 1.97291 22.9878C20.3286 26.0757 31.9938 13.81 34.9959 7.72C29.8495 11.4941 23.3592 13.181 20.7574 13.5526Z" fill="#A2BE1C"/>
</svg>
