<svg width="25" height="23" viewBox="0 0 25 23" fill="none" xmlns="http://www.w3.org/2000/svg">
<path d="M24.0383 7.9138L7.35905 0.080226C6.92957 -0.119632 6.41981 0.0666679 6.21965 0.497495L2.75321 7.98376C2.65697 8.19113 2.64688 8.42887 2.72476 8.64386C2.80264 8.85885 2.96165 9.03426 3.16757 9.13122L3.81629 9.43591C4.87494 9.93311 5.33316 11.192 4.84181 12.2534V12.2534C4.74557 12.4608 4.73549 12.6985 4.81337 12.9135C4.89125 13.1285 5.05025 13.3039 5.25617 13.4009V13.4009C6.12131 13.8072 6.49579 14.836 6.09424 15.7034L5.1966 17.6424C4.94354 18.1891 4.39602 18.539 3.79364 18.539V18.539C2.93981 18.539 2.24765 17.8468 2.24765 16.993V16.6664C2.24765 16.1891 1.86424 15.8029 1.3904 15.8029C0.916603 15.8029 0.533203 16.1891 0.533203 16.6664V22.1367C0.533203 22.6138 0.916603 23 1.3904 23C1.86424 23 2.24765 22.6138 2.24765 22.1367V22.1367C2.24765 21.1033 3.08532 20.2657 4.11864 20.2657H5.32733C5.66045 20.2657 5.96357 20.0709 6.10421 19.7674L7.65033 16.428C8.04936 15.5662 9.0734 15.1935 9.93305 15.5973V15.5973C10.0503 15.6521 10.1734 15.6782 10.2947 15.6782C10.6179 15.6782 10.9268 15.4935 11.0725 15.1799V15.1799C11.5622 14.1219 12.8192 13.6644 13.8745 14.16L16.9724 15.6149C17.0895 15.6698 17.2126 15.6959 17.3339 15.6959C17.6571 15.6959 17.966 15.5113 18.1117 15.1977V15.1977C18.1849 15.0393 18.373 14.9709 18.5309 15.045L20.3426 15.8958C20.4597 15.9505 20.5828 15.9766 20.7041 15.9766C21.0273 15.9766 21.3362 15.792 21.4819 15.4784L23.4625 11.2003C23.6625 10.7677 23.4767 10.2544 23.0481 10.0528V10.0528C22.9359 10.0001 22.9463 9.83712 23.0643 9.79913L23.9371 9.51823C24.2728 9.41037 24.5089 9.10592 24.5314 8.75099C24.5541 8.39607 24.3581 8.06378 24.0383 7.9138ZM19.9234 7.88681C20.4254 8.12257 20.3788 8.85132 19.8509 9.02128V9.02128C19.7037 9.06867 19.544 9.05846 19.404 8.99271L7.44755 3.37699C7.14341 3.23415 7.01175 2.87248 7.15288 2.56754V2.56754C7.29514 2.26016 7.66034 2.12721 7.96691 2.2712L19.9234 7.88681ZM19.6266 13.6543C19.2632 13.4838 19.1058 13.0517 19.2744 12.6874L20.0327 11.0482C20.0633 10.9853 20.1069 10.8583 20.171 10.771C20.2456 10.6695 20.3857 10.7073 20.4997 10.7608V10.7608C21.0787 11.0329 21.3293 11.7214 21.0606 12.302L20.5987 13.3002C20.4288 13.6673 19.9928 13.8261 19.6266 13.6543V13.6543Z" fill="#1DE498"/>
</svg>
