<svg width="24" height="23" viewBox="0 0 24 23" fill="none" xmlns="http://www.w3.org/2000/svg">
<path d="M23.5051 7.9138L6.82585 0.080226C6.39637 -0.119632 5.8866 0.0666679 5.68644 0.497495L2.22 7.98376C2.12376 8.19113 2.11368 8.42887 2.19156 8.64386C2.26944 8.85885 2.42844 9.03426 2.63436 9.13122L3.28309 9.43591C4.34173 9.93311 4.79996 11.192 4.3086 12.2534V12.2534C4.21236 12.4608 4.20228 12.6985 4.28016 12.9135C4.35804 13.1285 4.51704 13.3039 4.72296 13.4009V13.4009C5.58811 13.8072 5.96258 14.836 5.56104 15.7034L4.6634 17.6424C4.41034 18.1891 3.86281 18.539 3.26044 18.539V18.539C2.40661 18.539 1.71444 17.8468 1.71444 16.993V16.6664C1.71444 16.1891 1.33104 15.8029 0.857196 15.8029C0.3834 15.8029 0 16.1891 0 16.6664V22.1367C0 22.6138 0.3834 23 0.857196 23C1.33104 23 1.71444 22.6138 1.71444 22.1367V22.1367C1.71444 21.1033 2.55211 20.2657 3.58544 20.2657H4.79412C5.12724 20.2657 5.43036 20.0709 5.571 19.7674L7.11712 16.428C7.51616 15.5662 8.5402 15.1935 9.39985 15.5973V15.5973C9.51709 15.6521 9.64021 15.6782 9.76153 15.6782C10.0847 15.6782 10.3936 15.4935 10.5392 15.1799V15.1799C11.029 14.1219 12.286 13.6644 13.3413 14.16L16.4392 15.6149C16.5563 15.6698 16.6794 15.6959 16.8007 15.6959C17.1239 15.6959 17.4328 15.5113 17.5785 15.1977V15.1977C17.6517 15.0393 17.8398 14.9709 17.9977 15.045L19.8094 15.8958C19.9265 15.9505 20.0496 15.9766 20.1709 15.9766C20.4941 15.9766 20.803 15.792 20.9487 15.4784L22.9293 11.2003C23.1293 10.7677 22.9435 10.2544 22.5149 10.0528V10.0528C22.4027 10.0001 22.4131 9.83712 22.5311 9.79913L23.4039 9.51823C23.7396 9.41037 23.9757 9.10592 23.9982 8.75099C24.0209 8.39607 23.8249 8.06378 23.5051 7.9138ZM19.3902 7.88681C19.8922 8.12257 19.8456 8.85132 19.3177 9.02128V9.02128C19.1705 9.06867 19.0108 9.05846 18.8708 8.99271L6.91435 3.37699C6.61021 3.23415 6.47855 2.87248 6.61968 2.56754V2.56754C6.76193 2.26016 7.12714 2.12721 7.43371 2.2712L19.3902 7.88681ZM19.0934 13.6543C18.73 13.4838 18.5726 13.0517 18.7412 12.6874L19.4995 11.0482C19.5301 10.9853 19.5737 10.8583 19.6378 10.771C19.7124 10.6695 19.8525 10.7073 19.9665 10.7608V10.7608C20.5455 11.0329 20.7961 11.7214 20.5274 12.302L20.0655 13.3002C19.8956 13.6673 19.4596 13.8261 19.0934 13.6543V13.6543Z" fill="#949494"/>
</svg>
