<svg width="25" height="23" viewBox="0 0 25 23" fill="none" xmlns="http://www.w3.org/2000/svg">
<path d="M17.3085 2.94444C21.0762 2.94444 24.1275 2.59945 24.1275 2.17507L22.4825 0.662598C22.4029 0.821767 22.0846 0.95447 20.8904 1.08717C19.9352 1.19322 18.6617 1.24634 17.3084 1.24634C15.9552 1.24634 14.6816 1.19322 13.7263 1.08717C12.5324 0.954465 12.2139 0.795296 12.1343 0.662598L10.4893 2.17507C10.4893 2.59964 13.5406 2.94444 17.3082 2.94444H17.3085Z" fill="#949494"/>
<path d="M22.3496 0.557288C22.3496 0.865075 20.0926 1.11439 17.3084 1.11439C14.524 1.11439 12.2671 0.865085 12.2671 0.557288C12.2671 0.249491 14.5241 0 17.3084 0C20.0925 0 22.3496 0.249486 22.3496 0.557288Z" fill="#949494"/>
<path d="M22.1638 2.86552C20.8636 3.02469 19.1388 3.10427 17.3083 3.10427C15.4774 3.10427 13.7529 3.02469 12.4793 2.89199C12.3465 2.86552 12.2138 2.86552 12.0813 2.83887L10.4893 4.29823C10.4893 4.7228 13.5405 5.06759 17.3082 5.06759C21.0759 5.06759 24.1272 4.72261 24.1272 4.29823L22.5351 2.83887C22.4289 2.83905 22.2962 2.86552 22.1637 2.86552H22.1638Z" fill="#949494"/>
<path d="M17.2553 10.1622C16.7511 10.1622 16.3001 10.1357 15.9287 10.109C15.6899 10.0826 15.5308 10.0559 15.4512 10.0295V17.7771C15.5572 17.8567 16.2205 17.9363 17.2553 17.9363C18.2901 17.9363 18.9269 17.8302 19.0595 17.7771V10.0029C18.9534 10.0294 18.8207 10.056 18.582 10.0825C18.2105 10.1356 17.7328 10.1621 17.2553 10.1621V10.1622Z" fill="#949494"/>
<path d="M17.2551 7.37635C16.2734 7.37635 15.3447 7.32323 14.6283 7.24364C14.1508 7.19071 13.8853 7.13759 13.6997 7.08447L15.4243 9.84381C15.5038 9.92339 16.1672 10.003 17.2284 10.003C18.2896 10.003 18.953 9.89693 19.0326 9.84381L20.784 7.08447C20.6248 7.13759 20.3329 7.19052 19.8552 7.24364C19.1654 7.32341 18.2367 7.37635 17.255 7.37635H17.2551Z" fill="#949494"/>
<path d="M17.2553 18.0696C16.7512 18.0696 16.3001 18.0431 15.9287 18.0165C15.7429 17.99 15.6103 17.9634 15.5308 17.9634L16.3268 19.3696V21.8107C16.3268 22.2882 16.6718 22.7127 17.1228 22.7659C17.6801 22.8454 18.1576 22.3944 18.1576 21.8638V19.3696L18.9537 17.9899C18.8476 18.0163 18.7414 18.043 18.5557 18.043C18.2106 18.0432 17.7329 18.0696 17.2554 18.0696L17.2553 18.0696Z" fill="#949494"/>
<path d="M13.6201 5.06787V6.87202C13.7793 7.00472 15.1326 7.21701 17.2551 7.21701C19.3778 7.21701 20.7309 7.03118 20.8901 6.87202V5.06787C19.8022 5.14746 18.5551 5.20057 17.2551 5.20057C15.9284 5.20057 14.6814 5.14746 13.6201 5.06787Z" fill="#949494"/>
<path d="M11.2589 9.154C11.1793 9.18047 11.1262 9.18046 11.0466 9.20712C11.1793 9.68462 11.2589 10.2683 11.2589 10.9317L7.25244 11.6746C7.17285 11.2767 6.82787 10.9582 6.40329 10.9582C6.29724 10.9582 6.191 10.9846 6.11142 11.0113L4.51934 8.27837C4.73163 7.96003 4.89079 7.58856 4.91726 7.19047C4.99685 6.23528 4.43976 5.33321 3.56413 4.98823C3.08663 4.80241 2.58245 4.77595 2.13144 4.90865C2.26414 5.46594 2.34373 6.1557 2.34373 6.92511C2.34373 7.77426 2.23767 8.54362 2.07832 9.12735C2.79476 9.33963 3.51101 9.18047 4.0683 8.78236L5.63369 11.4621C5.58058 11.5948 5.52764 11.7276 5.52764 11.8601V12.1519L2.68852 13.8236C2.71498 13.399 2.79457 13.0011 2.87434 12.6561C2.79475 12.6296 2.74164 12.6029 2.66205 12.6029C1.46811 12.3375 0.274176 13.1336 0.035237 14.3542C-0.177051 15.495 0.592525 16.6625 1.73335 16.9014C2.13127 16.981 2.52939 16.9546 2.87417 16.8219C2.715 16.2381 2.60877 15.4421 2.60877 14.5665L5.47433 12.8683V21.8365C5.47433 22.2875 5.81932 22.7121 6.27037 22.7386C6.80098 22.7917 7.22556 22.3671 7.22556 21.863L7.22574 12.3116L11.2057 11.5686C11.1792 12.2585 11.0996 12.8953 10.9403 13.3728C11.3117 13.5055 11.6832 13.532 12.0811 13.4524C13.2219 13.2136 13.9915 12.0726 13.7792 10.9051C13.6467 9.68489 12.4792 8.88885 11.2588 9.15408L11.2589 9.154Z" fill="#949494"/>
</svg>
