<svg width="27" height="31" viewBox="0 0 27 31" fill="none" xmlns="http://www.w3.org/2000/svg">
<path d="M15.1757 7.92L14.66 7.98869L14.8257 9.23333L15.3415 9.16464C15.9686 9.08146 16.6165 9.25375 17.1191 9.6382C17.6219 10.0228 17.9575 10.6028 18.0414 11.2299L18.1101 11.7456L19.3547 11.5799L19.286 11.0642C19.1588 10.109 18.647 9.22598 17.8818 8.64066C17.117 8.05563 16.1308 7.79283 15.1757 7.92Z" fill="#1DE498"/>
<path d="M20.7505 11.3949L21.9949 11.2274L21.9744 11.0774C21.7384 9.30538 20.8274 7.73189 19.4075 6.64577C17.9876 5.55965 16.2308 5.09183 14.4596 5.32809L14.3086 5.34785L14.4726 6.59267L14.6245 6.57297C16.0637 6.38129 17.4917 6.76131 18.6448 7.6433C19.7978 8.5253 20.5387 9.80352 20.7301 11.244L20.7505 11.3949Z" fill="#1DE498"/>
<path d="M14.9339 3.93799C16.8159 3.89696 18.6755 4.50425 20.1709 5.64809C21.666 6.79174 22.7389 8.42763 23.192 10.2549L23.4042 11.1098L24.6234 10.8077L24.4111 9.95258C23.8901 7.84958 22.6548 5.96618 20.9341 4.64995C19.2134 3.33408 17.0721 2.63513 14.9065 2.68214L14.0252 2.70153L14.0526 3.95738L14.9339 3.93799Z" fill="#1DE498"/>
<path d="M10.0465 10.2661C4.507 10.2661 0 14.7732 0 20.3126C0 25.852 4.50713 30.3591 10.0465 30.3591C15.5859 30.3591 20.0929 25.8519 20.0929 20.3126C20.0929 14.7731 15.5858 10.2661 10.0465 10.2661ZM8.16262 27.8476H6.90689V26.5919H8.16262V27.8476ZM10.6743 27.8476H9.4186V26.5919H10.6743V27.8476ZM13.186 27.8476H11.9303V26.5919H13.186V27.8476ZM10.2579 24.708H9.83406C8.21731 24.708 6.90614 23.3968 6.90614 21.7801C6.90614 21.2312 7.06065 20.6938 7.35128 20.2286L10.0457 15.9174L12.7401 20.2286C13.0308 20.6938 13.1853 21.2315 13.1853 21.7801C13.186 23.3971 11.8749 24.708 10.2579 24.708ZM14.7903 27.7421L14.094 26.6973C16.2785 25.2412 17.5821 22.8048 17.5821 20.18C17.5821 16.0979 14.2618 12.7775 10.1796 12.7775H9.91469C5.83256 12.7775 2.51216 16.0978 2.51216 20.18C2.51216 22.8048 3.81574 25.2409 6.00027 26.6973L5.30227 27.7421C2.76802 26.053 1.25549 23.2256 1.25549 20.1801C1.25549 15.4054 5.13965 11.5218 9.91375 11.5218H10.1786C14.9534 11.5218 18.8369 15.406 18.8369 20.1801C18.8371 23.2247 17.3246 26.0523 14.7904 27.7421H14.7903Z" fill="#1DE498"/>
</svg>
