<svg width="389" height="50" viewBox="0 0 389 50" fill="none" xmlns="http://www.w3.org/2000/svg">
<path d="M14.1121 32.9091C15.7575 34.5546 18.4451 34.5546 20.0905 32.9091C21.736 31.2637 21.736 28.5761 20.0905 26.9307L7.25602 14.0961C5.61057 12.4507 2.923 12.4507 1.27755 14.0961C-0.367906 15.7416 -0.367906 18.4292 1.27755 20.0746L8.87405 27.6437L14.1121 32.9091Z" fill="url(#paint0_radial_2_278)"/>
<path d="M20.0904 1.26192C18.445 -0.383531 15.7574 -0.383531 14.112 1.26192L1.27744 14.0964C-0.340589 15.7145 -0.450283 18.2375 1.1129 19.9104L1.16774 19.9926L1.25002 20.0749C1.25002 20.0749 1.25001 20.0749 1.27744 20.1023C1.27744 20.1023 1.30486 20.1023 1.30486 20.1298L8.87394 27.6988C4.78774 23.6126 10.2726 17.1405 10.2726 17.1405L20.1179 7.29524C21.7633 5.59494 21.7633 2.90737 20.0904 1.26192Z" fill="url(#paint1_linear_2_278)"/>
<path d="M59.8879 17.0581C58.2424 15.4126 55.5548 15.4126 53.9094 17.0581C52.2639 18.7035 52.2639 21.3911 53.9094 23.0365L66.7439 35.8711C68.3894 37.5165 71.0769 37.5165 72.7224 35.8711C74.3678 34.2256 74.3678 31.538 72.7224 29.8926L65.1259 22.3235L59.8879 17.0581Z" fill="url(#paint2_linear_2_278)"/>
<path d="M53.9095 48.7055C55.5549 50.3509 58.2425 50.3509 59.8879 48.7055L72.7225 35.871C74.3405 34.2529 74.4502 31.7025 72.887 30.057L72.8322 29.9748L72.7499 29.8925C72.7499 29.8925 72.7499 29.8925 72.7225 29.8651C72.7225 29.8651 72.695 29.8651 72.695 29.8376L65.126 22.2686C69.2122 26.3548 63.7273 32.8269 63.7273 32.8269L53.882 42.6722C52.2366 44.3725 52.2366 47.06 53.9095 48.7055Z" fill="url(#paint3_linear_2_278)"/>
<path d="M34.367 47.0328C33.6814 49.1993 31.3778 50.406 29.2387 49.7204C27.0722 49.0347 25.8655 46.7311 26.5511 44.592L39.8244 2.87983C40.5101 0.713318 42.8137 -0.493347 44.9528 0.192257C47.1193 0.877862 48.3259 3.18149 47.6403 5.32058L34.367 47.0328Z" fill="white"/>
<path d="M100.346 35V15.211H109.336C111.485 15.211 113.379 15.6256 115.019 16.4549C116.658 17.2653 117.94 18.4055 118.863 19.8755C119.787 21.3456 120.248 23.0889 120.248 25.1055C120.248 27.1032 119.787 28.8466 118.863 30.3354C117.94 31.8055 116.658 32.9551 115.019 33.7844C113.379 34.5948 111.485 35 109.336 35H100.346ZM104.926 31.2401H109.11C110.429 31.2401 111.57 30.9951 112.531 30.5051C113.511 29.9962 114.265 29.28 114.792 28.3565C115.339 27.4331 115.612 26.3494 115.612 25.1055C115.612 23.8428 115.339 22.7591 114.792 21.8544C114.265 20.931 113.511 20.2242 112.531 19.7342C111.57 19.2253 110.429 18.9709 109.11 18.9709H104.926V31.2401ZM127.915 23.1831H137.442V26.7452H127.915V23.1831ZM128.254 31.3249H139.025V35H123.702V15.211H138.657V18.8861H128.254V31.3249ZM148.329 35L139.792 15.211H144.739L152.202 32.7384H149.29L156.867 15.211H161.418L152.852 35H148.329ZM167.283 23.1831H176.81V26.7452H167.283V23.1831ZM167.622 31.3249H178.393V35H163.07V15.211H178.025V18.8861H167.622V31.3249ZM182.037 35V15.211H186.617V31.2684H196.539V35H182.037ZM208.379 35.3392C206.814 35.3392 205.363 35.0848 204.025 34.5759C202.706 34.0671 201.556 33.3509 200.576 32.4274C199.615 31.5039 198.861 30.4203 198.315 29.1764C197.787 27.9325 197.523 26.5755 197.523 25.1055C197.523 23.6355 197.787 22.2785 198.315 21.0346C198.861 19.7907 199.624 18.7071 200.604 17.7836C201.584 16.8601 202.734 16.1439 204.053 15.635C205.373 15.1262 206.805 14.8718 208.35 14.8718C209.915 14.8718 211.347 15.1262 212.647 15.635C213.967 16.1439 215.107 16.8601 216.068 17.7836C217.048 18.7071 217.811 19.7907 218.358 21.0346C218.905 22.2597 219.178 23.6166 219.178 25.1055C219.178 26.5755 218.905 27.9419 218.358 29.2046C217.811 30.4485 217.048 31.5322 216.068 32.4557C215.107 33.3603 213.967 34.0671 212.647 34.5759C211.347 35.0848 209.924 35.3392 208.379 35.3392ZM208.35 31.438C209.236 31.438 210.047 31.2872 210.782 30.9857C211.535 30.6841 212.195 30.2506 212.761 29.6852C213.326 29.1198 213.759 28.4508 214.061 27.6781C214.381 26.9054 214.542 26.0478 214.542 25.1055C214.542 24.1632 214.381 23.3056 214.061 22.5329C213.759 21.7602 213.326 21.0912 212.761 20.5258C212.214 19.9604 211.564 19.5269 210.81 19.2253C210.056 18.9238 209.236 18.773 208.35 18.773C207.465 18.773 206.645 18.9238 205.891 19.2253C205.156 19.5269 204.506 19.9604 203.94 20.5258C203.375 21.0912 202.932 21.7602 202.612 22.5329C202.31 23.3056 202.159 24.1632 202.159 25.1055C202.159 26.029 202.31 26.8865 202.612 27.6781C202.932 28.4508 203.365 29.1198 203.912 29.6852C204.477 30.2506 205.137 30.6841 205.891 30.9857C206.645 31.2872 207.465 31.438 208.35 31.438ZM222.62 35V15.211H231.185C232.957 15.211 234.484 15.5031 235.765 16.0874C237.047 16.6528 238.036 17.4726 238.734 18.5469C239.431 19.6211 239.78 20.9027 239.78 22.3916C239.78 23.8616 239.431 25.1338 238.734 26.208C238.036 27.2823 237.047 28.1115 235.765 28.6958C234.484 29.2612 232.957 29.5439 231.185 29.5439H225.164L227.199 27.4802V35H222.62ZM227.199 27.989L225.164 25.8122H230.931C232.345 25.8122 233.4 25.5107 234.097 24.9076C234.795 24.3045 235.143 23.4658 235.143 22.3916C235.143 21.2985 234.795 20.4504 234.097 19.8473C233.4 19.2442 232.345 18.9426 230.931 18.9426H225.164L227.199 16.7658V27.989ZM247.261 23.1831H256.788V26.7452H247.261V23.1831ZM247.601 31.3249H258.372V35H243.049V15.211H258.004V18.8861H247.601V31.3249ZM262.015 35V15.211H270.581C272.353 15.211 273.879 15.5031 275.161 16.0874C276.443 16.6528 277.432 17.4726 278.129 18.5469C278.827 19.6211 279.175 20.9027 279.175 22.3916C279.175 23.8616 278.827 25.1338 278.129 26.208C277.432 27.2634 276.443 28.0738 275.161 28.6392C273.879 29.2046 272.353 29.4873 270.581 29.4873H264.56L266.595 27.4802V35H262.015ZM274.596 35L269.648 27.8194H274.539L279.543 35H274.596ZM266.595 27.989L264.56 25.8405H270.327C271.74 25.8405 272.796 25.539 273.493 24.9359C274.19 24.3139 274.539 23.4658 274.539 22.3916C274.539 21.2985 274.19 20.4504 273.493 19.8473C272.796 19.2442 271.74 18.9426 270.327 18.9426H264.56L266.595 16.7658V27.989ZM289.306 35.3392C287.723 35.3392 286.206 35.1319 284.754 34.7173C283.303 34.2838 282.135 33.7278 281.249 33.0494L282.804 29.6004C283.652 30.2035 284.651 30.703 285.8 31.0987C286.969 31.4757 288.147 31.6641 289.334 31.6641C290.239 31.6641 290.964 31.5793 291.511 31.4097C292.076 31.2212 292.491 30.9668 292.755 30.6464C293.019 30.326 293.151 29.9585 293.151 29.5439C293.151 29.0162 292.943 28.6016 292.529 28.3C292.114 27.9796 291.568 27.7252 290.889 27.5367C290.211 27.3294 289.457 27.1409 288.627 26.9713C287.817 26.7829 286.997 26.5567 286.168 26.2928C285.358 26.029 284.613 25.6897 283.935 25.2751C283.256 24.8605 282.7 24.3139 282.267 23.6355C281.852 22.957 281.645 22.09 281.645 21.0346C281.645 19.9038 281.946 18.8767 282.549 17.9532C283.171 17.0109 284.095 16.2664 285.32 15.7199C286.564 15.1545 288.119 14.8718 289.984 14.8718C291.228 14.8718 292.453 15.0225 293.66 15.3241C294.866 15.6068 295.931 16.0403 296.854 16.6245L295.441 20.1017C294.517 19.574 293.594 19.1876 292.67 18.9426C291.747 18.6788 290.842 18.5469 289.956 18.5469C289.07 18.5469 288.345 18.6505 287.779 18.8578C287.214 19.0651 286.809 19.3384 286.564 19.6777C286.319 19.9981 286.196 20.375 286.196 20.8085C286.196 21.3173 286.404 21.7319 286.818 22.0523C287.233 22.3539 287.779 22.5989 288.458 22.7874C289.136 22.9758 289.881 23.1643 290.691 23.3528C291.52 23.5412 292.34 23.758 293.151 24.003C293.98 24.248 294.734 24.5778 295.412 24.9924C296.091 25.407 296.637 25.9536 297.052 26.6321C297.485 27.3106 297.702 28.1681 297.702 29.2046C297.702 30.3166 297.391 31.3343 296.769 32.2578C296.147 33.1813 295.214 33.9257 293.971 34.4911C292.745 35.0565 291.191 35.3392 289.306 35.3392Z" fill="white"/>
<path d="M312.937 35V18.9426H306.604V15.211H323.849V18.9426H317.517V35H312.937ZM335.649 35.3392C334.085 35.3392 332.633 35.0848 331.295 34.5759C329.976 34.0671 328.826 33.3509 327.846 32.4274C326.885 31.5039 326.131 30.4203 325.585 29.1764C325.057 27.9325 324.793 26.5755 324.793 25.1055C324.793 23.6355 325.057 22.2785 325.585 21.0346C326.131 19.7907 326.895 18.7071 327.875 17.7836C328.855 16.8601 330.004 16.1439 331.324 15.635C332.643 15.1262 334.075 14.8718 335.621 14.8718C337.185 14.8718 338.617 15.1262 339.918 15.635C341.237 16.1439 342.377 16.8601 343.338 17.7836C344.318 18.7071 345.082 19.7907 345.628 21.0346C346.175 22.2597 346.448 23.6166 346.448 25.1055C346.448 26.5755 346.175 27.9419 345.628 29.2046C345.082 30.4485 344.318 31.5322 343.338 32.4557C342.377 33.3603 341.237 34.0671 339.918 34.5759C338.617 35.0848 337.194 35.3392 335.649 35.3392ZM335.621 31.438C336.506 31.438 337.317 31.2872 338.052 30.9857C338.806 30.6841 339.465 30.2506 340.031 29.6852C340.596 29.1198 341.03 28.4508 341.331 27.6781C341.652 26.9054 341.812 26.0478 341.812 25.1055C341.812 24.1632 341.652 23.3056 341.331 22.5329C341.03 21.7602 340.596 21.0912 340.031 20.5258C339.484 19.9604 338.834 19.5269 338.08 19.2253C337.326 18.9238 336.506 18.773 335.621 18.773C334.735 18.773 333.915 18.9238 333.161 19.2253C332.426 19.5269 331.776 19.9604 331.21 20.5258C330.645 21.0912 330.202 21.7602 329.882 22.5329C329.58 23.3056 329.429 24.1632 329.429 25.1055C329.429 26.029 329.58 26.8865 329.882 27.6781C330.202 28.4508 330.636 29.1198 331.182 29.6852C331.748 30.2506 332.407 30.6841 333.161 30.9857C333.915 31.2872 334.735 31.438 335.621 31.438ZM359.502 35.3392C357.937 35.3392 356.486 35.0848 355.148 34.5759C353.829 34.0671 352.679 33.3509 351.699 32.4274C350.738 31.5039 349.984 30.4203 349.438 29.1764C348.91 27.9325 348.646 26.5755 348.646 25.1055C348.646 23.6355 348.91 22.2785 349.438 21.0346C349.984 19.7907 350.747 18.7071 351.727 17.7836C352.707 16.8601 353.857 16.1439 355.176 15.635C356.496 15.1262 357.928 14.8718 359.473 14.8718C361.038 14.8718 362.47 15.1262 363.77 15.635C365.09 16.1439 366.23 16.8601 367.191 17.7836C368.171 18.7071 368.934 19.7907 369.481 21.0346C370.028 22.2597 370.301 23.6166 370.301 25.1055C370.301 26.5755 370.028 27.9419 369.481 29.2046C368.934 30.4485 368.171 31.5322 367.191 32.4557C366.23 33.3603 365.09 34.0671 363.77 34.5759C362.47 35.0848 361.047 35.3392 359.502 35.3392ZM359.473 31.438C360.359 31.438 361.17 31.2872 361.905 30.9857C362.659 30.6841 363.318 30.2506 363.884 29.6852C364.449 29.1198 364.882 28.4508 365.184 27.6781C365.504 26.9054 365.665 26.0478 365.665 25.1055C365.665 24.1632 365.504 23.3056 365.184 22.5329C364.882 21.7602 364.449 21.0912 363.884 20.5258C363.337 19.9604 362.687 19.5269 361.933 19.2253C361.179 18.9238 360.359 18.773 359.473 18.773C358.588 18.773 357.768 18.9238 357.014 19.2253C356.279 19.5269 355.629 19.9604 355.063 20.5258C354.498 21.0912 354.055 21.7602 353.735 22.5329C353.433 23.3056 353.282 24.1632 353.282 25.1055C353.282 26.029 353.433 26.8865 353.735 27.6781C354.055 28.4508 354.488 29.1198 355.035 29.6852C355.6 30.2506 356.26 30.6841 357.014 30.9857C357.768 31.2872 358.588 31.438 359.473 31.438ZM373.743 35V15.211H378.322V31.2684H388.245V35H373.743Z" fill="#2CEFB2"/>
<defs>
<radialGradient id="paint0_radial_2_278" cx="0" cy="0" r="1" gradientUnits="userSpaceOnUse" gradientTransform="translate(0.824553 16.0199) scale(23.5492)">
<stop offset="0.1667" stop-color="#4674B5"/>
<stop offset="0.3306" stop-color="#4878B5"/>
<stop offset="0.4942" stop-color="#4F84B6"/>
<stop offset="0.6576" stop-color="#5998B6"/>
<stop offset="0.821" stop-color="#68B4B7"/>
<stop offset="0.9831" stop-color="#7CD8B9"/>
<stop offset="1" stop-color="#7EDCB9"/>
</radialGradient>
<linearGradient id="paint1_linear_2_278" x1="4.3999" y1="13.8287" x2="34.2028" y2="13.8287" gradientUnits="userSpaceOnUse">
<stop stop-color="#7EDCB9"/>
<stop offset="0.0168892" stop-color="#7CD8B9"/>
<stop offset="0.179" stop-color="#68B4B7"/>
<stop offset="0.3424" stop-color="#5998B6"/>
<stop offset="0.5058" stop-color="#4F84B6"/>
<stop offset="0.6694" stop-color="#4878B5"/>
<stop offset="0.8333" stop-color="#4674B5"/>
</linearGradient>
<linearGradient id="paint2_linear_2_278" x1="73.9584" y1="26.4679" x2="52.6582" y2="26.4679" gradientUnits="userSpaceOnUse">
<stop offset="0.00955605" stop-color="#8C0053"/>
<stop offset="0.1433" stop-color="#8F0651"/>
<stop offset="0.3241" stop-color="#99174D"/>
<stop offset="0.5319" stop-color="#A93445"/>
<stop offset="0.7597" stop-color="#BF5B3B"/>
<stop offset="1" stop-color="#DB8D2E"/>
</linearGradient>
<linearGradient id="paint3_linear_2_278" x1="69.6008" y1="36.1349" x2="39.7979" y2="36.1349" gradientUnits="userSpaceOnUse">
<stop stop-color="#DB8D2E"/>
<stop offset="0.2403" stop-color="#BF5B3B"/>
<stop offset="0.4681" stop-color="#A93445"/>
<stop offset="0.6759" stop-color="#99174D"/>
<stop offset="0.8567" stop-color="#8F0651"/>
<stop offset="0.9904" stop-color="#8C0053"/>
</linearGradient>
</defs>
</svg>
