<svg width="25" height="24" viewBox="0 0 25 24" fill="none" xmlns="http://www.w3.org/2000/svg">
<path d="M6.78498 20.6292C5.13275 20.6292 3.73843 19.5249 3.29974 18.0142C3.11247 17.3693 3.34257 16.6976 3.69452 16.1257L9.74244 5.09773C11.1594 2.79514 14.5064 2.79514 15.9234 5.09773L21.9713 16.1257C22.3232 16.6976 22.5533 17.3693 22.3661 18.0142C21.9274 19.5249 20.5331 20.6292 18.8808 20.6292H6.78498Z" fill="#7B95AD"/>
<path d="M12.8329 16.557V16.5995M18.8808 20.6292H6.78498C5.13275 20.6292 3.73843 19.5249 3.29974 18.0142C3.11247 17.3693 3.34257 16.6976 3.69452 16.1257L9.74244 5.09773C11.1594 2.79514 14.5064 2.79514 15.9234 5.09773L21.9713 16.1257C22.3232 16.6976 22.5533 17.3693 22.3661 18.0142C21.9274 19.5249 20.5331 20.6292 18.8808 20.6292Z" stroke="#7B95AD" stroke-width="2" stroke-linecap="round" stroke-linejoin="round"/>
<path d="M12.833 16.557V16.5995" stroke="#213242" stroke-width="2" stroke-linecap="round" stroke-linejoin="round"/>
<path d="M12.833 12.9709V8.13257" stroke="#213242" stroke-width="2" stroke-linecap="round" stroke-linejoin="round"/>
</svg>
