<svg width="22" height="16" viewBox="0 0 22 16" fill="none" xmlns="http://www.w3.org/2000/svg">
<path fill-rule="evenodd" clip-rule="evenodd" d="M2.47163 8.10325C2.53686 7.94104 2.63027 7.72432 2.75524 7.46945C3.04923 6.86985 3.51186 6.07141 4.18333 5.27643C5.5144 3.70053 7.65396 2.1431 11.0001 2.1431C14.3463 2.1431 16.4859 3.70053 17.817 5.27643C18.4884 6.07141 18.9511 6.86985 19.2451 7.46945C19.3717 7.72783 19.466 7.94699 19.5313 8.10991C19.4642 8.26915 19.368 8.4824 19.2397 8.73321C18.9394 9.32023 18.4693 10.1008 17.7933 10.8745C16.4532 12.4081 14.3165 13.9099 11.0165 13.856C7.69493 13.8016 5.544 12.2878 4.2012 10.778C3.5243 10.017 3.05449 9.25707 2.75502 8.68877C2.63161 8.4546 2.53808 8.25476 2.47163 8.10325ZM20.6001 8.11923C21.5544 7.82038 21.5543 7.8199 21.5541 7.8194L21.5538 7.81825L21.5529 7.81548L21.5505 7.80802L21.5432 7.78558C21.5372 7.76733 21.5288 7.74257 21.5181 7.71172C21.4966 7.65004 21.4654 7.56393 21.4237 7.45687C21.3405 7.24293 21.215 6.94424 21.0408 6.58896C20.6935 5.88054 20.1465 4.93494 19.3449 3.98589C17.7298 2.07373 15.0693 0.143097 11.0001 0.143097C6.93095 0.143097 4.27051 2.07373 2.65542 3.98589C1.85382 4.93494 1.30683 5.88054 0.959481 6.58896C0.785283 6.94424 0.659794 7.24293 0.576556 7.45687C0.534902 7.56393 0.503719 7.65004 0.482218 7.71172C0.471465 7.74257 0.463124 7.76733 0.457096 7.78558L0.449775 7.80802L0.447391 7.81548L0.446514 7.81825L0.446154 7.8194C0.445995 7.8199 0.445845 7.82038 1.40015 8.11923L0.445845 7.82038L0.347656 8.13393L0.454565 8.44461L1.40015 8.11923C0.454565 8.44461 0.45473 8.44509 0.454905 8.44559L0.455299 8.44673L0.456249 8.44947L0.458806 8.45676L0.466572 8.47847C0.472939 8.49607 0.481706 8.51985 0.492962 8.54941C0.515467 8.60852 0.547962 8.69082 0.591167 8.79306C0.677506 8.99735 0.807044 9.28223 0.985662 9.62118C1.34195 10.2973 1.89907 11.1991 2.70678 12.1072C4.33321 13.9358 6.98229 15.7903 10.9838 15.8557C15.0068 15.9215 17.6702 14.055 19.2993 12.1904C20.1079 11.265 20.6648 10.3389 21.0202 9.64411C21.1985 9.29565 21.3277 9.00232 21.4136 8.79207C21.4566 8.68686 21.489 8.60217 21.5113 8.54148C21.5225 8.51112 21.5311 8.48673 21.5374 8.46875L21.5451 8.44662L21.5476 8.43925L21.5485 8.4365L21.5489 8.43537C21.549 8.43486 21.5492 8.43439 20.6001 8.11923ZM20.6001 8.11923L21.5492 8.43439L21.6509 8.12823L21.5544 7.82038L20.6001 8.11923ZM11.0001 6.69405C10.201 6.69405 9.60015 7.31747 9.60015 8.0294C9.60015 8.74134 10.201 9.36476 11.0001 9.36476C11.7993 9.36476 12.4001 8.74134 12.4001 8.0294C12.4001 7.31747 11.7993 6.69405 11.0001 6.69405ZM19.6466 8.42032C19.6467 8.42076 19.6467 8.4208 19.6466 8.42043L19.6466 8.42032ZM7.60015 8.0294C7.60015 6.16177 9.14829 4.69405 11.0001 4.69405C12.852 4.69405 14.4001 6.16177 14.4001 8.0294C14.4001 9.89703 12.852 11.3648 11.0001 11.3648C9.14829 11.3648 7.60015 9.89703 7.60015 8.0294Z" fill="#39B586"/>
</svg>
