<svg width="20" height="19" viewBox="0 0 20 19" fill="none" xmlns="http://www.w3.org/2000/svg">
<path opacity="0.7" d="M18.7219 15.709C17.7559 16.6443 16.5983 17.388 15.2489 17.94C13.9149 18.492 12.2589 18.768 10.2809 18.768C8.41028 18.768 6.76961 18.3923 5.35894 17.641C3.96361 16.8743 2.88261 15.7933 2.11594 14.398C1.34928 12.9873 0.965942 11.3237 0.965942 9.407C0.965942 8.01167 1.20361 6.739 1.67894 5.589C2.16961 4.439 2.84428 3.45 3.70294 2.622C4.57694 1.77867 5.59661 1.13467 6.76194 0.69C7.94261 0.23 9.22294 0 10.6029 0C12.5503 0 14.1756 0.360334 15.4789 1.081C16.7823 1.80167 17.7636 2.783 18.4229 4.025C19.0823 5.25167 19.4119 6.63167 19.4119 8.165C19.4119 8.87033 19.3276 9.60633 19.1589 10.373C18.9903 11.1243 18.7143 11.822 18.3309 12.466C17.9629 13.11 17.4799 13.6313 16.8819 14.03C16.2839 14.4287 15.5556 14.628 14.6969 14.628C14.2369 14.628 13.7923 14.4517 13.3629 14.099C12.9489 13.7463 12.6883 13.3247 12.5809 12.834C12.3356 13.34 11.9523 13.777 11.4309 14.145C10.9096 14.4977 10.2503 14.674 9.45294 14.674C6.49361 14.674 5.01394 12.8647 5.01394 9.246C5.01394 8.004 5.20561 6.969 5.58894 6.141C5.98761 5.313 6.51661 4.692 7.17594 4.278C7.83528 3.864 8.54828 3.657 9.31494 3.657C10.0049 3.657 10.5569 3.75667 10.9709 3.956C11.3849 4.14 11.6686 4.33933 11.8219 4.554V3.611L14.6739 4.025L14.3979 11.201V11.339C14.3979 11.7683 14.4899 12.0827 14.6739 12.282C14.8579 12.466 15.0726 12.558 15.3179 12.558C15.5633 12.558 15.8239 12.374 16.0999 12.006C16.3913 11.638 16.6366 11.1243 16.8359 10.465C17.0353 9.80567 17.1349 9.04667 17.1349 8.188C17.1349 7.00733 16.9126 5.934 16.4679 4.968C16.0233 3.98667 15.3179 3.21233 14.3519 2.645C13.4013 2.06233 12.1516 1.771 10.6029 1.771C9.19228 1.771 7.91961 2.093 6.78494 2.737C5.66561 3.381 4.77628 4.278 4.11694 5.428C3.47294 6.56267 3.15094 7.89667 3.15094 9.43C3.15094 11.0247 3.46528 12.3817 4.09394 13.501C4.73794 14.605 5.59661 15.4483 6.66994 16.031C7.75861 16.6137 8.96228 16.905 10.2809 16.905C11.9216 16.905 13.3936 16.6827 14.6969 16.238C16.0003 15.778 17.0889 15.1953 17.9629 14.49L18.7219 15.709ZM11.8449 6.808C11.7223 6.51667 11.5153 6.256 11.2239 6.026C10.9479 5.796 10.5416 5.681 10.0049 5.681C9.60628 5.681 9.22294 5.78833 8.85494 6.003C8.50228 6.20233 8.21094 6.57033 7.98094 7.107C7.76628 7.62833 7.65894 8.36433 7.65894 9.315C7.65894 10.6337 7.85828 11.5613 8.25694 12.098C8.67094 12.6347 9.19228 12.903 9.82094 12.903C10.4803 12.903 10.9786 12.6423 11.3159 12.121C11.6686 11.5843 11.8449 10.948 11.8449 10.212V6.808Z" fill="#0C1C5E"/>
</svg>
