<svg width="102" height="9" viewBox="0 0 102 9" fill="none" xmlns="http://www.w3.org/2000/svg">
<path d="M6.53083 6.22664C6.53083 5.93329 6.54416 5.66661 6.57082 5.4266L6.54416 5.3866C6.29531 5.42215 6.02426 5.44882 5.73098 5.4666C5.4377 5.47549 5.16664 5.47549 4.9178 5.4666V3.73318L8.39714 3.71985V8.2534C7.98833 8.44008 7.52175 8.58676 6.9974 8.69343C6.48195 8.79121 5.82429 8.8401 5.02445 8.8401C3.95798 8.8401 3.12258 8.69787 2.51825 8.41341C1.91392 8.12007 1.48734 7.65338 1.2385 7.01334C0.989655 6.36442 0.865234 5.50216 0.865234 4.42655C0.865234 3.55539 0.962994 2.8398 1.15851 2.27977C1.36292 1.71975 1.6562 1.28861 2.03834 0.986376C2.42938 0.675249 2.90485 0.461905 3.46474 0.346344C4.02463 0.221893 4.66451 0.159668 5.38438 0.159668C5.81096 0.159668 6.23755 0.177447 6.66413 0.213004C7.09961 0.248561 7.53064 0.315231 7.95722 0.413014V2.1731L7.91723 2.19977C7.54397 2.11088 7.1707 2.04865 6.79744 2.01309C6.43307 1.97754 6.06425 1.95976 5.69098 1.95976C5.14887 1.95976 4.6734 2.01754 4.26459 2.1331C3.86466 2.23977 3.55361 2.46645 3.33143 2.81313C3.10925 3.15982 2.99816 3.69762 2.99816 4.42655C2.99816 5.14658 3.05593 5.69772 3.17146 6.07996C3.29588 6.45332 3.52251 6.71111 3.85133 6.85334C4.18905 6.98668 4.66896 7.05335 5.29106 7.05335C5.37105 7.05335 5.49547 7.05335 5.66432 7.05335C5.83318 7.04446 6.00204 7.03557 6.17089 7.02668C6.33975 7.01779 6.45973 7.00445 6.53083 6.98668V6.22664Z" fill="black"/>
<path d="M10.5337 8.7201V0.279674H14.2263C14.964 0.279674 15.5816 0.341899 16.0793 0.46635C16.577 0.581911 16.9769 0.790811 17.2791 1.09305C17.5813 1.39528 17.799 1.81753 17.9323 2.35978C18.0656 2.89314 18.1323 3.58206 18.1323 4.42655C18.1323 5.30659 18.0656 6.02663 17.9323 6.58665C17.799 7.14668 17.5813 7.58226 17.2791 7.89339C16.9769 8.20451 16.577 8.4223 16.0793 8.54675C15.5816 8.66232 14.964 8.7201 14.2263 8.7201H10.5337ZM13.9197 2.07976H12.6666V6.92001H13.9197C14.4352 6.92001 14.8396 6.86223 15.1328 6.74666C15.435 6.6311 15.6483 6.39553 15.7727 6.03996C15.906 5.68439 15.9727 5.14658 15.9727 4.42655C15.9727 3.74207 15.906 3.23538 15.7727 2.90647C15.6483 2.56868 15.435 2.34644 15.1328 2.23977C14.8396 2.1331 14.4352 2.07976 13.9197 2.07976Z" fill="black"/>
<path d="M24.5807 6.54665C24.9718 6.67999 25.3984 6.78667 25.8605 6.86667C26.3315 6.93778 26.7981 6.97334 27.2602 6.97334C27.8912 6.97334 28.3578 6.94667 28.66 6.89334C28.971 6.83111 29.1754 6.73777 29.2732 6.61332C29.3709 6.48887 29.4198 6.32886 29.4198 6.1333C29.4198 5.9644 29.3843 5.83106 29.3132 5.73328C29.2421 5.6355 29.1043 5.55994 28.8999 5.5066C28.6955 5.44438 28.3933 5.39548 27.9934 5.35993L27.1136 5.27992C26.4559 5.2177 25.936 5.07991 25.5539 4.86657C25.1806 4.65323 24.914 4.36877 24.754 4.01319C24.603 3.64873 24.5274 3.21315 24.5274 2.70646C24.5274 2.10199 24.6474 1.61307 24.8873 1.23972C25.1362 0.86637 25.5361 0.595245 26.0871 0.426348C26.6381 0.248561 27.3713 0.159668 28.2867 0.159668C29.4776 0.159668 30.4596 0.315231 31.2328 0.626357L31.1928 2.43978L31.1528 2.49312C30.273 2.18199 29.3532 2.02643 28.3933 2.02643C27.9312 2.02643 27.5757 2.0531 27.3269 2.10643C27.078 2.15088 26.9047 2.22644 26.807 2.33311C26.7092 2.43978 26.6603 2.5909 26.6603 2.78647C26.6603 2.98203 26.6914 3.12871 26.7537 3.22649C26.8247 3.32427 26.9625 3.39983 27.1669 3.45317C27.3713 3.49761 27.669 3.54206 28.0601 3.58651L28.8999 3.67984C29.6109 3.75985 30.1575 3.90208 30.5396 4.10653C30.9218 4.31099 31.1839 4.58656 31.3261 4.93324C31.4772 5.27103 31.5527 5.68439 31.5527 6.1733C31.5527 6.76889 31.4239 7.26669 31.1661 7.66671C30.9173 8.05784 30.5085 8.35119 29.9397 8.54675C29.3709 8.74232 28.6111 8.8401 27.6601 8.8401C27.038 8.8401 26.4781 8.80899 25.9805 8.74676C25.4828 8.67565 24.9984 8.58231 24.5274 8.46675V6.58665L24.5807 6.54665Z" fill="black"/>
<path d="M41.2899 8.68009V8.7201H39.0236C38.9614 8.50675 38.8859 8.26229 38.797 7.98673C38.717 7.71116 38.6281 7.41781 38.5304 7.10668H35.6509C35.4732 7.72893 35.3088 8.26674 35.1577 8.7201H32.8914V8.69343L35.6243 0.279674H38.557L41.2899 8.68009ZM37.064 1.79975C36.9751 2.25311 36.8462 2.80424 36.6774 3.45317C36.5085 4.10209 36.3308 4.76434 36.1442 5.43993H38.0505C37.8549 4.76434 37.6728 4.10209 37.5039 3.45317C37.335 2.80424 37.2062 2.25311 37.1173 1.79975H37.064Z" fill="black"/>
<path d="M45.0277 8.7201H42.8948V0.279674H49.1602V2.01309H45.0277V3.94652H48.8936V5.67994H45.0277V8.7201Z" fill="black"/>
<path d="M50.8255 8.7201V0.279674H57.091V2.01309H52.9585V3.61317H56.5445V5.34659H52.9585V6.98668H57.091V8.7201H50.8255Z" fill="black"/>
<path d="M64.3099 6.54665C64.7009 6.67999 65.1275 6.78667 65.5896 6.86667C66.0606 6.93778 66.5272 6.97334 66.9893 6.97334C67.6203 6.97334 68.0869 6.94667 68.3891 6.89334C68.7001 6.83111 68.9045 6.73777 69.0023 6.61332C69.1001 6.48887 69.1489 6.32886 69.1489 6.1333C69.1489 5.9644 69.1134 5.83106 69.0423 5.73328C68.9712 5.6355 68.8334 5.55994 68.629 5.5066C68.4246 5.44438 68.1225 5.39548 67.7225 5.35993L66.8427 5.27992C66.1851 5.2177 65.6652 5.07991 65.283 4.86657C64.9097 4.65323 64.6431 4.36877 64.4832 4.01319C64.3321 3.64873 64.2565 3.21315 64.2565 2.70646C64.2565 2.10199 64.3765 1.61307 64.6165 1.23972C64.8653 0.86637 65.2652 0.595245 65.8162 0.426348C66.3672 0.248561 67.1004 0.159668 68.0158 0.159668C69.2067 0.159668 70.1887 0.315231 70.9619 0.626357L70.9219 2.43978L70.8819 2.49312C70.0021 2.18199 69.0823 2.02643 68.1225 2.02643C67.6603 2.02643 67.3048 2.0531 67.056 2.10643C66.8072 2.15088 66.6339 2.22644 66.5361 2.33311C66.4383 2.43978 66.3895 2.5909 66.3895 2.78647C66.3895 2.98203 66.4206 3.12871 66.4828 3.22649C66.5539 3.32427 66.6916 3.39983 66.896 3.45317C67.1004 3.49761 67.3982 3.54206 67.7892 3.58651L68.629 3.67984C69.34 3.75985 69.8866 3.90208 70.2687 4.10653C70.6509 4.31099 70.913 4.58656 71.0552 4.93324C71.2063 5.27103 71.2819 5.68439 71.2819 6.1733C71.2819 6.76889 71.153 7.26669 70.8953 7.66671C70.6464 8.05784 70.2376 8.35119 69.6688 8.54675C69.1001 8.74232 68.3402 8.8401 67.3893 8.8401C66.7672 8.8401 66.2073 8.80899 65.7096 8.74676C65.2119 8.67565 64.7275 8.58231 64.2565 8.46675V6.58665L64.3099 6.54665Z" fill="black"/>
<path d="M75.42 8.7201H73.2871V0.279674H75.42V8.7201Z" fill="black"/>
<path d="M79.4229 8.7201V2.07976H77.0234V0.279674H83.9554V2.07976H81.5558V8.7201H79.4229Z" fill="black"/>
<path d="M85.5556 8.7201V0.279674H91.8211V2.01309H87.6885V3.61317H91.2745V5.34659H87.6885V6.98668H91.8211V8.7201H85.5556Z" fill="black"/>
<path d="M94.5027 6.54665C94.8937 6.67999 95.3203 6.78667 95.7824 6.86667C96.2534 6.93778 96.72 6.97334 97.1821 6.97334C97.8131 6.97334 98.2797 6.94667 98.5819 6.89334C98.8929 6.83111 99.0973 6.73777 99.1951 6.61332C99.2929 6.48887 99.3417 6.32886 99.3417 6.1333C99.3417 5.9644 99.3062 5.83106 99.2351 5.73328C99.164 5.6355 99.0262 5.55994 98.8218 5.5066C98.6174 5.44438 98.3153 5.39548 97.9153 5.35993L97.0355 5.27992C96.3779 5.2177 95.858 5.07991 95.4758 4.86657C95.1025 4.65323 94.8359 4.36877 94.676 4.01319C94.5249 3.64873 94.4493 3.21315 94.4493 2.70646C94.4493 2.10199 94.5693 1.61307 94.8093 1.23972C95.0581 0.866369 95.458 0.595245 96.009 0.426348C96.56 0.248561 97.2932 0.159668 98.2086 0.159668C99.3995 0.159668 100.382 0.315231 101.155 0.626357L101.115 2.43978L101.075 2.49312C100.195 2.18199 99.2751 2.02643 98.3153 2.02643C97.8531 2.02643 97.4976 2.0531 97.2488 2.10643C97 2.15088 96.8267 2.22644 96.7289 2.33311C96.6311 2.43978 96.5823 2.5909 96.5823 2.78647C96.5823 2.98203 96.6134 3.12871 96.6756 3.22649C96.7467 3.32427 96.8844 3.39983 97.0888 3.45317C97.2932 3.49761 97.591 3.54206 97.982 3.58651L98.8218 3.67984C99.5328 3.75985 100.079 3.90208 100.462 4.10653C100.844 4.31099 101.106 4.58656 101.248 4.93324C101.399 5.27103 101.475 5.68439 101.475 6.1733C101.475 6.76889 101.346 7.26669 101.088 7.66671C100.839 8.05784 100.43 8.35119 99.8616 8.54675C99.2929 8.74232 98.533 8.8401 97.5821 8.8401C96.96 8.8401 96.4001 8.80899 95.9024 8.74676C95.4047 8.67565 94.9203 8.58231 94.4493 8.46675V6.58665L94.5027 6.54665Z" fill="black"/>
</svg>
