<svg width="132" height="27" viewBox="0 0 132 27" fill="none" xmlns="http://www.w3.org/2000/svg">
<path d="M20.0475 17.4677C21.9942 12.7701 22.1988 7.75165 22.0577 5.82959C19.7724 11.5429 15.1101 15.0519 13.0646 16.0923C9.42504 18.3353 5.09424 19.0018 3.38379 19.0547C5.71142 23.1598 9.60843 25.491 11.266 26.1434C16.3021 24.1967 19.2187 19.5485 20.0475 17.4677Z" fill="#75DAB4"/>
<path d="M11.2134 0.856934C7.48923 5.25826 2.50247 5.86486 0.474609 5.61799C0.474609 10.7388 1.28575 14.0292 1.69132 15.0343C4.12475 15.5633 8.0394 15.193 9.73222 14.8227C17.1912 12.4951 21.0353 7.82218 22.0052 5.61799C17.1383 6.08351 12.7828 2.63792 11.2134 0.856934Z" fill="#B3CF2D"/>
<path d="M13.2764 9.21541C6.92832 10.2311 2.14963 8.65113 0.527344 7.73419C0.527344 10.485 1.26795 14.0294 1.69116 15.0345C13.0119 16.9389 20.2064 9.37411 22.0579 5.61816C18.8839 7.94579 14.881 8.98617 13.2764 9.21541Z" fill="#A2BE1C"/>
<path d="M36.5308 15.2266C36.5308 14.9333 36.5442 14.6666 36.5708 14.4266L36.5442 14.3866C36.2953 14.4222 36.0243 14.4488 35.731 14.4666C35.4377 14.4755 35.1666 14.4755 34.9178 14.4666V12.7332L38.3971 12.7198V17.2534C37.9883 17.4401 37.5217 17.5868 36.9974 17.6934C36.4819 17.7912 35.8243 17.8401 35.0244 17.8401C33.958 17.8401 33.1226 17.6979 32.5183 17.4134C31.9139 17.1201 31.4873 16.6534 31.2385 16.0133C30.9897 15.3644 30.8652 14.5022 30.8652 13.4265C30.8652 12.5554 30.963 11.8398 31.1585 11.2798C31.3629 10.7197 31.6562 10.2886 32.0383 9.98638C32.4294 9.67525 32.9048 9.46191 33.4647 9.34634C34.0246 9.22189 34.6645 9.15967 35.3844 9.15967C35.811 9.15967 36.2375 9.17745 36.6641 9.213C37.0996 9.24856 37.5306 9.31523 37.9572 9.41301V11.1731L37.9172 11.1998C37.544 11.1109 37.1707 11.0487 36.7974 11.0131C36.4331 10.9775 36.0642 10.9598 35.691 10.9598C35.1489 10.9598 34.6734 11.0175 34.2646 11.1331C33.8647 11.2398 33.5536 11.4664 33.3314 11.8131C33.1093 12.1598 32.9982 12.6976 32.9982 13.4265C32.9982 14.1466 33.0559 14.6977 33.1715 15.08C33.2959 15.4533 33.5225 15.7111 33.8513 15.8533C34.189 15.9867 34.669 16.0533 35.2911 16.0533C35.371 16.0533 35.4955 16.0533 35.6643 16.0533C35.8332 16.0445 36.002 16.0356 36.1709 16.0267C36.3398 16.0178 36.4597 16.0045 36.5308 15.9867V15.2266Z" fill="black"/>
<path d="M40.5337 17.7201V9.27967H44.2263C44.964 9.27967 45.5816 9.3419 46.0793 9.46635C46.577 9.58191 46.9769 9.79081 47.2791 10.093C47.5813 10.3953 47.799 10.8175 47.9323 11.3598C48.0656 11.8931 48.1323 12.5821 48.1323 13.4265C48.1323 14.3066 48.0656 15.0266 47.9323 15.5867C47.799 16.1467 47.5813 16.5823 47.2791 16.8934C46.9769 17.2045 46.577 17.4223 46.0793 17.5468C45.5816 17.6623 44.964 17.7201 44.2263 17.7201H40.5337ZM43.9197 11.0798H42.6666V15.92H43.9197C44.4352 15.92 44.8396 15.8622 45.1328 15.7467C45.435 15.6311 45.6483 15.3955 45.7727 15.04C45.906 14.6844 45.9727 14.1466 45.9727 13.4265C45.9727 12.7421 45.906 12.2354 45.7727 11.9065C45.6483 11.5687 45.435 11.3464 45.1328 11.2398C44.8396 11.1331 44.4352 11.0798 43.9197 11.0798Z" fill="black"/>
<path d="M54.5807 15.5467C54.9718 15.68 55.3984 15.7867 55.8605 15.8667C56.3315 15.9378 56.7981 15.9733 57.2602 15.9733C57.8912 15.9733 58.3578 15.9467 58.66 15.8933C58.971 15.8311 59.1754 15.7378 59.2732 15.6133C59.3709 15.4889 59.4198 15.3289 59.4198 15.1333C59.4198 14.9644 59.3843 14.8311 59.3132 14.7333C59.2421 14.6355 59.1043 14.5599 58.8999 14.5066C58.6955 14.4444 58.3933 14.3955 57.9934 14.3599L57.1136 14.2799C56.4559 14.2177 55.936 14.0799 55.5539 13.8666C55.1806 13.6532 54.914 13.3688 54.754 13.0132C54.603 12.6487 54.5274 12.2132 54.5274 11.7065C54.5274 11.102 54.6474 10.6131 54.8873 10.2397C55.1362 9.86637 55.5361 9.59524 56.0871 9.42635C56.6381 9.24856 57.3713 9.15967 58.2867 9.15967C59.4776 9.15967 60.4596 9.31523 61.2328 9.62636L61.1928 11.4398L61.1528 11.4931C60.273 11.182 59.3532 11.0264 58.3933 11.0264C57.9312 11.0264 57.5757 11.0531 57.3269 11.1064C57.078 11.1509 56.9047 11.2264 56.807 11.3331C56.7092 11.4398 56.6603 11.5909 56.6603 11.7865C56.6603 11.982 56.6914 12.1287 56.7537 12.2265C56.8247 12.3243 56.9625 12.3998 57.1669 12.4532C57.3713 12.4976 57.669 12.5421 58.0601 12.5865L58.8999 12.6798C59.6109 12.7598 60.1575 12.9021 60.5396 13.1065C60.9218 13.311 61.1839 13.5866 61.3261 13.9332C61.4772 14.271 61.5527 14.6844 61.5527 15.1733C61.5527 15.7689 61.4239 16.2667 61.1661 16.6667C60.9173 17.0578 60.5085 17.3512 59.9397 17.5468C59.3709 17.7423 58.6111 17.8401 57.6601 17.8401C57.038 17.8401 56.4781 17.809 55.9805 17.7468C55.4828 17.6756 54.9984 17.5823 54.5274 17.4667V15.5867L54.5807 15.5467Z" fill="black"/>
<path d="M71.2899 17.6801V17.7201H69.0236C68.9614 17.5068 68.8859 17.2623 68.797 16.9867C68.717 16.7112 68.6281 16.4178 68.5304 16.1067H65.6509C65.4732 16.7289 65.3088 17.2667 65.1577 17.7201H62.8914V17.6934L65.6243 9.27967H68.557L71.2899 17.6801ZM67.064 10.7998C66.9751 11.2531 66.8462 11.8042 66.6774 12.4532C66.5085 13.1021 66.3308 13.7643 66.1442 14.4399H68.0505C67.8549 13.7643 67.6728 13.1021 67.5039 12.4532C67.335 11.8042 67.2062 11.2531 67.1173 10.7998H67.064Z" fill="black"/>
<path d="M75.0277 17.7201H72.8948V9.27967H79.1602V11.0131H75.0277V12.9465H78.8936V14.6799H75.0277V17.7201Z" fill="black"/>
<path d="M80.8255 17.7201V9.27967H87.091V11.0131H82.9585V12.6132H86.5445V14.3466H82.9585V15.9867H87.091V17.7201H80.8255Z" fill="black"/>
<path d="M94.3099 15.5467C94.7009 15.68 95.1275 15.7867 95.5896 15.8667C96.0606 15.9378 96.5272 15.9733 96.9893 15.9733C97.6203 15.9733 98.0869 15.9467 98.3891 15.8933C98.7001 15.8311 98.9045 15.7378 99.0023 15.6133C99.1001 15.4889 99.1489 15.3289 99.1489 15.1333C99.1489 14.9644 99.1134 14.8311 99.0423 14.7333C98.9712 14.6355 98.8334 14.5599 98.629 14.5066C98.4246 14.4444 98.1225 14.3955 97.7225 14.3599L96.8427 14.2799C96.1851 14.2177 95.6652 14.0799 95.283 13.8666C94.9097 13.6532 94.6431 13.3688 94.4832 13.0132C94.3321 12.6487 94.2565 12.2132 94.2565 11.7065C94.2565 11.102 94.3765 10.6131 94.6165 10.2397C94.8653 9.86637 95.2652 9.59524 95.8162 9.42635C96.3672 9.24856 97.1004 9.15967 98.0158 9.15967C99.2067 9.15967 100.189 9.31523 100.962 9.62636L100.922 11.4398L100.882 11.4931C100.002 11.182 99.0823 11.0264 98.1225 11.0264C97.6603 11.0264 97.3048 11.0531 97.056 11.1064C96.8072 11.1509 96.6339 11.2264 96.5361 11.3331C96.4383 11.4398 96.3895 11.5909 96.3895 11.7865C96.3895 11.982 96.4206 12.1287 96.4828 12.2265C96.5539 12.3243 96.6916 12.3998 96.896 12.4532C97.1004 12.4976 97.3982 12.5421 97.7892 12.5865L98.629 12.6798C99.34 12.7598 99.8866 12.9021 100.269 13.1065C100.651 13.311 100.913 13.5866 101.055 13.9332C101.206 14.271 101.282 14.6844 101.282 15.1733C101.282 15.7689 101.153 16.2667 100.895 16.6667C100.646 17.0578 100.238 17.3512 99.6688 17.5468C99.1001 17.7423 98.3402 17.8401 97.3893 17.8401C96.7672 17.8401 96.2073 17.809 95.7096 17.7468C95.2119 17.6756 94.7275 17.5823 94.2565 17.4667V15.5867L94.3099 15.5467Z" fill="black"/>
<path d="M105.42 17.7201H103.287V9.27967H105.42V17.7201Z" fill="black"/>
<path d="M109.423 17.7201V11.0798H107.023V9.27967H113.955V11.0798H111.556V17.7201H109.423Z" fill="black"/>
<path d="M115.556 17.7201V9.27967H121.821V11.0131H117.689V12.6132H121.275V14.3466H117.689V15.9867H121.821V17.7201H115.556Z" fill="black"/>
<path d="M124.503 15.5467C124.894 15.68 125.32 15.7867 125.782 15.8667C126.253 15.9378 126.72 15.9733 127.182 15.9733C127.813 15.9733 128.28 15.9467 128.582 15.8933C128.893 15.8311 129.097 15.7378 129.195 15.6133C129.293 15.4889 129.342 15.3289 129.342 15.1333C129.342 14.9644 129.306 14.8311 129.235 14.7333C129.164 14.6355 129.026 14.5599 128.822 14.5066C128.617 14.4444 128.315 14.3955 127.915 14.3599L127.036 14.2799C126.378 14.2177 125.858 14.0799 125.476 13.8666C125.103 13.6532 124.836 13.3688 124.676 13.0132C124.525 12.6487 124.449 12.2132 124.449 11.7065C124.449 11.102 124.569 10.6131 124.809 10.2397C125.058 9.86637 125.458 9.59525 126.009 9.42635C126.56 9.24856 127.293 9.15967 128.209 9.15967C129.399 9.15967 130.382 9.31523 131.155 9.62636L131.115 11.4398L131.075 11.4931C130.195 11.182 129.275 11.0264 128.315 11.0264C127.853 11.0264 127.498 11.0531 127.249 11.1064C127 11.1509 126.827 11.2264 126.729 11.3331C126.631 11.4398 126.582 11.5909 126.582 11.7865C126.582 11.982 126.613 12.1287 126.676 12.2265C126.747 12.3243 126.884 12.3998 127.089 12.4532C127.293 12.4976 127.591 12.5421 127.982 12.5865L128.822 12.6798C129.533 12.7598 130.079 12.9021 130.462 13.1065C130.844 13.311 131.106 13.5866 131.248 13.9332C131.399 14.271 131.475 14.6844 131.475 15.1733C131.475 15.7689 131.346 16.2667 131.088 16.6667C130.839 17.0578 130.43 17.3512 129.862 17.5468C129.293 17.7423 128.533 17.8401 127.582 17.8401C126.96 17.8401 126.4 17.809 125.902 17.7468C125.405 17.6756 124.92 17.5823 124.449 17.4667V15.5867L124.503 15.5467Z" fill="black"/>
</svg>
