<svg width="348" height="68" viewBox="0 0 348 68" fill="none" xmlns="http://www.w3.org/2000/svg">
<path d="M52.3111 44.8585C57.4692 32.4117 58.0112 19.1146 57.6374 14.0219C51.5822 29.1598 39.2289 38.4575 33.8091 41.2141C24.1657 47.1572 12.6907 48.9233 8.15869 49.0635C14.326 59.9404 24.6516 66.117 29.0435 67.8458C42.3873 62.6876 50.1152 50.3717 52.3111 44.8585Z" fill="#75DAB4"/>
<path d="M28.904 0.845947C19.0363 12.5078 5.82324 14.115 0.450195 13.4609C0.450195 27.029 2.59941 35.7474 3.67402 38.4105C10.1217 39.8122 20.494 38.831 24.9793 37.8499C44.7428 31.6826 54.9282 19.3012 57.4979 13.4609C44.6026 14.6944 33.0623 5.56488 28.904 0.845947Z" fill="#B3CF2D"/>
<path d="M34.3704 22.9928C17.5505 25.684 4.88877 21.4977 0.590332 19.0681C0.590332 26.3568 2.55266 35.7479 3.67399 38.4111C33.6696 43.4571 52.7322 23.4133 57.6381 13.4615C49.2281 19.6288 38.6222 22.3854 34.3704 22.9928Z" fill="#A2BE1C"/>
<path d="M95.9853 38.921C95.9853 38.1438 96.0206 37.4372 96.0913 36.8012L96.0206 36.6952C95.3613 36.7895 94.6431 36.8601 93.866 36.9072C93.0889 36.9308 92.3707 36.9308 91.7114 36.9072V32.3143L100.93 32.279V44.2912C99.8471 44.7858 98.6109 45.1745 97.2215 45.4571C95.8558 45.7162 94.1132 45.8457 91.994 45.8457C89.1682 45.8457 86.9547 45.4689 85.3535 44.7152C83.7523 43.9379 82.622 42.7013 81.9626 41.0055C81.3033 39.2861 80.9736 37.0014 80.9736 34.1515C80.9736 31.8433 81.2327 29.9472 81.7507 28.4634C82.2923 26.9795 83.0694 25.8372 84.0819 25.0363C85.118 24.212 86.3778 23.6467 87.8613 23.3405C89.3448 23.0108 91.0403 22.8459 92.9476 22.8459C94.0779 22.8459 95.2082 22.893 96.3385 22.9872C97.4923 23.0814 98.6344 23.2581 99.7647 23.5172V28.1807L99.6587 28.2514C98.6697 28.0158 97.6807 27.851 96.6917 27.7568C95.7263 27.6625 94.749 27.6154 93.76 27.6154C92.3236 27.6154 91.0638 27.7685 89.9806 28.0747C88.921 28.3574 88.0968 28.958 87.5081 29.8766C86.9194 30.7951 86.6251 32.2201 86.6251 34.1515C86.6251 36.0593 86.7781 37.5196 87.0843 38.5324C87.4139 39.5216 88.0144 40.2047 88.8857 40.5816C89.7805 40.9349 91.052 41.1115 92.7004 41.1115C92.9123 41.1115 93.242 41.1115 93.6894 41.1115C94.1368 41.0879 94.5842 41.0644 95.0316 41.0408C95.479 41.0173 95.7969 40.982 95.9853 40.9349V38.921Z" fill="white"/>
<path d="M106.591 45.5278V23.1639H116.375C118.33 23.1639 119.966 23.3287 121.285 23.6585C122.604 23.9647 123.663 24.5182 124.464 25.319C125.265 26.1198 125.842 27.2386 126.195 28.6753C126.548 30.0885 126.725 31.9139 126.725 34.1515C126.725 36.4833 126.548 38.3911 126.195 39.8749C125.842 41.3588 125.265 42.5129 124.464 43.3373C123.663 44.1617 122.604 44.7387 121.285 45.0685C119.966 45.3747 118.33 45.5278 116.375 45.5278H106.591ZM115.563 27.9334H112.243V40.7582H115.563C116.929 40.7582 118 40.6051 118.777 40.2989C119.578 39.9927 120.143 39.3686 120.473 38.4264C120.826 37.4843 121.003 36.0593 121.003 34.1515C121.003 32.3379 120.826 30.9953 120.473 30.1239C120.143 29.2288 119.578 28.64 118.777 28.3574C118 28.0747 116.929 27.9334 115.563 27.9334Z" fill="white"/>
<path d="M143.811 39.769C144.847 40.1223 145.977 40.4049 147.202 40.6169C148.45 40.8053 149.686 40.8995 150.91 40.8995C152.582 40.8995 153.818 40.8289 154.619 40.6875C155.443 40.5227 155.985 40.2754 156.244 39.9456C156.503 39.6159 156.632 39.1919 156.632 38.6737C156.632 38.2262 156.538 37.8729 156.35 37.6138C156.161 37.3547 155.796 37.1545 155.255 37.0132C154.713 36.8483 153.913 36.7188 152.853 36.6246L150.522 36.4126C148.779 36.2477 147.402 35.8827 146.389 35.3174C145.4 34.7521 144.694 33.9984 144.27 33.0563C143.87 32.0906 143.669 30.9365 143.669 29.5939C143.669 27.9923 143.987 26.6969 144.623 25.7076C145.282 24.7184 146.342 24 147.802 23.5525C149.262 23.0814 151.205 22.8459 153.63 22.8459C156.785 22.8459 159.387 23.2581 161.436 24.0824L161.33 28.8873L161.224 29.0286C158.893 28.2043 156.456 27.7921 153.913 27.7921C152.688 27.7921 151.746 27.8627 151.087 28.0041C150.428 28.1218 149.968 28.322 149.709 28.6047C149.45 28.8873 149.321 29.2877 149.321 29.8059C149.321 30.3241 149.403 30.7127 149.568 30.9718C149.756 31.2309 150.121 31.4311 150.663 31.5724C151.205 31.6902 151.993 31.8079 153.03 31.9257L155.255 32.173C157.139 32.385 158.587 32.7618 159.599 33.3036C160.612 33.8453 161.307 34.5754 161.683 35.494C162.084 36.3891 162.284 37.4843 162.284 38.7797C162.284 40.3578 161.942 41.6768 161.259 42.7367C160.6 43.773 159.517 44.5503 158.01 45.0685C156.503 45.5866 154.49 45.8457 151.97 45.8457C150.322 45.8457 148.838 45.7633 147.519 45.5984C146.201 45.41 144.917 45.1627 143.669 44.8565V39.8749L143.811 39.769Z" fill="white"/>
<path d="M188.083 45.4218V45.5278H182.079C181.914 44.9625 181.714 44.3148 181.478 43.5846C181.266 42.8544 181.031 42.0772 180.772 41.2528H173.142C172.671 42.9016 172.236 44.3265 171.836 45.5278H165.831V45.4571L173.072 23.1639H180.843L188.083 45.4218ZM176.886 27.1915C176.651 28.3927 176.31 29.853 175.862 31.5724C175.415 33.2918 174.944 35.0465 174.449 36.8366H179.5C178.982 35.0465 178.5 33.2918 178.052 31.5724C177.605 29.853 177.263 28.3927 177.028 27.1915H176.886Z" fill="white"/>
<path d="M197.987 45.5278H192.336V23.1639H208.937V27.7568H197.987V32.8796H208.23V37.4725H197.987V45.5278Z" fill="white"/>
<path d="M213.349 45.5278V23.1639H229.95V27.7568H219.001V31.9964H228.502V36.5893H219.001V40.9349H229.95V45.5278H213.349Z" fill="white"/>
<path d="M249.078 39.769C250.114 40.1223 251.244 40.4049 252.469 40.6169C253.717 40.8053 254.953 40.8995 256.177 40.8995C257.849 40.8995 259.085 40.8289 259.886 40.6875C260.71 40.5227 261.252 40.2754 261.511 39.9456C261.77 39.6159 261.899 39.1919 261.899 38.6737C261.899 38.2262 261.805 37.8729 261.617 37.6138C261.428 37.3547 261.063 37.1545 260.522 37.0132C259.98 36.8483 259.18 36.7188 258.12 36.6246L255.789 36.4126C254.046 36.2477 252.669 35.8827 251.656 35.3174C250.667 34.7521 249.961 33.9984 249.537 33.0563C249.137 32.0906 248.936 30.9365 248.936 29.5939C248.936 27.9923 249.254 26.6969 249.89 25.7076C250.549 24.7184 251.609 24 253.069 23.5525C254.529 23.0814 256.472 22.8459 258.897 22.8459C262.052 22.8459 264.654 23.2581 266.703 24.0824L266.597 28.8873L266.491 29.0286C264.16 28.2043 261.723 27.7921 259.18 27.7921C257.955 27.7921 257.013 27.8627 256.354 28.0041C255.695 28.1218 255.235 28.322 254.976 28.6047C254.717 28.8873 254.588 29.2877 254.588 29.8059C254.588 30.3241 254.67 30.7127 254.835 30.9718C255.023 31.2309 255.388 31.4311 255.93 31.5724C256.472 31.6902 257.26 31.8079 258.297 31.9257L260.522 32.173C262.406 32.385 263.854 32.7618 264.866 33.3036C265.879 33.8453 266.574 34.5754 266.95 35.494C267.351 36.3891 267.551 37.4843 267.551 38.7797C267.551 40.3578 267.209 41.6768 266.526 42.7367C265.867 43.773 264.784 44.5503 263.277 45.0685C261.77 45.5866 259.757 45.8457 257.237 45.8457C255.589 45.8457 254.105 45.7633 252.786 45.5984C251.468 45.41 250.184 45.1627 248.936 44.8565V39.8749L249.078 39.769Z" fill="white"/>
<path d="M278.515 45.5278H272.864V23.1639H278.515V45.5278Z" fill="white"/>
<path d="M289.122 45.5278V27.9334H282.764V23.1639H301.131V27.9334H294.773V45.5278H289.122Z" fill="white"/>
<path d="M305.371 45.5278V23.1639H321.972V27.7568H311.022V31.9964H320.524V36.5893H311.022V40.9349H321.972V45.5278H305.371Z" fill="white"/>
<path d="M329.077 39.769C330.113 40.1223 331.243 40.4049 332.468 40.6169C333.716 40.8053 334.952 40.8995 336.177 40.8995C337.849 40.8995 339.085 40.8289 339.885 40.6875C340.71 40.5227 341.251 40.2754 341.51 39.9456C341.769 39.6159 341.899 39.1919 341.899 38.6737C341.899 38.2262 341.805 37.8729 341.616 37.6138C341.428 37.3547 341.063 37.1545 340.521 37.0132C339.98 36.8483 339.179 36.7188 338.119 36.6246L335.788 36.4126C334.046 36.2477 332.668 35.8827 331.656 35.3174C330.667 34.7521 329.96 33.9984 329.536 33.0563C329.136 32.0906 328.936 30.9365 328.936 29.5939C328.936 27.9923 329.254 26.6969 329.889 25.7076C330.549 24.7184 331.608 24 333.068 23.5525C334.528 23.0814 336.471 22.8459 338.896 22.8459C342.052 22.8459 344.654 23.2581 346.702 24.0824L346.596 28.8873L346.491 29.0286C344.159 28.2043 341.722 27.7921 339.179 27.7921C337.954 27.7921 337.013 27.8627 336.353 28.0041C335.694 28.1218 335.235 28.322 334.976 28.6047C334.717 28.8873 334.587 29.2877 334.587 29.8059C334.587 30.3241 334.67 30.7127 334.834 30.9718C335.023 31.2309 335.388 31.4311 335.929 31.5724C336.471 31.6902 337.26 31.8079 338.296 31.9257L340.521 32.173C342.405 32.385 343.853 32.7618 344.866 33.3036C345.878 33.8453 346.573 34.5754 346.95 35.494C347.35 36.3891 347.55 37.4843 347.55 38.7797C347.55 40.3578 347.209 41.6768 346.526 42.7367C345.867 43.773 344.783 44.5503 343.276 45.0685C341.769 45.5866 339.756 45.8457 337.236 45.8457C335.588 45.8457 334.104 45.7633 332.786 45.5984C331.467 45.41 330.184 45.1627 328.936 44.8565V39.8749L329.077 39.769Z" fill="white"/>
</svg>
