<svg width="391" height="45" viewBox="0 0 391 45" fill="none" xmlns="http://www.w3.org/2000/svg">
<path d="M71.3203 9.95998C71.3203 8.57331 71.6203 7.33998 72.2203 6.25998C72.8203 5.16665 73.6536 4.31998 74.7203 3.71998C75.8003 3.10665 77.0203 2.79998 78.3803 2.79998C80.047 2.79998 81.4736 3.23998 82.6603 4.11998C83.847 4.99998 84.6403 6.19998 85.0403 7.71998H81.2803C81.0003 7.13331 80.6003 6.68665 80.0803 6.37998C79.5736 6.07331 78.9936 5.91998 78.3403 5.91998C77.287 5.91998 76.4336 6.28665 75.7803 7.01998C75.127 7.75331 74.8003 8.73331 74.8003 9.95998C74.8003 11.1866 75.127 12.1666 75.7803 12.9C76.4336 13.6333 77.287 14 78.3403 14C78.9936 14 79.5736 13.8466 80.0803 13.54C80.6003 13.2333 81.0003 12.7866 81.2803 12.2H85.0403C84.6403 13.72 83.847 14.92 82.6603 15.8C81.4736 16.6666 80.047 17.1 78.3803 17.1C77.0203 17.1 75.8003 16.8 74.7203 16.2C73.6536 15.5866 72.8203 14.74 72.2203 13.66C71.6203 12.58 71.3203 11.3466 71.3203 9.95998Z" fill="url(#paint0_linear_187_728)"/>
<path d="M92.2147 17.16C91.1214 17.16 90.1347 16.9266 89.2547 16.46C88.388 15.9933 87.7014 15.3266 87.1947 14.46C86.7014 13.5933 86.4547 12.58 86.4547 11.42C86.4547 10.2733 86.708 9.26665 87.2147 8.39998C87.7214 7.51998 88.4147 6.84665 89.2947 6.37998C90.1747 5.91331 91.1614 5.67998 92.2547 5.67998C93.348 5.67998 94.3347 5.91331 95.2147 6.37998C96.0947 6.84665 96.788 7.51998 97.2947 8.39998C97.8014 9.26665 98.0547 10.2733 98.0547 11.42C98.0547 12.5666 97.7947 13.58 97.2747 14.46C96.768 15.3266 96.068 15.9933 95.1747 16.46C94.2947 16.9266 93.308 17.16 92.2147 17.16ZM92.2147 14.2C92.868 14.2 93.4214 13.96 93.8747 13.48C94.3414 13 94.5747 12.3133 94.5747 11.42C94.5747 10.5266 94.348 9.83998 93.8947 9.35998C93.4547 8.87998 92.908 8.63998 92.2547 8.63998C91.588 8.63998 91.0347 8.87998 90.5947 9.35998C90.1547 9.82665 89.9347 10.5133 89.9347 11.42C89.9347 12.3133 90.148 13 90.5747 13.48C91.0147 13.96 91.5614 14.2 92.2147 14.2Z" fill="url(#paint1_linear_187_728)"/>
<path d="M106.669 5.71998C107.976 5.71998 109.016 6.14665 109.789 6.99998C110.576 7.83998 110.969 8.99998 110.969 10.48V17H107.569V10.94C107.569 10.1933 107.376 9.61331 106.989 9.19998C106.602 8.78665 106.082 8.57998 105.429 8.57998C104.776 8.57998 104.256 8.78665 103.869 9.19998C103.482 9.61331 103.289 10.1933 103.289 10.94V17H99.8691V5.83998H103.289V7.31998C103.636 6.82665 104.102 6.43998 104.689 6.15998C105.276 5.86665 105.936 5.71998 106.669 5.71998Z" fill="url(#paint2_linear_187_728)"/>
<path d="M120.146 5.71998C121.452 5.71998 122.492 6.14665 123.266 6.99998C124.052 7.83998 124.446 8.99998 124.446 10.48V17H121.046V10.94C121.046 10.1933 120.852 9.61331 120.466 9.19998C120.079 8.78665 119.559 8.57998 118.906 8.57998C118.252 8.57998 117.732 8.78665 117.346 9.19998C116.959 9.61331 116.766 10.1933 116.766 10.94V17H113.346V5.83998H116.766V7.31998C117.112 6.82665 117.579 6.43998 118.166 6.15998C118.752 5.86665 119.412 5.71998 120.146 5.71998Z" fill="url(#paint3_linear_187_728)"/>
<path d="M137.342 11.24C137.342 11.56 137.322 11.8933 137.282 12.24H129.542C129.596 12.9333 129.816 13.4666 130.202 13.84C130.602 14.2 131.089 14.38 131.662 14.38C132.516 14.38 133.109 14.02 133.442 13.3H137.082C136.896 14.0333 136.556 14.6933 136.062 15.28C135.582 15.8666 134.976 16.3266 134.242 16.66C133.509 16.9933 132.689 17.16 131.782 17.16C130.689 17.16 129.716 16.9266 128.862 16.46C128.009 15.9933 127.342 15.3266 126.862 14.46C126.382 13.5933 126.142 12.58 126.142 11.42C126.142 10.26 126.376 9.24665 126.842 8.37998C127.322 7.51331 127.989 6.84665 128.842 6.37998C129.696 5.91331 130.676 5.67998 131.782 5.67998C132.862 5.67998 133.822 5.90665 134.662 6.35998C135.502 6.81331 136.156 7.45998 136.622 8.29998C137.102 9.13998 137.342 10.12 137.342 11.24ZM133.842 10.34C133.842 9.75331 133.642 9.28665 133.242 8.93998C132.842 8.59331 132.342 8.41998 131.742 8.41998C131.169 8.41998 130.682 8.58665 130.282 8.91998C129.896 9.25331 129.656 9.72665 129.562 10.34H133.842Z" fill="url(#paint4_linear_187_728)"/>
<path d="M138.466 11.42C138.466 10.26 138.7 9.24665 139.166 8.37998C139.646 7.51331 140.306 6.84665 141.146 6.37998C142 5.91331 142.973 5.67998 144.066 5.67998C145.466 5.67998 146.633 6.04665 147.566 6.77998C148.513 7.51331 149.133 8.54665 149.426 9.87998H145.786C145.48 9.02665 144.886 8.59998 144.006 8.59998C143.38 8.59998 142.88 8.84665 142.506 9.33998C142.133 9.81998 141.946 10.5133 141.946 11.42C141.946 12.3266 142.133 13.0266 142.506 13.52C142.88 14 143.38 14.24 144.006 14.24C144.886 14.24 145.48 13.8133 145.786 12.96H149.426C149.133 14.2666 148.513 15.2933 147.566 16.04C146.62 16.7866 145.453 17.16 144.066 17.16C142.973 17.16 142 16.9266 141.146 16.46C140.306 15.9933 139.646 15.3266 139.166 14.46C138.7 13.5933 138.466 12.58 138.466 11.42Z" fill="url(#paint5_linear_187_728)"/>
<path d="M157.476 14.1V17H155.736C154.496 17 153.529 16.7 152.836 16.1C152.142 15.4866 151.796 14.4933 151.796 13.12V8.67998H150.436V5.83998H151.796V3.11998H155.216V5.83998H157.456V8.67998H155.216V13.16C155.216 13.4933 155.296 13.7333 155.456 13.88C155.616 14.0266 155.882 14.1 156.256 14.1H157.476Z" fill="url(#paint6_linear_187_728)"/>
<path d="M169.901 11.24C169.901 11.56 169.881 11.8933 169.841 12.24H162.101C162.154 12.9333 162.374 13.4666 162.761 13.84C163.161 14.2 163.647 14.38 164.221 14.38C165.074 14.38 165.667 14.02 166.001 13.3H169.641C169.454 14.0333 169.114 14.6933 168.621 15.28C168.141 15.8666 167.534 16.3266 166.801 16.66C166.067 16.9933 165.247 17.16 164.341 17.16C163.247 17.16 162.274 16.9266 161.421 16.46C160.567 15.9933 159.901 15.3266 159.421 14.46C158.941 13.5933 158.701 12.58 158.701 11.42C158.701 10.26 158.934 9.24665 159.401 8.37998C159.881 7.51331 160.547 6.84665 161.401 6.37998C162.254 5.91331 163.234 5.67998 164.341 5.67998C165.421 5.67998 166.381 5.90665 167.221 6.35998C168.061 6.81331 168.714 7.45998 169.181 8.29998C169.661 9.13998 169.901 10.12 169.901 11.24ZM166.401 10.34C166.401 9.75331 166.201 9.28665 165.801 8.93998C165.401 8.59331 164.901 8.41998 164.301 8.41998C163.727 8.41998 163.241 8.58665 162.841 8.91998C162.454 9.25331 162.214 9.72665 162.121 10.34H166.401Z" fill="url(#paint7_linear_187_728)"/>
<path d="M171.025 11.4C171.025 10.2533 171.238 9.24665 171.665 8.37998C172.105 7.51331 172.698 6.84665 173.445 6.37998C174.192 5.91331 175.025 5.67998 175.945 5.67998C176.678 5.67998 177.345 5.83331 177.945 6.13998C178.558 6.44665 179.038 6.85998 179.385 7.37998V2.19998H182.805V17H179.385V15.4C179.065 15.9333 178.605 16.36 178.005 16.68C177.418 17 176.732 17.16 175.945 17.16C175.025 17.16 174.192 16.9266 173.445 16.46C172.698 15.98 172.105 15.3066 171.665 14.44C171.238 13.56 171.025 12.5466 171.025 11.4ZM179.385 11.42C179.385 10.5666 179.145 9.89331 178.665 9.39998C178.198 8.90665 177.625 8.65998 176.945 8.65998C176.265 8.65998 175.685 8.90665 175.205 9.39998C174.738 9.87998 174.505 10.5466 174.505 11.4C174.505 12.2533 174.738 12.9333 175.205 13.44C175.685 13.9333 176.265 14.18 176.945 14.18C177.625 14.18 178.198 13.9333 178.665 13.44C179.145 12.9466 179.385 12.2733 179.385 11.42Z" fill="url(#paint8_linear_187_728)"/>
<path d="M192.938 2.95998V17H189.518V2.95998H192.938Z" fill="url(#paint9_linear_187_728)"/>
<path d="M202.216 5.71998C203.523 5.71998 204.563 6.14665 205.336 6.99998C206.123 7.83998 206.516 8.99998 206.516 10.48V17H203.116V10.94C203.116 10.1933 202.923 9.61331 202.536 9.19998C202.149 8.78665 201.629 8.57998 200.976 8.57998C200.323 8.57998 199.803 8.78665 199.416 9.19998C199.029 9.61331 198.836 10.1933 198.836 10.94V17H195.416V5.83998H198.836V7.31998C199.183 6.82665 199.649 6.43998 200.236 6.15998C200.823 5.86665 201.483 5.71998 202.216 5.71998Z" fill="url(#paint10_linear_187_728)"/>
<path d="M215.113 14.1V17H213.372C212.132 17 211.166 16.7 210.473 16.1C209.779 15.4866 209.432 14.4933 209.432 13.12V8.67998H208.072V5.83998H209.432V3.11998H212.852V5.83998H215.092V8.67998H212.852V13.16C212.852 13.4933 212.932 13.7333 213.092 13.88C213.252 14.0266 213.519 14.1 213.893 14.1H215.113Z" fill="url(#paint11_linear_187_728)"/>
<path d="M227.538 11.24C227.538 11.56 227.517 11.8933 227.477 12.24H219.738C219.791 12.9333 220.011 13.4666 220.398 13.84C220.798 14.2 221.284 14.38 221.857 14.38C222.711 14.38 223.304 14.02 223.637 13.3H227.277C227.091 14.0333 226.751 14.6933 226.258 15.28C225.778 15.8666 225.171 16.3266 224.438 16.66C223.704 16.9933 222.884 17.16 221.977 17.16C220.884 17.16 219.911 16.9266 219.057 16.46C218.204 15.9933 217.537 15.3266 217.057 14.46C216.577 13.5933 216.337 12.58 216.337 11.42C216.337 10.26 216.571 9.24665 217.038 8.37998C217.518 7.51331 218.184 6.84665 219.038 6.37998C219.891 5.91331 220.871 5.67998 221.977 5.67998C223.057 5.67998 224.017 5.90665 224.857 6.35998C225.697 6.81331 226.351 7.45998 226.818 8.29998C227.298 9.13998 227.538 10.12 227.538 11.24ZM224.038 10.34C224.038 9.75331 223.838 9.28665 223.438 8.93998C223.037 8.59331 222.537 8.41998 221.938 8.41998C221.364 8.41998 220.877 8.58665 220.477 8.91998C220.091 9.25331 219.851 9.72665 219.758 10.34H224.038Z" fill="url(#paint12_linear_187_728)"/>
<path d="M232.762 2.19998V17H229.342V2.19998H232.762Z" fill="url(#paint13_linear_187_728)"/>
<path d="M238.66 2.19998V17H235.24V2.19998H238.66Z" fill="url(#paint14_linear_187_728)"/>
<path d="M242.859 4.67998C242.259 4.67998 241.765 4.50665 241.379 4.15998C241.005 3.79998 240.819 3.35998 240.819 2.83998C240.819 2.30665 241.005 1.86665 241.379 1.51998C241.765 1.15998 242.259 0.97998 242.859 0.97998C243.445 0.97998 243.925 1.15998 244.299 1.51998C244.685 1.86665 244.879 2.30665 244.879 2.83998C244.879 3.35998 244.685 3.79998 244.299 4.15998C243.925 4.50665 243.445 4.67998 242.859 4.67998ZM244.559 5.83998V17H241.139V5.83998H244.559Z" fill="url(#paint15_linear_187_728)"/>
<path d="M251.277 5.67998C252.064 5.67998 252.75 5.83998 253.337 6.15998C253.937 6.47998 254.397 6.89998 254.717 7.41998V5.83998H258.137V16.98C258.137 18.0066 257.93 18.9333 257.517 19.76C257.117 20.6 256.497 21.2666 255.657 21.76C254.83 22.2533 253.797 22.5 252.557 22.5C250.904 22.5 249.564 22.1066 248.537 21.32C247.51 20.5466 246.924 19.4933 246.777 18.16H250.157C250.264 18.5866 250.517 18.92 250.917 19.16C251.317 19.4133 251.81 19.54 252.397 19.54C253.104 19.54 253.664 19.3333 254.077 18.92C254.504 18.52 254.717 17.8733 254.717 16.98V15.4C254.384 15.92 253.924 16.3466 253.337 16.68C252.75 17 252.064 17.16 251.277 17.16C250.357 17.16 249.524 16.9266 248.777 16.46C248.03 15.98 247.437 15.3066 246.997 14.44C246.57 13.56 246.357 12.5466 246.357 11.4C246.357 10.2533 246.57 9.24665 246.997 8.37998C247.437 7.51331 248.03 6.84665 248.777 6.37998C249.524 5.91331 250.357 5.67998 251.277 5.67998ZM254.717 11.42C254.717 10.5666 254.477 9.89331 253.997 9.39998C253.53 8.90665 252.957 8.65998 252.277 8.65998C251.597 8.65998 251.017 8.90665 250.537 9.39998C250.07 9.87998 249.837 10.5466 249.837 11.4C249.837 12.2533 250.07 12.9333 250.537 13.44C251.017 13.9333 251.597 14.18 252.277 14.18C252.957 14.18 253.53 13.9333 253.997 13.44C254.477 12.9466 254.717 12.2733 254.717 11.42Z" fill="url(#paint16_linear_187_728)"/>
<path d="M271.131 11.24C271.131 11.56 271.111 11.8933 271.071 12.24H263.331C263.385 12.9333 263.605 13.4666 263.991 13.84C264.391 14.2 264.878 14.38 265.451 14.38C266.305 14.38 266.898 14.02 267.231 13.3H270.871C270.685 14.0333 270.345 14.6933 269.851 15.28C269.371 15.8666 268.765 16.3266 268.031 16.66C267.298 16.9933 266.478 17.16 265.571 17.16C264.478 17.16 263.505 16.9266 262.651 16.46C261.798 15.9933 261.131 15.3266 260.651 14.46C260.171 13.5933 259.931 12.58 259.931 11.42C259.931 10.26 260.165 9.24665 260.631 8.37998C261.111 7.51331 261.778 6.84665 262.631 6.37998C263.485 5.91331 264.465 5.67998 265.571 5.67998C266.651 5.67998 267.611 5.90665 268.451 6.35998C269.291 6.81331 269.945 7.45998 270.411 8.29998C270.891 9.13998 271.131 10.12 271.131 11.24ZM267.631 10.34C267.631 9.75331 267.431 9.28665 267.031 8.93998C266.631 8.59331 266.131 8.41998 265.531 8.41998C264.958 8.41998 264.471 8.58665 264.071 8.91998C263.685 9.25331 263.445 9.72665 263.351 10.34H267.631Z" fill="url(#paint17_linear_187_728)"/>
<path d="M279.735 5.71998C281.042 5.71998 282.082 6.14665 282.855 6.99998C283.642 7.83998 284.035 8.99998 284.035 10.48V17H280.635V10.94C280.635 10.1933 280.442 9.61331 280.055 9.19998C279.669 8.78665 279.149 8.57998 278.495 8.57998C277.842 8.57998 277.322 8.78665 276.935 9.19998C276.549 9.61331 276.355 10.1933 276.355 10.94V17H272.935V5.83998H276.355V7.31998C276.702 6.82665 277.169 6.43998 277.755 6.15998C278.342 5.86665 279.002 5.71998 279.735 5.71998Z" fill="url(#paint18_linear_187_728)"/>
<path d="M292.632 14.1V17H290.892C289.652 17 288.685 16.7 287.992 16.1C287.299 15.4866 286.952 14.4933 286.952 13.12V8.67998H285.592V5.83998H286.952V3.11998H290.372V5.83998H292.612V8.67998H290.372V13.16C290.372 13.4933 290.452 13.7333 290.612 13.88C290.772 14.0266 291.039 14.1 291.412 14.1H292.632Z" fill="url(#paint19_linear_187_728)"/>
<path d="M308.095 7.39998C307.842 6.93331 307.475 6.57998 306.995 6.33998C306.529 6.08665 305.975 5.95998 305.335 5.95998C304.229 5.95998 303.342 6.32665 302.675 7.05998C302.009 7.77998 301.675 8.74665 301.675 9.95998C301.675 11.2533 302.022 12.2666 302.715 13C303.422 13.72 304.389 14.08 305.615 14.08C306.455 14.08 307.162 13.8666 307.735 13.44C308.322 13.0133 308.749 12.4 309.015 11.6H304.675V9.07998H312.115V12.26C311.862 13.1133 311.429 13.9066 310.815 14.64C310.215 15.3733 309.449 15.9666 308.515 16.42C307.582 16.8733 306.529 17.1 305.355 17.1C303.969 17.1 302.729 16.8 301.635 16.2C300.555 15.5866 299.709 14.74 299.095 13.66C298.495 12.58 298.195 11.3466 298.195 9.95998C298.195 8.57331 298.495 7.33998 299.095 6.25998C299.709 5.16665 300.555 4.31998 301.635 3.71998C302.715 3.10665 303.949 2.79998 305.335 2.79998C307.015 2.79998 308.429 3.20665 309.575 4.01998C310.735 4.83331 311.502 5.95998 311.875 7.39998H308.095Z" fill="url(#paint20_linear_187_728)"/>
<path d="M313.33 11.4C313.33 10.2533 313.543 9.24665 313.97 8.37998C314.41 7.51331 315.003 6.84665 315.75 6.37998C316.496 5.91331 317.33 5.67998 318.25 5.67998C319.036 5.67998 319.723 5.83998 320.31 6.15998C320.91 6.47998 321.37 6.89998 321.69 7.41998V5.83998H325.11V17H321.69V15.42C321.356 15.94 320.89 16.36 320.29 16.68C319.703 17 319.016 17.16 318.23 17.16C317.323 17.16 316.496 16.9266 315.75 16.46C315.003 15.98 314.41 15.3066 313.97 14.44C313.543 13.56 313.33 12.5466 313.33 11.4ZM321.69 11.42C321.69 10.5666 321.45 9.89331 320.97 9.39998C320.503 8.90665 319.93 8.65998 319.25 8.65998C318.57 8.65998 317.99 8.90665 317.51 9.39998C317.043 9.87998 316.81 10.5466 316.81 11.4C316.81 12.2533 317.043 12.9333 317.51 13.44C317.99 13.9333 318.57 14.18 319.25 14.18C319.93 14.18 320.503 13.9333 320.97 13.44C321.45 12.9466 321.69 12.2733 321.69 11.42Z" fill="url(#paint21_linear_187_728)"/>
<path d="M333.804 14.1V17H332.064C330.824 17 329.857 16.7 329.164 16.1C328.471 15.4866 328.124 14.4933 328.124 13.12V8.67998H326.764V5.83998H328.124V3.11998H331.544V5.83998H333.784V8.67998H331.544V13.16C331.544 13.4933 331.624 13.7333 331.784 13.88C331.944 14.0266 332.211 14.1 332.584 14.1H333.804Z" fill="url(#paint22_linear_187_728)"/>
<path d="M346.229 11.24C346.229 11.56 346.209 11.8933 346.169 12.24H338.429C338.482 12.9333 338.702 13.4666 339.089 13.84C339.489 14.2 339.976 14.38 340.549 14.38C341.402 14.38 341.996 14.02 342.329 13.3H345.969C345.782 14.0333 345.442 14.6933 344.949 15.28C344.469 15.8666 343.862 16.3266 343.129 16.66C342.396 16.9933 341.576 17.16 340.669 17.16C339.576 17.16 338.602 16.9266 337.749 16.46C336.896 15.9933 336.229 15.3266 335.749 14.46C335.269 13.5933 335.029 12.58 335.029 11.42C335.029 10.26 335.262 9.24665 335.729 8.37998C336.209 7.51331 336.876 6.84665 337.729 6.37998C338.582 5.91331 339.562 5.67998 340.669 5.67998C341.749 5.67998 342.709 5.90665 343.549 6.35998C344.389 6.81331 345.042 7.45998 345.509 8.29998C345.989 9.13998 346.229 10.12 346.229 11.24ZM342.729 10.34C342.729 9.75331 342.529 9.28665 342.129 8.93998C341.729 8.59331 341.229 8.41998 340.629 8.41998C340.056 8.41998 339.569 8.58665 339.169 8.91998C338.782 9.25331 338.542 9.72665 338.449 10.34H342.729Z" fill="url(#paint23_linear_187_728)"/>
<path d="M364.053 5.83998L361.033 17H357.253L355.493 9.75998L353.673 17H349.913L346.873 5.83998H350.293L351.873 13.82L353.753 5.83998H357.373L359.273 13.78L360.833 5.83998H364.053Z" fill="url(#paint24_linear_187_728)"/>
<path d="M364.677 11.4C364.677 10.2533 364.891 9.24665 365.317 8.37998C365.757 7.51331 366.351 6.84665 367.097 6.37998C367.844 5.91331 368.677 5.67998 369.597 5.67998C370.384 5.67998 371.071 5.83998 371.657 6.15998C372.257 6.47998 372.717 6.89998 373.037 7.41998V5.83998H376.457V17H373.037V15.42C372.704 15.94 372.237 16.36 371.637 16.68C371.051 17 370.364 17.16 369.577 17.16C368.671 17.16 367.844 16.9266 367.097 16.46C366.351 15.98 365.757 15.3066 365.317 14.44C364.891 13.56 364.677 12.5466 364.677 11.4ZM373.037 11.42C373.037 10.5666 372.797 9.89331 372.317 9.39998C371.851 8.90665 371.277 8.65998 370.597 8.65998C369.917 8.65998 369.337 8.90665 368.857 9.39998C368.391 9.87998 368.157 10.5466 368.157 11.4C368.157 12.2533 368.391 12.9333 368.857 13.44C369.337 13.9333 369.917 14.18 370.597 14.18C371.277 14.18 371.851 13.9333 372.317 13.44C372.797 12.9466 373.037 12.2733 373.037 11.42Z" fill="url(#paint25_linear_187_728)"/>
<path d="M390.332 5.83998L383.332 22.3H379.652L382.212 16.62L377.672 5.83998H381.492L384.072 12.82L386.632 5.83998H390.332Z" fill="url(#paint26_linear_187_728)"/>
<path d="M75.791 34.1414H74.411V40.3814H71.846V34.1414H70.916V32.0114H71.846V31.7714C71.846 30.7414 72.141 29.9614 72.731 29.4314C73.321 28.8914 74.186 28.6214 75.326 28.6214C75.516 28.6214 75.656 28.6264 75.746 28.6364V30.8114C75.256 30.7814 74.911 30.8514 74.711 31.0214C74.511 31.1914 74.411 31.4964 74.411 31.9364V32.0114H75.791V34.1414Z" fill="#AFBBF0"/>
<path d="M80.8063 40.5014C79.9863 40.5014 79.2463 40.3264 78.5863 39.9764C77.9363 39.6264 77.4213 39.1264 77.0413 38.4764C76.6713 37.8264 76.4863 37.0664 76.4863 36.1964C76.4863 35.3364 76.6763 34.5814 77.0563 33.9314C77.4363 33.2714 77.9563 32.7664 78.6163 32.4164C79.2763 32.0664 80.0163 31.8914 80.8363 31.8914C81.6563 31.8914 82.3963 32.0664 83.0563 32.4164C83.7163 32.7664 84.2363 33.2714 84.6163 33.9314C84.9963 34.5814 85.1863 35.3364 85.1863 36.1964C85.1863 37.0564 84.9913 37.8164 84.6013 38.4764C84.2213 39.1264 83.6963 39.6264 83.0263 39.9764C82.3663 40.3264 81.6263 40.5014 80.8063 40.5014ZM80.8063 38.2814C81.2963 38.2814 81.7113 38.1014 82.0513 37.7414C82.4013 37.3814 82.5763 36.8664 82.5763 36.1964C82.5763 35.5264 82.4063 35.0114 82.0663 34.6514C81.7363 34.2914 81.3263 34.1114 80.8363 34.1114C80.3363 34.1114 79.9213 34.2914 79.5913 34.6514C79.2613 35.0014 79.0963 35.5164 79.0963 36.1964C79.0963 36.8664 79.2563 37.3814 79.5763 37.7414C79.9063 38.1014 80.3163 38.2814 80.8063 38.2814Z" fill="#AFBBF0"/>
<path d="M89.1121 33.4064C89.4121 32.9464 89.7871 32.5864 90.2371 32.3264C90.6871 32.0564 91.1871 31.9214 91.7371 31.9214V34.6364H91.0321C90.3921 34.6364 89.9121 34.7764 89.5921 35.0564C89.2721 35.3264 89.1121 35.8064 89.1121 36.4964V40.3814H86.5471V32.0114H89.1121V33.4064Z" fill="#AFBBF0"/>
<path d="M98.7068 29.8514V40.3814H96.1418V29.8514H98.7068Z" fill="#AFBBF0"/>
<path d="M105.666 31.9214C106.646 31.9214 107.426 32.2414 108.006 32.8814C108.596 33.5114 108.891 34.3814 108.891 35.4914V40.3814H106.341V35.8364C106.341 35.2764 106.196 34.8414 105.906 34.5314C105.616 34.2214 105.226 34.0664 104.736 34.0664C104.246 34.0664 103.856 34.2214 103.566 34.5314C103.276 34.8414 103.131 35.2764 103.131 35.8364V40.3814H100.566V32.0114H103.131V33.1214C103.391 32.7514 103.741 32.4614 104.181 32.2514C104.621 32.0314 105.116 31.9214 105.666 31.9214Z" fill="#AFBBF0"/>
<path d="M110.163 36.1814C110.163 35.3214 110.323 34.5664 110.643 33.9164C110.973 33.2664 111.418 32.7664 111.978 32.4164C112.538 32.0664 113.163 31.8914 113.853 31.8914C114.403 31.8914 114.903 32.0064 115.353 32.2364C115.813 32.4664 116.173 32.7764 116.433 33.1664V29.2814H118.998V40.3814H116.433V39.1814C116.193 39.5814 115.848 39.9014 115.398 40.1414C114.958 40.3814 114.443 40.5014 113.853 40.5014C113.163 40.5014 112.538 40.3264 111.978 39.9764C111.418 39.6164 110.973 39.1114 110.643 38.4614C110.323 37.8014 110.163 37.0414 110.163 36.1814ZM116.433 36.1964C116.433 35.5564 116.253 35.0514 115.893 34.6814C115.543 34.3114 115.113 34.1264 114.603 34.1264C114.093 34.1264 113.658 34.3114 113.298 34.6814C112.948 35.0414 112.773 35.5414 112.773 36.1814C112.773 36.8214 112.948 37.3314 113.298 37.7114C113.658 38.0814 114.093 38.2664 114.603 38.2664C115.113 38.2664 115.543 38.0814 115.893 37.7114C116.253 37.3414 116.433 36.8364 116.433 36.1964Z" fill="#AFBBF0"/>
<path d="M129.119 32.0114V40.3814H126.554V39.2414C126.294 39.6114 125.939 39.9114 125.489 40.1414C125.049 40.3614 124.559 40.4714 124.019 40.4714C123.379 40.4714 122.814 40.3314 122.324 40.0514C121.834 39.7614 121.454 39.3464 121.184 38.8064C120.914 38.2664 120.779 37.6314 120.779 36.9014V32.0114H123.329V36.5564C123.329 37.1164 123.474 37.5514 123.764 37.8614C124.054 38.1714 124.444 38.3264 124.934 38.3264C125.434 38.3264 125.829 38.1714 126.119 37.8614C126.409 37.5514 126.554 37.1164 126.554 36.5564V32.0114H129.119Z" fill="#AFBBF0"/>
<path d="M134.366 40.5014C133.636 40.5014 132.986 40.3764 132.416 40.1264C131.846 39.8764 131.396 39.5364 131.066 39.1064C130.736 38.6664 130.551 38.1764 130.511 37.6364H133.046C133.076 37.9264 133.211 38.1614 133.451 38.3414C133.691 38.5214 133.986 38.6114 134.336 38.6114C134.656 38.6114 134.901 38.5514 135.071 38.4314C135.251 38.3014 135.341 38.1364 135.341 37.9364C135.341 37.6964 135.216 37.5214 134.966 37.4114C134.716 37.2914 134.311 37.1614 133.751 37.0214C133.151 36.8814 132.651 36.7364 132.251 36.5864C131.851 36.4264 131.506 36.1814 131.216 35.8514C130.926 35.5114 130.781 35.0564 130.781 34.4864C130.781 34.0064 130.911 33.5714 131.171 33.1814C131.441 32.7814 131.831 32.4664 132.341 32.2364C132.861 32.0064 133.476 31.8914 134.186 31.8914C135.236 31.8914 136.061 32.1514 136.661 32.6714C137.271 33.1914 137.621 33.8814 137.711 34.7414H135.341C135.301 34.4514 135.171 34.2214 134.951 34.0514C134.741 33.8814 134.461 33.7964 134.111 33.7964C133.811 33.7964 133.581 33.8564 133.421 33.9764C133.261 34.0864 133.181 34.2414 133.181 34.4414C133.181 34.6814 133.306 34.8614 133.556 34.9814C133.816 35.1014 134.216 35.2214 134.756 35.3414C135.376 35.5014 135.881 35.6614 136.271 35.8214C136.661 35.9714 137.001 36.2214 137.291 36.5714C137.591 36.9114 137.746 37.3714 137.756 37.9514C137.756 38.4414 137.616 38.8814 137.336 39.2714C137.066 39.6514 136.671 39.9514 136.151 40.1714C135.641 40.3914 135.046 40.5014 134.366 40.5014Z" fill="#AFBBF0"/>
<path d="M143.99 38.2064V40.3814H142.685C141.755 40.3814 141.03 40.1564 140.51 39.7064C139.99 39.2464 139.73 38.5014 139.73 37.4714V34.1414H138.71V32.0114H139.73V29.9714H142.295V32.0114H143.975V34.1414H142.295V37.5014C142.295 37.7514 142.355 37.9314 142.475 38.0414C142.595 38.1514 142.795 38.2064 143.075 38.2064H143.99Z" fill="#AFBBF0"/>
<path d="M147.984 33.4064C148.284 32.9464 148.659 32.5864 149.109 32.3264C149.559 32.0564 150.059 31.9214 150.609 31.9214V34.6364H149.904C149.264 34.6364 148.784 34.7764 148.464 35.0564C148.144 35.3264 147.984 35.8064 147.984 36.4964V40.3814H145.419V32.0114H147.984V33.4064Z" fill="#AFBBF0"/>
<path d="M153.125 31.1414C152.675 31.1414 152.305 31.0114 152.015 30.7514C151.735 30.4814 151.595 30.1514 151.595 29.7614C151.595 29.3614 151.735 29.0314 152.015 28.7714C152.305 28.5014 152.675 28.3664 153.125 28.3664C153.565 28.3664 153.925 28.5014 154.205 28.7714C154.495 29.0314 154.64 29.3614 154.64 29.7614C154.64 30.1514 154.495 30.4814 154.205 30.7514C153.925 31.0114 153.565 31.1414 153.125 31.1414ZM154.4 32.0114V40.3814H151.835V32.0114H154.4Z" fill="#AFBBF0"/>
<path d="M155.749 36.1814C155.749 35.3214 155.909 34.5664 156.229 33.9164C156.559 33.2664 157.004 32.7664 157.564 32.4164C158.124 32.0664 158.749 31.8914 159.439 31.8914C160.029 31.8914 160.544 32.0114 160.984 32.2514C161.434 32.4914 161.779 32.8064 162.019 33.1964V32.0114H164.584V40.3814H162.019V39.1964C161.769 39.5864 161.419 39.9014 160.969 40.1414C160.529 40.3814 160.014 40.5014 159.424 40.5014C158.744 40.5014 158.124 40.3264 157.564 39.9764C157.004 39.6164 156.559 39.1114 156.229 38.4614C155.909 37.8014 155.749 37.0414 155.749 36.1814ZM162.019 36.1964C162.019 35.5564 161.839 35.0514 161.479 34.6814C161.129 34.3114 160.699 34.1264 160.189 34.1264C159.679 34.1264 159.244 34.3114 158.884 34.6814C158.534 35.0414 158.359 35.5414 158.359 36.1814C158.359 36.8214 158.534 37.3314 158.884 37.7114C159.244 38.0814 159.679 38.2664 160.189 38.2664C160.699 38.2664 161.129 38.0814 161.479 37.7114C161.839 37.3414 162.019 36.8364 162.019 36.1964Z" fill="#AFBBF0"/>
<path d="M169.005 29.2814V40.3814H166.44V29.2814H169.005Z" fill="#AFBBF0"/>
<path d="M180.597 38.5214H176.667L176.037 40.3814H173.352L177.162 29.8514H180.132L183.942 40.3814H181.227L180.597 38.5214ZM179.937 36.5414L178.632 32.6864L177.342 36.5414H179.937Z" fill="#AFBBF0"/>
<path d="M187.667 33.1964C187.917 32.8064 188.262 32.4914 188.702 32.2514C189.142 32.0114 189.657 31.8914 190.247 31.8914C190.937 31.8914 191.562 32.0664 192.122 32.4164C192.682 32.7664 193.122 33.2664 193.442 33.9164C193.772 34.5664 193.937 35.3214 193.937 36.1814C193.937 37.0414 193.772 37.8014 193.442 38.4614C193.122 39.1114 192.682 39.6164 192.122 39.9764C191.562 40.3264 190.937 40.5014 190.247 40.5014C189.667 40.5014 189.152 40.3814 188.702 40.1414C188.262 39.9014 187.917 39.5914 187.667 39.2114V44.3714H185.102V32.0114H187.667V33.1964ZM191.327 36.1814C191.327 35.5414 191.147 35.0414 190.787 34.6814C190.437 34.3114 190.002 34.1264 189.482 34.1264C188.972 34.1264 188.537 34.3114 188.177 34.6814C187.827 35.0514 187.652 35.5564 187.652 36.1964C187.652 36.8364 187.827 37.3414 188.177 37.7114C188.537 38.0814 188.972 38.2664 189.482 38.2664C189.992 38.2664 190.427 38.0814 190.787 37.7114C191.147 37.3314 191.327 36.8214 191.327 36.1814Z" fill="#AFBBF0"/>
<path d="M197.847 33.1964C198.097 32.8064 198.442 32.4914 198.882 32.2514C199.322 32.0114 199.837 31.8914 200.427 31.8914C201.117 31.8914 201.742 32.0664 202.302 32.4164C202.862 32.7664 203.302 33.2664 203.622 33.9164C203.952 34.5664 204.117 35.3214 204.117 36.1814C204.117 37.0414 203.952 37.8014 203.622 38.4614C203.302 39.1114 202.862 39.6164 202.302 39.9764C201.742 40.3264 201.117 40.5014 200.427 40.5014C199.847 40.5014 199.332 40.3814 198.882 40.1414C198.442 39.9014 198.097 39.5914 197.847 39.2114V44.3714H195.282V32.0114H197.847V33.1964ZM201.507 36.1814C201.507 35.5414 201.327 35.0414 200.967 34.6814C200.617 34.3114 200.182 34.1264 199.662 34.1264C199.152 34.1264 198.717 34.3114 198.357 34.6814C198.007 35.0514 197.832 35.5564 197.832 36.1964C197.832 36.8364 198.007 37.3414 198.357 37.7114C198.717 38.0814 199.152 38.2664 199.662 38.2664C200.172 38.2664 200.607 38.0814 200.967 37.7114C201.327 37.3314 201.507 36.8214 201.507 36.1814Z" fill="#AFBBF0"/>
<path d="M208.028 29.2814V40.3814H205.463V29.2814H208.028Z" fill="#AFBBF0"/>
<path d="M211.177 31.1414C210.727 31.1414 210.357 31.0114 210.067 30.7514C209.787 30.4814 209.647 30.1514 209.647 29.7614C209.647 29.3614 209.787 29.0314 210.067 28.7714C210.357 28.5014 210.727 28.3664 211.177 28.3664C211.617 28.3664 211.977 28.5014 212.257 28.7714C212.547 29.0314 212.692 29.3614 212.692 29.7614C212.692 30.1514 212.547 30.4814 212.257 30.7514C211.977 31.0114 211.617 31.1414 211.177 31.1414ZM212.452 32.0114V40.3814H209.887V32.0114H212.452Z" fill="#AFBBF0"/>
<path d="M213.801 36.1964C213.801 35.3264 213.976 34.5664 214.326 33.9164C214.686 33.2664 215.181 32.7664 215.811 32.4164C216.451 32.0664 217.181 31.8914 218.001 31.8914C219.051 31.8914 219.926 32.1664 220.626 32.7164C221.336 33.2664 221.801 34.0414 222.021 35.0414H219.291C219.061 34.4014 218.616 34.0814 217.956 34.0814C217.486 34.0814 217.111 34.2664 216.831 34.6364C216.551 34.9964 216.411 35.5164 216.411 36.1964C216.411 36.8764 216.551 37.4014 216.831 37.7714C217.111 38.1314 217.486 38.3114 217.956 38.3114C218.616 38.3114 219.061 37.9914 219.291 37.3514H222.021C221.801 38.3314 221.336 39.1014 220.626 39.6614C219.916 40.2214 219.041 40.5014 218.001 40.5014C217.181 40.5014 216.451 40.3264 215.811 39.9764C215.181 39.6264 214.686 39.1264 214.326 38.4764C213.976 37.8264 213.801 37.0664 213.801 36.1964Z" fill="#AFBBF0"/>
<path d="M222.883 36.1814C222.883 35.3214 223.043 34.5664 223.363 33.9164C223.693 33.2664 224.138 32.7664 224.698 32.4164C225.258 32.0664 225.883 31.8914 226.573 31.8914C227.163 31.8914 227.678 32.0114 228.118 32.2514C228.568 32.4914 228.913 32.8064 229.153 33.1964V32.0114H231.718V40.3814H229.153V39.1964C228.903 39.5864 228.553 39.9014 228.103 40.1414C227.663 40.3814 227.148 40.5014 226.558 40.5014C225.878 40.5014 225.258 40.3264 224.698 39.9764C224.138 39.6164 223.693 39.1114 223.363 38.4614C223.043 37.8014 222.883 37.0414 222.883 36.1814ZM229.153 36.1964C229.153 35.5564 228.973 35.0514 228.613 34.6814C228.263 34.3114 227.833 34.1264 227.323 34.1264C226.813 34.1264 226.378 34.3114 226.018 34.6814C225.668 35.0414 225.493 35.5414 225.493 36.1814C225.493 36.8214 225.668 37.3314 226.018 37.7114C226.378 38.0814 226.813 38.2664 227.323 38.2664C227.833 38.2664 228.263 38.0814 228.613 37.7114C228.973 37.3414 229.153 36.8364 229.153 36.1964Z" fill="#AFBBF0"/>
<path d="M238.238 38.2064V40.3814H236.933C236.003 40.3814 235.278 40.1564 234.758 39.7064C234.238 39.2464 233.978 38.5014 233.978 37.4714V34.1414H232.958V32.0114H233.978V29.9714H236.543V32.0114H238.223V34.1414H236.543V37.5014C236.543 37.7514 236.603 37.9314 236.723 38.0414C236.843 38.1514 237.043 38.2064 237.323 38.2064H238.238Z" fill="#AFBBF0"/>
<path d="M240.957 31.1414C240.507 31.1414 240.137 31.0114 239.847 30.7514C239.567 30.4814 239.427 30.1514 239.427 29.7614C239.427 29.3614 239.567 29.0314 239.847 28.7714C240.137 28.5014 240.507 28.3664 240.957 28.3664C241.397 28.3664 241.757 28.5014 242.037 28.7714C242.327 29.0314 242.472 29.3614 242.472 29.7614C242.472 30.1514 242.327 30.4814 242.037 30.7514C241.757 31.0114 241.397 31.1414 240.957 31.1414ZM242.232 32.0114V40.3814H239.667V32.0114H242.232Z" fill="#AFBBF0"/>
<path d="M247.901 40.5014C247.081 40.5014 246.341 40.3264 245.681 39.9764C245.031 39.6264 244.516 39.1264 244.136 38.4764C243.766 37.8264 243.581 37.0664 243.581 36.1964C243.581 35.3364 243.771 34.5814 244.151 33.9314C244.531 33.2714 245.051 32.7664 245.711 32.4164C246.371 32.0664 247.111 31.8914 247.931 31.8914C248.751 31.8914 249.491 32.0664 250.151 32.4164C250.811 32.7664 251.331 33.2714 251.711 33.9314C252.091 34.5814 252.281 35.3364 252.281 36.1964C252.281 37.0564 252.086 37.8164 251.696 38.4764C251.316 39.1264 250.791 39.6264 250.121 39.9764C249.461 40.3264 248.721 40.5014 247.901 40.5014ZM247.901 38.2814C248.391 38.2814 248.806 38.1014 249.146 37.7414C249.496 37.3814 249.671 36.8664 249.671 36.1964C249.671 35.5264 249.501 35.0114 249.161 34.6514C248.831 34.2914 248.421 34.1114 247.931 34.1114C247.431 34.1114 247.016 34.2914 246.686 34.6514C246.356 35.0014 246.191 35.5164 246.191 36.1964C246.191 36.8664 246.351 37.3814 246.671 37.7414C247.001 38.1014 247.411 38.2814 247.901 38.2814Z" fill="#AFBBF0"/>
<path d="M258.742 31.9214C259.722 31.9214 260.502 32.2414 261.082 32.8814C261.672 33.5114 261.967 34.3814 261.967 35.4914V40.3814H259.417V35.8364C259.417 35.2764 259.272 34.8414 258.982 34.5314C258.692 34.2214 258.302 34.0664 257.812 34.0664C257.322 34.0664 256.932 34.2214 256.642 34.5314C256.352 34.8414 256.207 35.2764 256.207 35.8364V40.3814H253.642V32.0114H256.207V33.1214C256.467 32.7514 256.817 32.4614 257.257 32.2514C257.697 32.0314 258.192 31.9214 258.742 31.9214Z" fill="#AFBBF0"/>
<path d="M267.154 40.5014C266.424 40.5014 265.774 40.3764 265.204 40.1264C264.634 39.8764 264.184 39.5364 263.854 39.1064C263.524 38.6664 263.339 38.1764 263.299 37.6364H265.834C265.864 37.9264 265.999 38.1614 266.239 38.3414C266.479 38.5214 266.774 38.6114 267.124 38.6114C267.444 38.6114 267.689 38.5514 267.859 38.4314C268.039 38.3014 268.129 38.1364 268.129 37.9364C268.129 37.6964 268.004 37.5214 267.754 37.4114C267.504 37.2914 267.099 37.1614 266.539 37.0214C265.939 36.8814 265.439 36.7364 265.039 36.5864C264.639 36.4264 264.294 36.1814 264.004 35.8514C263.714 35.5114 263.569 35.0564 263.569 34.4864C263.569 34.0064 263.699 33.5714 263.959 33.1814C264.229 32.7814 264.619 32.4664 265.129 32.2364C265.649 32.0064 266.264 31.8914 266.974 31.8914C268.024 31.8914 268.849 32.1514 269.449 32.6714C270.059 33.1914 270.409 33.8814 270.499 34.7414H268.129C268.089 34.4514 267.959 34.2214 267.739 34.0514C267.529 33.8814 267.249 33.7964 266.899 33.7964C266.599 33.7964 266.369 33.8564 266.209 33.9764C266.049 34.0864 265.969 34.2414 265.969 34.4414C265.969 34.6814 266.094 34.8614 266.344 34.9814C266.604 35.1014 267.004 35.2214 267.544 35.3414C268.164 35.5014 268.669 35.6614 269.059 35.8214C269.449 35.9714 269.789 36.2214 270.079 36.5714C270.379 36.9114 270.534 37.3714 270.544 37.9514C270.544 38.4414 270.404 38.8814 270.124 39.2714C269.854 39.6514 269.459 39.9514 268.939 40.1714C268.429 40.3914 267.834 40.5014 267.154 40.5014Z" fill="#AFBBF0"/>
<path fill-rule="evenodd" clip-rule="evenodd" d="M48.9881 15.9832C49.1382 15.241 49.2383 14.3904 49.2383 13.5981C49.2383 7.2432 44.0843 2.12274 37.7878 2.12274C33.1258 2.12274 29.1143 4.89958 27.3213 8.87767C26.2287 8.37728 24.9944 8.08563 23.7017 8.08563C19.2399 8.08563 15.5705 11.5631 15.2703 15.9832C11.901 15.9832 11.9009 15.9832 11.9009 15.9832C5.30414 15.9832 0 21.2957 0 27.9009C0 34.506 5.30414 39.8686 11.9009 39.8686C48.1458 39.8686 48.1458 39.8686 48.1458 39.8686C54.7426 39.8686 60.0467 34.506 60.0467 27.9009C60.0384 21.596 55.1846 16.4336 48.9881 15.9832Z" fill="#7C9EF4"/>
<path fill-rule="evenodd" clip-rule="evenodd" d="M34.3951 11.1878C33.4277 11.1878 32.5938 11.9219 32.5938 12.881C32.5938 13.4898 32.9605 14.0069 33.4693 14.3071C33.4693 26.65 33.4693 26.6499 33.4693 26.6499C33.4693 27.1252 33.8863 27.5172 34.3951 27.5172C36.8887 27.5172 36.8887 27.5172 36.8887 27.5172C36.8887 29.5105 36.8887 29.5106 36.8887 29.5106C43.1686 29.5106 43.1686 29.5106 43.1686 29.5106C43.1686 23.6227 43.1686 23.6226 43.1686 23.6226C36.8887 23.6226 36.8887 23.6226 36.8887 23.6226C36.8887 25.791 36.8887 25.791 36.8887 25.791C35.3208 25.791 35.3209 25.791 35.3209 25.791C35.3209 14.3155 35.3209 14.3152 35.3209 14.3152C35.8296 14.015 36.1964 13.4896 36.1964 12.8892C36.1964 11.9217 35.4125 11.1878 34.3951 11.1878Z" fill="#BFD6EA"/>
<path d="M34.4118 33.764C35.4159 33.764 36.2298 33.0097 36.2298 32.0793C36.2298 31.1489 35.4159 30.3947 34.4118 30.3947C33.4077 30.3947 32.5938 31.1489 32.5938 32.0793C32.5938 33.0097 33.4077 33.764 34.4118 33.764Z" fill="#BFD6EA"/>
<path d="M40.0759 33.764C41.0615 33.764 41.8605 33.0097 41.8605 32.0793C41.8605 31.1489 41.0615 30.3947 40.0759 30.3947C39.0902 30.3947 38.291 31.1489 38.291 32.0793C38.291 33.0097 39.0902 33.764 40.0759 33.764Z" fill="#BFD6EA"/>
<path fill-rule="evenodd" clip-rule="evenodd" d="M40.0592 18.5939C39.0834 18.5939 38.291 19.3276 38.291 20.2867C38.291 21.1957 39.0834 21.9298 40.0592 21.9298C40.7597 21.9298 41.31 21.6294 41.6353 21.104C44.746 21.104 44.746 21.104 44.746 21.104C44.746 30.6364 44.746 30.6365 44.746 30.6365C44.2373 30.8951 43.8622 31.4621 43.8622 32.0626C43.8622 32.9716 44.6961 33.7554 45.6718 33.7554C46.6476 33.7554 47.4815 32.9716 47.4815 32.0626C47.4815 31.4538 47.1064 30.8951 46.5976 30.6365C46.5976 20.2368 46.5976 20.2366 46.5976 20.2366C46.5976 19.7612 46.1806 19.3692 45.6718 19.3692C41.5853 19.3692 41.5854 19.3692 41.5854 19.3692C41.2602 18.9022 40.7097 18.5939 40.0592 18.5939Z" fill="#BFD6EA"/>
<path fill-rule="evenodd" clip-rule="evenodd" d="M26.9516 18.5939C26.3011 18.5939 25.7506 18.8941 25.4253 19.3778C20.4715 19.3778 20.4715 19.3778 20.4715 19.3778C19.9628 19.3778 19.5457 19.7698 19.5457 20.2451C19.5457 23.8062 19.5457 23.8063 19.5457 23.8063C17.369 23.8063 17.3691 23.8063 17.3691 23.8063C17.3691 29.7109 17.3691 29.7105 17.3691 29.7105C23.6657 29.7105 23.6657 29.7105 23.6657 29.7105C23.6657 23.8059 23.6657 23.8063 23.6657 23.8063C21.3973 23.8063 21.3971 23.8063 21.3971 23.8063C21.3971 21.1125 21.3971 21.1125 21.3971 21.1125C25.4253 21.1125 25.4253 21.1125 25.4253 21.1125C25.7506 21.5879 26.3011 21.9379 26.9516 21.9379C27.9273 21.9379 28.7613 21.1959 28.7613 20.2451C28.7529 19.3361 27.919 18.5939 26.9516 18.5939Z" fill="#BFD6EA"/>
<path fill-rule="evenodd" clip-rule="evenodd" d="M26.95 25.0487C25.9743 25.0487 25.1402 25.7826 25.1402 26.7C25.1402 27.3088 25.4654 27.826 25.9741 28.1346C25.9741 31.212 25.9741 31.2119 25.9741 31.2119C15.4159 31.2119 15.416 31.2119 15.416 31.2119C15.0908 30.7366 14.5319 30.3861 13.8898 30.3861C12.8723 30.3861 12.0801 31.1703 12.0801 32.0793C12.0801 32.9884 12.864 33.7721 13.8898 33.7721C14.5403 33.7721 15.0908 33.4221 15.416 32.9467C26.8999 32.9467 26.9 32.9467 26.9 32.9467C27.4087 32.9467 27.8258 32.5547 27.8258 32.0793C27.8258 28.1763 27.8258 28.1761 27.8258 28.1761C28.3845 27.9176 28.7514 27.3505 28.7514 26.7C28.7514 25.7826 27.9175 25.0487 26.95 25.0487Z" fill="#BFD6EA"/>
<path d="M13.8649 28.418C14.8506 28.418 15.6495 27.6638 15.6495 26.7334C15.6495 25.803 14.8506 25.0487 13.8649 25.0487C12.8792 25.0487 12.0801 25.803 12.0801 26.7334C12.0801 27.6638 12.8792 28.418 13.8649 28.418Z" fill="#BFD6EA"/>
<defs>
<linearGradient id="paint0_linear_187_728" x1="301.42" y1="9.49996" x2="11.5766" y2="9.49994" gradientUnits="userSpaceOnUse">
<stop stop-color="#68B5C7"/>
<stop offset="1" stop-color="#9AB2F9"/>
</linearGradient>
<linearGradient id="paint1_linear_187_728" x1="301.42" y1="9.49996" x2="11.5766" y2="9.49994" gradientUnits="userSpaceOnUse">
<stop stop-color="#68B5C7"/>
<stop offset="1" stop-color="#9AB2F9"/>
</linearGradient>
<linearGradient id="paint2_linear_187_728" x1="301.42" y1="9.49996" x2="11.5766" y2="9.49994" gradientUnits="userSpaceOnUse">
<stop stop-color="#68B5C7"/>
<stop offset="1" stop-color="#9AB2F9"/>
</linearGradient>
<linearGradient id="paint3_linear_187_728" x1="301.42" y1="9.49996" x2="11.5766" y2="9.49994" gradientUnits="userSpaceOnUse">
<stop stop-color="#68B5C7"/>
<stop offset="1" stop-color="#9AB2F9"/>
</linearGradient>
<linearGradient id="paint4_linear_187_728" x1="301.42" y1="9.49996" x2="11.5766" y2="9.49994" gradientUnits="userSpaceOnUse">
<stop stop-color="#68B5C7"/>
<stop offset="1" stop-color="#9AB2F9"/>
</linearGradient>
<linearGradient id="paint5_linear_187_728" x1="301.42" y1="9.49996" x2="11.5766" y2="9.49994" gradientUnits="userSpaceOnUse">
<stop stop-color="#68B5C7"/>
<stop offset="1" stop-color="#9AB2F9"/>
</linearGradient>
<linearGradient id="paint6_linear_187_728" x1="301.42" y1="9.49996" x2="11.5766" y2="9.49994" gradientUnits="userSpaceOnUse">
<stop stop-color="#68B5C7"/>
<stop offset="1" stop-color="#9AB2F9"/>
</linearGradient>
<linearGradient id="paint7_linear_187_728" x1="301.42" y1="9.49996" x2="11.5766" y2="9.49994" gradientUnits="userSpaceOnUse">
<stop stop-color="#68B5C7"/>
<stop offset="1" stop-color="#9AB2F9"/>
</linearGradient>
<linearGradient id="paint8_linear_187_728" x1="301.42" y1="9.49996" x2="11.5766" y2="9.49994" gradientUnits="userSpaceOnUse">
<stop stop-color="#68B5C7"/>
<stop offset="1" stop-color="#9AB2F9"/>
</linearGradient>
<linearGradient id="paint9_linear_187_728" x1="301.42" y1="9.49996" x2="11.5766" y2="9.49994" gradientUnits="userSpaceOnUse">
<stop stop-color="#68B5C7"/>
<stop offset="1" stop-color="#9AB2F9"/>
</linearGradient>
<linearGradient id="paint10_linear_187_728" x1="301.42" y1="9.49996" x2="11.5766" y2="9.49994" gradientUnits="userSpaceOnUse">
<stop stop-color="#68B5C7"/>
<stop offset="1" stop-color="#9AB2F9"/>
</linearGradient>
<linearGradient id="paint11_linear_187_728" x1="301.42" y1="9.49996" x2="11.5766" y2="9.49994" gradientUnits="userSpaceOnUse">
<stop stop-color="#68B5C7"/>
<stop offset="1" stop-color="#9AB2F9"/>
</linearGradient>
<linearGradient id="paint12_linear_187_728" x1="301.42" y1="9.49996" x2="11.5766" y2="9.49994" gradientUnits="userSpaceOnUse">
<stop stop-color="#68B5C7"/>
<stop offset="1" stop-color="#9AB2F9"/>
</linearGradient>
<linearGradient id="paint13_linear_187_728" x1="301.42" y1="9.49996" x2="11.5766" y2="9.49994" gradientUnits="userSpaceOnUse">
<stop stop-color="#68B5C7"/>
<stop offset="1" stop-color="#9AB2F9"/>
</linearGradient>
<linearGradient id="paint14_linear_187_728" x1="301.42" y1="9.49996" x2="11.5766" y2="9.49994" gradientUnits="userSpaceOnUse">
<stop stop-color="#68B5C7"/>
<stop offset="1" stop-color="#9AB2F9"/>
</linearGradient>
<linearGradient id="paint15_linear_187_728" x1="301.42" y1="9.49996" x2="11.5766" y2="9.49994" gradientUnits="userSpaceOnUse">
<stop stop-color="#68B5C7"/>
<stop offset="1" stop-color="#9AB2F9"/>
</linearGradient>
<linearGradient id="paint16_linear_187_728" x1="301.42" y1="9.49996" x2="11.5766" y2="9.49994" gradientUnits="userSpaceOnUse">
<stop stop-color="#68B5C7"/>
<stop offset="1" stop-color="#9AB2F9"/>
</linearGradient>
<linearGradient id="paint17_linear_187_728" x1="301.42" y1="9.49996" x2="11.5766" y2="9.49994" gradientUnits="userSpaceOnUse">
<stop stop-color="#68B5C7"/>
<stop offset="1" stop-color="#9AB2F9"/>
</linearGradient>
<linearGradient id="paint18_linear_187_728" x1="301.42" y1="9.49996" x2="11.5766" y2="9.49994" gradientUnits="userSpaceOnUse">
<stop stop-color="#68B5C7"/>
<stop offset="1" stop-color="#9AB2F9"/>
</linearGradient>
<linearGradient id="paint19_linear_187_728" x1="301.42" y1="9.49996" x2="11.5766" y2="9.49994" gradientUnits="userSpaceOnUse">
<stop stop-color="#68B5C7"/>
<stop offset="1" stop-color="#9AB2F9"/>
</linearGradient>
<linearGradient id="paint20_linear_187_728" x1="301.42" y1="9.49996" x2="11.5766" y2="9.49994" gradientUnits="userSpaceOnUse">
<stop stop-color="#68B5C7"/>
<stop offset="1" stop-color="#9AB2F9"/>
</linearGradient>
<linearGradient id="paint21_linear_187_728" x1="301.42" y1="9.49996" x2="11.5766" y2="9.49994" gradientUnits="userSpaceOnUse">
<stop stop-color="#68B5C7"/>
<stop offset="1" stop-color="#9AB2F9"/>
</linearGradient>
<linearGradient id="paint22_linear_187_728" x1="301.42" y1="9.49996" x2="11.5766" y2="9.49994" gradientUnits="userSpaceOnUse">
<stop stop-color="#68B5C7"/>
<stop offset="1" stop-color="#9AB2F9"/>
</linearGradient>
<linearGradient id="paint23_linear_187_728" x1="301.42" y1="9.49996" x2="11.5766" y2="9.49994" gradientUnits="userSpaceOnUse">
<stop stop-color="#68B5C7"/>
<stop offset="1" stop-color="#9AB2F9"/>
</linearGradient>
<linearGradient id="paint24_linear_187_728" x1="301.42" y1="9.49996" x2="11.5766" y2="9.49994" gradientUnits="userSpaceOnUse">
<stop stop-color="#68B5C7"/>
<stop offset="1" stop-color="#9AB2F9"/>
</linearGradient>
<linearGradient id="paint25_linear_187_728" x1="301.42" y1="9.49996" x2="11.5766" y2="9.49994" gradientUnits="userSpaceOnUse">
<stop stop-color="#68B5C7"/>
<stop offset="1" stop-color="#9AB2F9"/>
</linearGradient>
<linearGradient id="paint26_linear_187_728" x1="301.42" y1="9.49996" x2="11.5766" y2="9.49994" gradientUnits="userSpaceOnUse">
<stop stop-color="#68B5C7"/>
<stop offset="1" stop-color="#9AB2F9"/>
</linearGradient>
</defs>
</svg>
