<svg width="112" height="21" viewBox="0 0 112 21" fill="none" xmlns="http://www.w3.org/2000/svg">
<path d="M21.4849 5.91614H20.0421C19.7484 5.91614 19.479 6.16115 19.479 6.45631V12.9641C19.479 15.983 21.3631 18.0219 24.4236 18.0219C26.2576 18.0219 27.5056 17.2855 28.2406 16.2051V17.188C28.2406 17.4832 28.51 17.7024 28.7794 17.7024H30.2222C30.5159 17.7024 30.7853 17.4574 30.7853 17.1637V6.4821C30.7853 6.16402 30.5159 5.91757 30.2222 5.91757H28.7794C28.51 5.91757 28.2406 6.16402 28.2406 6.45918V12.573C28.2406 14.4643 27.0657 15.8125 25.0827 15.8125C23.0524 15.8125 22.0237 14.5115 22.0237 12.5472V6.45918C22.0237 6.16115 21.7801 5.91614 21.4849 5.91614Z" fill="#3253DC"/>
<path d="M8.93069 0C3.98894 0 0.00143281 3.85138 0 9.00375V9.01522C0.00143281 14.169 3.98894 18.0204 8.93069 18.0204C9.77604 18.0204 10.5927 17.9029 11.3679 17.6923L12.3322 20.2054C12.431 20.4748 12.6245 20.6467 12.9941 20.6467H14.5373C14.9026 20.6467 15.172 20.4017 15.0029 19.9361L13.7464 16.6463C16.2265 15.0846 17.8671 12.315 17.8671 9.01092C17.8628 3.85282 13.8753 0 8.93069 0ZM12.8193 14.2306L11.696 11.2934C11.5986 11.0469 11.4037 10.8249 10.9638 10.8249H9.49521C9.12985 10.8249 8.83469 11.0713 9.00663 11.537L10.4896 15.4012C9.99813 15.5245 9.47659 15.5889 8.93355 15.5889C5.30998 15.5889 2.74096 12.7419 2.74096 9.00949C2.74096 5.27559 5.30998 2.42861 8.93355 2.42861C12.5557 2.42861 15.1247 5.27846 15.1247 9.00949C15.1233 11.1773 14.2564 13.0428 12.8193 14.2306Z" fill="#3253DC"/>
<path d="M107.875 6.38112C107.751 6.0616 107.532 5.9126 107.238 5.9126H105.478C105.182 5.9126 104.965 6.06017 104.84 6.38112L101.977 14.2129L99.04 6.38112C98.9182 6.0616 98.6975 5.9126 98.4052 5.9126H96.6672C96.3721 5.9126 96.1514 6.06017 96.0296 6.38112L93.1411 14.2129L90.2526 6.38112C90.1308 6.0616 89.9101 5.9126 89.6178 5.9126H87.8784C87.5847 5.9126 87.3655 6.06017 87.2422 6.38112L84.3308 14.2129L81.4422 6.38112C81.319 6.0616 81.0998 5.9126 80.8046 5.9126H79.0437C78.75 5.9126 78.5293 6.06017 78.4076 6.38112L74.3212 17.11C74.1994 17.4051 74.347 17.6974 74.7138 17.6974H76.2784C76.5721 17.6974 76.8171 17.5513 76.9146 17.2561L79.9249 9.15503L82.9367 17.2561C83.0584 17.5757 83.2791 17.6974 83.5714 17.6974H85.0157C85.3094 17.6974 85.5315 17.5757 85.6518 17.2561L88.7352 9.15503L91.7212 17.2561C91.843 17.5513 92.0636 17.6974 92.3559 17.6974H93.8733C94.167 17.6974 94.3862 17.5513 94.5094 17.2561L97.5183 9.15503L100.579 17.2561C100.702 17.5757 100.921 17.6974 101.215 17.6974H102.659C102.952 17.6974 103.174 17.5757 103.294 17.2561L106.329 9.20375L109.315 17.2561C109.413 17.5513 109.657 17.6974 109.949 17.6974H111.567C111.932 17.6974 112.08 17.4023 111.958 17.11L107.875 6.38112Z" fill="#3253DC"/>
<path d="M44.2207 5.91581H42.7764C42.4841 5.91581 42.2147 6.16082 42.2147 6.48033V7.46324C41.4811 6.35998 40.0612 5.57336 38.372 5.57336C35.1883 5.57336 32.4487 8.10371 32.4487 11.7846C32.4487 15.5171 35.1911 18.0216 38.3476 18.0216C40.0612 18.0216 41.4554 17.235 42.2147 16.1317V17.1634C42.2147 17.4585 42.4841 17.705 42.7764 17.705H44.2207C44.5144 17.705 44.7594 17.4585 44.7594 17.1634V6.48177C44.7594 6.16082 44.5144 5.91581 44.2207 5.91581ZM38.6413 15.6632C36.538 15.6632 35.0435 13.9438 35.0435 11.8075C35.0435 9.64684 36.538 7.97762 38.6413 7.97762C40.7203 7.97762 42.2377 9.64827 42.2377 11.8075C42.2377 13.9438 40.7218 15.6632 38.6413 15.6632Z" fill="#3253DC"/>
<path d="M57.6333 7.90329C58.5144 7.90329 59.2738 8.22137 59.91 8.61396C60.1793 8.7859 60.496 8.88333 60.7654 8.5151L61.4502 7.55798C61.744 7.1396 61.4975 6.87023 61.327 6.74844C60.3226 5.98762 59.0016 5.57068 57.5573 5.57068C53.9108 5.57068 51.4894 8.27152 51.4894 11.8077C51.4894 15.3424 53.9137 18.0203 57.5573 18.0203C59.0016 18.0203 60.3226 17.602 61.327 16.8411C61.5004 16.7179 61.7698 16.4228 61.4502 16.0302L60.7152 15.0974C60.4229 14.7048 60.1292 14.8281 59.8598 14.9742C59.2237 15.3424 58.5144 15.6863 57.6333 15.6863C55.5041 15.6863 54.0856 13.9913 54.0856 11.8063C54.0856 9.62265 55.5041 7.90329 57.6333 7.90329Z" fill="#3253DC"/>
<path d="M68.2547 5.59607C64.8274 5.59607 62.0879 8.29691 62.0879 11.8073C62.0879 15.342 64.8303 18.02 68.2547 18.02C71.682 18.02 74.4201 15.342 74.4201 11.8073C74.4229 8.29691 71.682 5.59607 68.2547 5.59607ZM68.2547 15.6372C66.1513 15.6372 64.6569 13.9436 64.6569 11.8073C64.6569 9.64661 66.1513 7.9774 68.2547 7.9774C70.358 7.9774 71.851 9.64805 71.851 11.8073C71.851 13.9436 70.3595 15.6372 68.2547 15.6372Z" fill="#3253DC"/>
<path d="M49.2886 17.7003C49.6053 17.7003 49.8273 17.4309 49.8273 17.1357V0.88197C49.8273 0.586812 49.6053 0.317444 49.2886 0.317444H47.8443C47.5506 0.317444 47.2812 0.586813 47.2812 0.883405V17.1372C47.2812 17.4323 47.5506 17.7031 47.8443 17.7031L49.2886 17.7017V17.7003Z" fill="#3253DC"/>
</svg>
