<svg width="348" height="68" viewBox="0 0 348 68" fill="none" xmlns="http://www.w3.org/2000/svg">
<path d="M52.3112 44.8587C57.4693 32.4119 58.0113 19.1148 57.6375 14.0221C51.5823 29.1601 39.229 38.4578 33.8092 41.2144C24.1658 47.1574 12.6908 48.9235 8.15878 49.0637C14.3261 59.9406 24.6517 66.1173 29.0436 67.846C42.3874 62.6879 50.1152 50.3719 52.3112 44.8587Z" fill="#75DAB4"/>
<path d="M28.9039 0.846191C19.0361 12.508 5.82312 14.1153 0.450073 13.4612C0.450073 27.0293 2.59929 35.7476 3.6739 38.4108C10.1216 39.8125 20.4939 38.8313 24.9792 37.8501C44.7427 31.6828 54.9281 19.3014 57.4978 13.4612C44.6025 14.6946 33.0621 5.56513 28.9039 0.846191Z" fill="#B3CF2D"/>
<path d="M34.3705 22.993C17.5505 25.6842 4.88884 21.4979 0.590407 19.0684C0.590407 26.357 2.55257 35.7476 3.6739 38.4108C33.6695 43.4568 52.7323 23.4135 57.6381 13.4617C49.2282 19.629 38.6222 22.3856 34.3705 22.993Z" fill="#A2BE1C"/>
<path d="M95.985 38.9213C95.985 38.144 96.0203 37.4374 96.091 36.8015L96.0203 36.6955C95.361 36.7897 94.6428 36.8604 93.8657 36.9075C93.0887 36.931 92.3704 36.931 91.7111 36.9075V32.3146L100.93 32.2792V44.2914C99.8468 44.7861 98.6106 45.1747 97.2213 45.4573C95.8555 45.7164 94.113 45.846 91.9937 45.846C89.168 45.846 86.9545 45.4691 85.3532 44.7154C83.752 43.9381 82.6217 42.7016 81.9624 41.0057C81.303 39.2864 80.9734 37.0017 80.9734 34.1517C80.9734 31.8435 81.2324 29.9475 81.7504 28.4636C82.292 26.9797 83.0691 25.8374 84.0817 25.0366C85.1178 24.2122 86.3776 23.6469 87.8611 23.3407C89.3446 23.011 91.04 22.8461 92.9474 22.8461C94.0777 22.8461 95.2079 22.8932 96.3382 22.9874C97.4921 23.0817 98.6341 23.2583 99.7644 23.5174V28.181L99.6585 28.2516C98.6695 28.0161 97.6805 27.8512 96.6915 27.757C95.726 27.6628 94.7488 27.6157 93.7598 27.6157C92.3233 27.6157 91.0635 27.7688 89.9804 28.075C88.9207 28.3576 88.0965 28.9582 87.5079 29.8768C86.9192 30.7954 86.6248 32.2204 86.6248 34.1517C86.6248 36.0595 86.7779 37.5199 87.084 38.5326C87.4137 39.5219 88.0141 40.2049 88.8854 40.5818C89.7802 40.9351 91.0518 41.1117 92.7001 41.1117C92.912 41.1117 93.2417 41.1117 93.6891 41.1117C94.1365 41.0882 94.5839 41.0646 95.0313 41.0411C95.4787 41.0175 95.7966 40.9822 95.985 40.9351V38.9213Z" fill="white"/>
<path d="M106.591 45.528V23.1641H116.375C118.33 23.1641 119.966 23.329 121.285 23.6587C122.604 23.9649 123.663 24.5184 124.464 25.3192C125.264 26.12 125.841 27.2388 126.195 28.6756C126.548 30.0888 126.724 31.9142 126.724 34.1517C126.724 36.4835 126.548 38.3913 126.195 39.8752C125.841 41.359 125.264 42.5132 124.464 43.3375C123.663 44.1619 122.604 44.739 121.285 45.0687C119.966 45.3749 118.33 45.528 116.375 45.528H106.591ZM115.563 27.9336H112.243V40.7584H115.563C116.929 40.7584 118 40.6053 118.777 40.2991C119.578 39.993 120.143 39.3688 120.473 38.4267C120.826 37.4845 121.002 36.0595 121.002 34.1517C121.002 32.3381 120.826 30.9956 120.473 30.1241C120.143 29.2291 119.578 28.6402 118.777 28.3576C118 28.075 116.929 27.9336 115.563 27.9336Z" fill="white"/>
<path d="M143.81 39.7692C144.846 40.1225 145.977 40.4051 147.201 40.6171C148.449 40.8055 149.686 40.8998 150.91 40.8998C152.582 40.8998 153.818 40.8291 154.619 40.6878C155.443 40.5229 155.985 40.2756 156.244 39.9458C156.503 39.6161 156.632 39.1921 156.632 38.674C156.632 38.2265 156.538 37.8731 156.35 37.6141C156.161 37.355 155.796 37.1548 155.255 37.0135C154.713 36.8486 153.912 36.719 152.853 36.6248L150.521 36.4128C148.779 36.248 147.401 35.8829 146.389 35.3176C145.4 34.7523 144.693 33.9986 144.27 33.0565C143.869 32.0908 143.669 30.9367 143.669 29.5942C143.669 27.9925 143.987 26.6971 144.623 25.7079C145.282 24.7186 146.342 24.0002 147.802 23.5527C149.262 23.0817 151.204 22.8461 153.63 22.8461C156.785 22.8461 159.387 23.2583 161.436 24.0827L161.33 28.8876L161.224 29.0289C158.893 28.2045 156.455 27.7923 153.912 27.7923C152.688 27.7923 151.746 27.863 151.087 28.0043C150.427 28.1221 149.968 28.3223 149.709 28.6049C149.45 28.8876 149.321 29.288 149.321 29.8061C149.321 30.3243 149.403 30.7129 149.568 30.972C149.756 31.2311 150.121 31.4313 150.663 31.5726C151.204 31.6904 151.993 31.8082 153.029 31.9259L155.255 32.1732C157.138 32.3852 158.587 32.7621 159.599 33.3038C160.612 33.8455 161.306 34.5757 161.683 35.4943C162.083 36.3893 162.284 37.4845 162.284 38.78C162.284 40.358 161.942 41.677 161.259 42.7369C160.6 43.7733 159.517 44.5505 158.01 45.0687C156.503 45.5869 154.489 45.846 151.97 45.846C150.321 45.846 148.838 45.7635 147.519 45.5986C146.2 45.4102 144.917 45.1629 143.669 44.8567V39.8752L143.81 39.7692Z" fill="white"/>
<path d="M188.083 45.422V45.528H182.078C181.914 44.9627 181.714 44.315 181.478 43.5848C181.266 42.8547 181.031 42.0774 180.772 41.2531H173.142C172.671 42.9018 172.236 44.3268 171.835 45.528H165.831V45.4573L173.072 23.1641H180.842L188.083 45.422ZM176.886 27.1917C176.651 28.3929 176.309 29.8532 175.862 31.5726C175.415 33.292 174.944 35.0468 174.449 36.8368H179.5C178.982 35.0468 178.499 33.292 178.052 31.5726C177.604 29.8532 177.263 28.3929 177.028 27.1917H176.886Z" fill="white"/>
<path d="M197.987 45.528H192.336V23.1641H208.937V27.757H197.987V32.8798H208.23V37.4727H197.987V45.528Z" fill="white"/>
<path d="M213.349 45.528V23.1641H229.95V27.757H219.001V31.9966H228.502V36.5895H219.001V40.9351H229.95V45.528H213.349Z" fill="white"/>
<path d="M249.077 39.7692C250.113 40.1225 251.244 40.4051 252.468 40.6171C253.716 40.8055 254.953 40.8998 256.177 40.8998C257.849 40.8998 259.085 40.8291 259.886 40.6878C260.71 40.5229 261.252 40.2756 261.511 39.9458C261.77 39.6161 261.899 39.1921 261.899 38.674C261.899 38.2265 261.805 37.8731 261.617 37.6141C261.428 37.355 261.063 37.1548 260.522 37.0135C259.98 36.8486 259.179 36.719 258.12 36.6248L255.788 36.4128C254.046 36.248 252.668 35.8829 251.656 35.3176C250.667 34.7523 249.96 33.9986 249.537 33.0565C249.136 32.0908 248.936 30.9367 248.936 29.5942C248.936 27.9925 249.254 26.6971 249.89 25.7079C250.549 24.7186 251.609 24.0002 253.069 23.5527C254.529 23.0817 256.471 22.8461 258.897 22.8461C262.052 22.8461 264.654 23.2583 266.703 24.0827L266.597 28.8876L266.491 29.0289C264.16 28.2045 261.722 27.7923 259.179 27.7923C257.955 27.7923 257.013 27.863 256.354 28.0043C255.694 28.1221 255.235 28.3223 254.976 28.6049C254.717 28.8876 254.588 29.288 254.588 29.8061C254.588 30.3243 254.67 30.7129 254.835 30.972C255.023 31.2311 255.388 31.4313 255.93 31.5726C256.471 31.6904 257.26 31.8082 258.296 31.9259L260.522 32.1732C262.405 32.3852 263.854 32.7621 264.866 33.3038C265.879 33.8455 266.573 34.5757 266.95 35.4943C267.35 36.3893 267.551 37.4845 267.551 38.78C267.551 40.358 267.209 41.677 266.526 42.7369C265.867 43.7733 264.784 44.5505 263.277 45.0687C261.77 45.5869 259.756 45.846 257.237 45.846C255.588 45.846 254.105 45.7635 252.786 45.5986C251.467 45.4102 250.184 45.1629 248.936 44.8567V39.8752L249.077 39.7692Z" fill="white"/>
<path d="M278.515 45.528H272.864V23.1641H278.515V45.528Z" fill="white"/>
<path d="M289.121 45.528V27.9336H282.763V23.1641H301.131V27.9336H294.773V45.528H289.121Z" fill="white"/>
<path d="M305.371 45.528V23.1641H321.972V27.757H311.022V31.9966H320.523V36.5895H311.022V40.9351H321.972V45.528H305.371Z" fill="white"/>
<path d="M329.077 39.7692C330.113 40.1225 331.243 40.4051 332.468 40.6171C333.716 40.8055 334.952 40.8998 336.176 40.8998C337.848 40.8998 339.085 40.8291 339.885 40.6878C340.709 40.5229 341.251 40.2756 341.51 39.9458C341.769 39.6161 341.898 39.1921 341.898 38.674C341.898 38.2265 341.804 37.8731 341.616 37.6141C341.427 37.355 341.063 37.1548 340.521 37.0135C339.979 36.8486 339.179 36.719 338.119 36.6248L335.788 36.4128C334.045 36.248 332.668 35.8829 331.655 35.3176C330.666 34.7523 329.96 33.9986 329.536 33.0565C329.136 32.0908 328.935 30.9367 328.935 29.5942C328.935 27.9925 329.253 26.6971 329.889 25.7079C330.548 24.7186 331.608 24.0002 333.068 23.5527C334.528 23.0817 336.471 22.8461 338.896 22.8461C342.052 22.8461 344.654 23.2583 346.702 24.0827L346.596 28.8876L346.49 29.0289C344.159 28.2045 341.722 27.7923 339.179 27.7923C337.954 27.7923 337.012 27.863 336.353 28.0043C335.694 28.1221 335.234 28.3223 334.975 28.6049C334.716 28.8876 334.587 29.288 334.587 29.8061C334.587 30.3243 334.669 30.7129 334.834 30.972C335.023 31.2311 335.388 31.4313 335.929 31.5726C336.471 31.6904 337.26 31.8082 338.296 31.9259L340.521 32.1732C342.405 32.3852 343.853 32.7621 344.866 33.3038C345.878 33.8455 346.573 34.5757 346.949 35.4943C347.35 36.3893 347.55 37.4845 347.55 38.78C347.55 40.358 347.208 41.677 346.526 42.7369C345.866 43.7733 344.783 44.5505 343.276 45.0687C341.769 45.5869 339.756 45.846 337.236 45.846C335.588 45.846 334.104 45.7635 332.786 45.5986C331.467 45.4102 330.183 45.1629 328.935 44.8567V39.8752L329.077 39.7692Z" fill="white"/>
</svg>
