<svg width="212" height="61" viewBox="0 0 212 61" fill="none" xmlns="http://www.w3.org/2000/svg">
<rect width="212" height="61" rx="5" fill="#F0FAFF"/>
<path d="M52.0095 13C42.5975 13 35 20.5681 35 29.9435C35 33.784 36.2474 37.3987 38.5153 40.2226L52.6897 21.6977H51.216H49.7415C48.1538 21.6977 46.5663 21.8106 45.5458 22.0365C44.8654 22.1495 44.2984 22.3754 43.8449 22.7143C43.2779 23.0531 42.5975 23.9568 42.144 24.7475C42.144 24.8604 42.0305 24.9735 41.9171 25.1994L40.8966 25.0864L42.2573 19.7774H59.9476L45.8859 38.4152C46.7932 38.3023 47.1333 38.3023 47.9271 38.3023C48.4941 38.3023 49.4012 38.3023 50.5357 38.4152L53.0305 38.5283C53.9371 38.5283 54.7306 38.6412 55.2977 38.6412C56.545 38.6412 57.4528 38.5283 58.2463 38.3023C58.9266 38.0764 59.4937 37.8505 60.0608 37.3987C61.0806 36.7209 61.9884 35.5913 62.5555 34.5748C62.5555 34.4618 62.6687 34.3488 62.7819 34.1229L63.5753 34.3488C63.349 35.2525 63.2358 35.5913 62.7819 36.495C61.9884 38.1893 61.195 39.3189 59.9476 40.2226C58.7002 41.1262 57.4529 41.5781 55.8648 41.5781H55.6384C54.5042 41.5781 53.5964 41.4651 50.7621 41.0132C47.9271 40.5614 46.4529 40.4485 44.9788 40.4485C44.0716 40.4485 43.1645 40.5614 42.2573 40.6744C41.01 40.9003 40.5563 41.0132 39.4224 41.4651C42.4841 44.8538 47.0199 47 52.0095 47C61.4213 47 69.0187 39.4319 69.0187 30.0564C69.0187 20.5681 61.4213 13 52.0095 13Z" fill="#0275BE"/>
<path d="M126.395 28.9267C125.829 29.2657 125.148 29.4916 124.354 29.6045C124.015 29.6045 123.674 29.7175 123.448 29.7175C123.335 29.7175 123.335 29.7175 123.22 29.7175V23.6178C123.448 23.6178 123.561 23.6178 123.674 23.6178C124.468 23.6178 125.262 23.7307 125.942 23.8438C126.395 23.9567 126.736 24.1826 127.075 24.4085C127.643 24.8603 127.983 25.5381 127.983 26.4417C127.983 27.2324 127.757 27.7972 127.303 28.2491C126.962 28.5879 126.623 28.8138 126.395 28.9267ZM132.632 37.0596C132.065 36.4949 131.499 35.93 130.704 35.1394C130.252 34.5746 129.798 34.1228 129.457 33.7839L126.849 30.7341C127.19 30.6212 127.303 30.6212 127.529 30.5081C128.323 30.1693 129.004 29.8304 129.57 29.3786C130.252 28.8138 130.591 28.2491 130.932 27.4583C131.045 27.0065 131.158 26.6677 131.158 26.2158C131.158 25.1993 130.818 24.2956 130.024 23.5048C129.344 22.8271 128.437 22.2623 127.303 22.0364C126.51 21.8105 125.829 21.8105 124.468 21.6975C124.015 21.6975 123.448 21.6975 122.881 21.6975H118.571C118.911 21.9235 118.911 22.0364 119.139 22.3753C119.252 22.6012 119.365 22.8271 119.478 22.9401C119.592 23.2789 119.592 23.8438 119.592 24.7473V35.5912C119.592 36.3819 119.592 36.8337 119.365 37.1726C119.252 37.3986 119.252 37.5115 119.139 37.7374C119.025 37.9633 118.911 38.0763 118.571 38.3022H123.787C123.561 38.0763 123.448 37.9633 123.335 37.7374C123.22 37.6245 123.107 37.3986 123.107 37.2855C122.994 36.9467 122.881 36.4949 122.881 35.7041C122.881 35.4782 122.881 35.1394 122.881 34.9135V31.1859L125.942 34.8006C126.056 35.0265 126.282 35.2523 126.623 35.5912C126.962 36.0431 127.303 36.269 127.416 36.4949C127.983 37.0596 128.55 37.5115 129.117 37.8504C129.57 38.0763 130.024 38.1892 130.704 38.1892C130.932 38.1892 131.271 38.1892 131.612 38.1892H133.653C133.427 37.9633 133.312 37.8504 133.086 37.7374C133.199 37.5115 132.973 37.2855 132.632 37.0596ZM139.663 24.7473C139.663 23.6178 139.663 23.3919 139.89 22.9401C139.89 22.7142 139.89 22.6012 140.003 22.3753C140.229 22.1494 140.344 21.9235 140.57 21.6975H135.354C135.694 22.0364 135.807 22.1494 135.921 22.3753C136.035 22.6012 136.148 22.7142 136.148 22.9401C136.261 23.3919 136.261 23.7307 136.374 24.7473C136.374 25.1993 136.374 25.5381 136.374 25.764V35.5912C136.374 36.156 136.261 36.8337 136.148 37.1726C136.035 37.2855 136.035 37.5115 135.921 37.6245C135.807 37.8504 135.694 37.8504 135.467 38.1892H140.683C140.457 37.9633 140.344 37.8504 140.229 37.6245C140.116 37.5115 140.003 37.2855 140.003 37.1726C139.89 36.8337 139.777 36.269 139.777 35.7041V25.764L139.663 24.7473ZM155.539 35.8171C154.518 36.269 153.611 36.3819 152.59 36.3819C150.889 36.3819 149.415 35.8171 148.281 34.5746C147.261 33.4451 146.581 31.8636 146.581 30.0563C146.581 28.362 147.146 26.6677 148.054 25.651C148.508 25.1993 148.961 24.7473 149.528 24.4085C150.436 23.8438 151.57 23.6178 152.703 23.6178C153.724 23.6178 154.745 23.8438 155.652 24.1826C156.219 24.4085 156.445 24.5215 157.012 24.9732V21.8105C156.558 21.6975 156.445 21.5846 155.992 21.5846C155.085 21.3587 154.065 21.2457 153.044 21.2457C151.229 21.2457 149.756 21.5846 148.281 22.1494C147.487 22.4882 146.694 22.9401 146.013 23.5048C143.971 25.0862 142.838 27.4583 142.838 30.2822C142.838 32.8802 143.858 35.2524 145.899 36.7208C147.487 37.9633 149.641 38.641 152.136 38.641C153.724 38.641 155.198 38.4151 156.786 37.8504C156.899 37.8504 156.899 37.8504 157.012 37.7374V34.8006C156.558 35.0265 156.445 35.1394 156.219 35.2523C156.219 35.4782 155.878 35.7041 155.539 35.8171ZM175.042 24.7473C175.042 24.0697 175.156 23.5048 175.269 23.053C175.382 22.8271 175.382 22.6012 175.496 22.4882C175.723 22.2623 175.836 22.0364 176.177 21.8105H170.733C171.074 22.0364 171.187 22.1494 171.3 22.4882C171.414 22.7142 171.527 22.8271 171.527 23.053C171.641 23.3919 171.754 23.9567 171.754 24.7473V28.7008H164.27V25.651C164.27 24.7473 164.27 24.1826 164.27 23.7307C164.27 23.5048 164.383 23.2789 164.383 23.053C164.496 22.7142 164.837 22.1494 165.064 21.9235C165.064 21.9235 165.177 21.8105 165.29 21.6975H159.961C160.3 22.0364 160.415 22.1494 160.528 22.3753C160.641 22.4882 160.754 22.7142 160.868 22.9401C160.982 23.3919 160.982 23.6178 161.095 24.6344V25.651V34.6876C161.095 35.5912 161.095 36.0431 160.982 36.3819C160.982 36.6078 160.868 36.8337 160.868 37.0596C160.754 37.3986 160.528 37.7374 160.187 37.9633C160.187 37.9633 160.074 38.0763 159.961 38.0763H165.177C164.95 37.8504 164.837 37.7374 164.723 37.5115C164.61 37.3986 164.496 37.1726 164.496 36.9467C164.383 36.4949 164.27 36.156 164.27 35.4782C164.27 35.1394 164.27 34.8006 164.27 34.4616V30.5081H171.754V34.5746C171.754 35.4782 171.754 35.8171 171.641 36.269C171.641 36.4949 171.527 36.7208 171.414 36.9467C171.3 37.2855 171.074 37.5115 170.846 37.8504C170.846 37.8504 170.733 37.9633 170.62 38.0763H175.949C175.723 37.8504 175.61 37.7374 175.496 37.5115C175.382 37.2855 175.269 37.1726 175.156 36.9467C175.042 36.6078 174.929 36.269 174.929 35.4782C174.929 35.0265 174.929 34.6876 174.929 34.5746V25.5381L175.042 24.7473ZM93.2845 35.93C92.6042 36.0431 91.6964 36.156 90.6754 36.156C90.3359 36.156 89.882 36.156 89.3149 36.156H86.8201L96.9123 21.6975H83.8727L82.2846 25.1993C82.8517 24.9732 83.078 24.8603 83.5319 24.6344C84.3254 24.2956 85.12 24.0697 85.9135 23.9567C86.5938 23.8438 87.2741 23.7307 88.2951 23.7307C88.7478 23.7307 89.2017 23.7307 89.5424 23.7307H91.4701L81.1504 38.1892H95.4385L97.1398 34.4616C96.5727 34.8006 96.3463 34.9135 95.8924 35.1394C95.099 35.4782 94.1912 35.7041 93.2845 35.93ZM111.428 22.3753C111.541 22.6012 111.654 22.7142 111.654 22.9401C111.767 23.3919 111.767 23.7307 111.767 24.6344V30.96C111.767 32.3155 111.767 33.1061 111.654 33.7839C111.541 34.2357 111.428 34.6876 111.2 35.0265C110.746 35.7041 110.066 36.156 109.16 36.3819C108.819 36.4949 108.366 36.4949 108.025 36.4949C106.552 36.4949 105.417 35.93 104.737 35.1394C104.283 34.4616 104.17 33.7839 104.17 32.0896V30.7341V25.764C104.17 24.7473 104.17 24.2956 104.17 23.8438C104.17 23.5048 104.283 23.2789 104.283 23.053C104.396 22.7142 104.624 22.1494 104.964 21.8105L105.077 21.6975H99.7477C100.087 21.9235 100.202 22.1494 100.428 22.3753C100.541 22.6012 100.654 22.7142 100.654 22.9401C100.769 23.166 100.769 23.3919 100.769 23.7307C100.769 23.8438 100.769 24.1826 100.769 24.7473V25.651V30.3952C100.769 32.2025 100.769 32.5414 100.882 33.3321C100.995 34.5746 101.335 35.4782 102.016 36.3819C103.263 37.9633 105.304 38.7541 107.912 38.7541C109.16 38.7541 110.294 38.528 111.2 38.1892C112.108 37.8504 113.015 37.2855 113.695 36.4949C114.489 35.5912 114.942 34.5746 115.056 33.3321C115.17 32.5414 115.17 31.6377 115.17 30.3952V25.651V24.7473V24.5215C115.17 23.8438 115.17 23.3919 115.283 23.053C115.396 22.8271 115.396 22.6012 115.623 22.3753C115.85 22.1494 115.963 21.9235 116.303 21.6975H110.974C111.2 21.9235 111.314 22.0364 111.428 22.3753Z" fill="#0275BE"/>
</svg>
