<svg width="26" height="18" viewBox="0 0 26 18" fill="none" xmlns="http://www.w3.org/2000/svg">
<path fill-rule="evenodd" clip-rule="evenodd" d="M26 0V18H0V0H1.42855V16.3179H24.5712V0H26Z" fill="#20E89C"/>
<path fill-rule="evenodd" clip-rule="evenodd" d="M11.9505 11.7664C11.4921 11.7664 11.0873 11.5488 10.6713 11.3206C10.4369 11.1922 10.1073 11 9.85252 11C9.59778 11 9.26812 11.1924 9.03376 11.3206C8.6177 11.5486 8.21275 11.7664 7.75451 11.7664C7.29606 11.7664 6.8913 11.5488 6.47526 11.3206C6.24089 11.1922 5.91125 11 5.65672 11C5.40198 11 5.07233 11.1924 4.83797 11.3206C4.42191 11.5486 4.01695 11.7664 3.55871 11.7664C3.10026 11.7664 2.6955 11.5488 2.27946 11.3206C2.04509 11.1922 1.25474 11 1 11V17H25V11.7664C25 11.1574 23.6759 11.5488 23.2598 11.3206C23.0255 11.1921 22.696 11 22.4413 11C22.1865 11 21.8569 11.1924 21.6227 11.3206C21.2065 11.5486 20.8017 11.7664 20.3435 11.7664C19.885 11.7664 19.4803 11.5488 19.0642 11.3206C18.8299 11.1921 18.5002 11 18.2455 11C17.9907 11 17.6611 11.1924 17.4269 11.3206C17.0109 11.5486 16.6059 11.7664 16.1477 11.7664C15.6892 11.7664 15.2845 11.5488 14.8682 11.3206C14.6339 11.1921 14.3042 11 14.0497 11C13.7949 11 13.4653 11.1924 13.2311 11.3206C12.8151 11.5486 12.4101 11.7664 11.9519 11.7664L11.9505 11.7664Z" fill="#20E89C"/>
<path fill-rule="evenodd" clip-rule="evenodd" d="M14.8679 7.3258C14.6335 7.19537 14.3038 7.00028 14.0493 7.00028C13.7945 7.00028 13.4649 7.19565 13.2307 7.3258C12.8146 7.55724 12.4096 7.77841 11.9513 7.77841C11.4929 7.77841 11.0881 7.55751 10.672 7.3258C10.4376 7.19537 10.1079 7.00028 9.85318 7.00028C9.59842 7.00028 9.26874 7.19565 9.03437 7.3258C8.61807 7.55724 8.21329 7.77841 7.75502 7.77841C7.29653 7.77841 6.89174 7.55751 6.47567 7.3258C6.24128 7.19537 5.91162 7.00028 5.65707 7.00028C5.40231 7.00028 5.07263 7.19537 4.83825 7.3258C4.42216 7.55724 4.01717 7.77841 3.55891 7.77841C3.10042 7.77841 2.69563 7.55751 2.27956 7.3258C2.04517 7.19537 1.25476 7.00028 1 7.00028V10.2219C1.45848 10.2219 2.32423 10.4428 2.7403 10.6745C2.97469 10.8049 3.30414 11 3.55891 11C3.81367 11 4.14334 10.8046 4.37772 10.6745C4.79402 10.443 5.1988 10.2219 5.65707 10.2219C6.11555 10.2219 6.52034 10.4428 6.93641 10.6745C7.1708 10.8049 7.50025 11 7.75502 11C8.00978 11 8.33946 10.8046 8.57362 10.6745C8.98992 10.443 9.3947 10.2219 9.85297 10.2219C10.3115 10.2219 10.7162 10.4428 11.1323 10.6745C11.3667 10.8049 11.6964 11 11.9509 11C12.2057 11 12.5354 10.8046 12.7695 10.6745C13.1856 10.443 13.5906 10.2219 14.0489 10.2219C14.5074 10.2219 14.9121 10.4428 15.3282 10.6745C15.5626 10.8049 15.8923 11 16.147 11C16.4018 11 16.7315 10.8046 16.9656 10.6745C17.3817 10.443 17.7867 10.2219 18.245 10.2219C18.7035 10.2219 19.1083 10.4428 19.5243 10.6745C19.7587 10.8049 20.0884 11 20.3429 11C20.5977 11 20.9274 10.8046 21.1617 10.6745C21.5778 10.443 21.9828 10.2219 22.4411 10.2219C22.8996 10.2219 23.3044 10.4428 23.7204 10.6745C23.9548 10.8049 24.7452 11 25 11V7.77812C25 7.15984 23.6758 7.55723 23.2597 7.32551C23.0253 7.19509 22.6959 7 22.4411 7C22.1863 7 21.8567 7.19536 21.6225 7.32551C21.2062 7.55695 20.8014 7.77812 20.3431 7.77812C19.8847 7.77812 19.4799 7.55723 19.0638 7.32551C18.8294 7.19509 18.5 7 18.245 7C17.9902 7 17.6605 7.19536 17.4264 7.32551C17.0103 7.55695 16.6053 7.77812 16.147 7.77812C15.6885 7.77812 15.2838 7.55723 14.8675 7.32551L14.8679 7.3258Z" fill="#20E89C"/>
</svg>
