<svg width="25" height="24" viewBox="0 0 25 24" fill="none" xmlns="http://www.w3.org/2000/svg">
<path d="M9.23007 21.6229L22.3039 14.0296C22.6672 13.8186 22.5758 13.181 22.1916 13.0084C21.3019 12.6088 20.2393 11.8752 19.5382 10.6536L18.6005 8.97025C16.6982 5.65572 12.4978 4.51271 9.21858 6.41728C5.98696 8.2942 4.88695 12.4637 6.76161 15.7301L7.74932 17.5006C8.44566 18.7139 8.5256 20.0109 8.40358 20.9977C8.35099 21.423 8.86225 21.8365 9.23007 21.6229Z" fill="#EE4242"/>
<path d="M10.0052 3.46404C10.5986 4.49807 10.2465 5.82028 9.21858 6.41728C8.19068 7.01428 6.87632 6.65999 6.28287 5.62596C5.68942 4.59193 6.0416 3.26972 7.06949 2.67272C8.09738 2.07572 9.41174 2.43001 10.0052 3.46404Z" fill="#EE4242"/>
<path d="M9.23007 21.6229L8.97895 21.1905L9.23007 21.6229ZM8.40358 20.9977L7.90736 20.9363L8.40358 20.9977ZM7.74932 17.5006L7.31264 17.7442L7.31567 17.7495L7.74932 17.5006ZM6.76161 15.7301L7.19829 15.4865L7.19527 15.4812L6.76161 15.7301ZM22.3039 14.0296L22.555 14.462L22.3039 14.0296ZM22.1916 13.0084L22.3964 12.5523L22.3964 12.5523L22.1916 13.0084ZM19.5382 10.6536L19.1014 10.8969L19.1046 10.9025L19.5382 10.6536ZM18.6005 8.97025L19.0373 8.72691L19.0342 8.72137L18.6005 8.97025ZM9.21858 6.41728L9.46969 6.84965L9.21858 6.41728ZM15.4165 21.5403L15.6676 21.9727L15.4165 21.5403ZM2.1058 11.5462C2.14475 11.8196 2.39794 12.0097 2.67132 11.9707C2.9447 11.9318 3.13475 11.6786 3.09581 11.4052L2.1058 11.5462ZM3.87008 7.49832C4.01452 7.26296 3.94081 6.95508 3.70545 6.81065C3.4701 6.66621 3.16221 6.73992 3.01778 6.97528L3.87008 7.49832ZM12.4663 1.5013C12.1902 1.50654 11.9707 1.73461 11.9759 2.0107C11.9811 2.28679 12.2092 2.50636 12.4853 2.50112L12.4663 1.5013ZM16.2409 3.74979C16.4557 3.92333 16.7705 3.88987 16.9441 3.67507C17.1176 3.46026 17.0841 3.14545 16.8693 2.97192L16.2409 3.74979ZM8.8998 21.059C9.03077 19.9999 8.94851 18.5855 8.18298 17.2517L7.31567 17.7495C7.94282 18.8422 8.02043 20.0218 7.90736 20.9363L8.8998 21.059ZM8.18597 17.257L7.19826 15.4865L6.32497 15.9737L7.31268 17.7442L8.18597 17.257ZM22.3964 12.5523C21.574 12.1829 20.6066 11.5107 19.9719 10.4047L19.1046 10.9025C19.872 12.2397 21.0298 13.0347 21.9868 13.4645L22.3964 12.5523ZM19.975 10.4103L19.0373 8.72693L18.1637 9.21358L19.1014 10.8969L19.975 10.4103ZM19.0342 8.72137C16.9958 5.16966 12.4895 3.93931 8.96746 5.98491L9.46969 6.84965C12.5061 5.08612 16.4007 6.14179 18.1668 9.21914L19.0342 8.72137ZM22.555 14.462C22.9639 14.2244 23.0655 13.779 23.0243 13.4437C22.9832 13.1089 22.7864 12.7275 22.3964 12.5523L21.9868 13.4645C21.983 13.4628 21.9909 13.4649 22.0034 13.4841C22.0165 13.5042 22.0278 13.5334 22.0318 13.5655C22.0358 13.5981 22.0303 13.6172 22.0288 13.6211C22.0284 13.6221 22.0296 13.6186 22.0344 13.6128C22.0395 13.6067 22.0461 13.6011 22.0528 13.5972L22.555 14.462ZM7.19527 15.4812C5.45575 12.4503 6.47912 8.58657 9.46969 6.84965L8.96746 5.98491C5.49481 8.00183 4.31814 12.4771 6.32796 15.979L7.19527 15.4812ZM8.97895 21.1905C8.9859 21.1865 8.99464 21.1833 9.00335 21.1818C9.01152 21.1804 9.01589 21.1811 9.0152 21.181C9.01187 21.1805 8.99252 21.1757 8.96582 21.1549C8.93957 21.1345 8.91953 21.1089 8.90851 21.0863C8.89799 21.0646 8.90019 21.0558 8.8998 21.059L7.90736 20.9363C7.85421 21.3661 8.08343 21.7358 8.35252 21.9448C8.62173 22.1538 9.06441 22.2973 9.48119 22.0552L8.97895 21.1905ZM22.0528 13.5972L8.97895 21.1905L9.48119 22.0552L22.555 14.462L22.0528 13.5972ZM16.2635 17.5349C16.947 18.7258 16.4945 20.336 15.1654 21.108L15.6676 21.9727C17.4221 20.9537 18.1164 18.7544 17.1308 17.0371L16.2635 17.5349ZM15.1654 21.108C13.8375 21.8792 12.2296 21.4688 11.5473 20.28L10.68 20.7778C11.6668 22.4972 13.9118 22.9925 15.6676 21.9727L15.1654 21.108ZM9.57154 3.71292C10.0287 4.50953 9.75623 5.5268 8.96746 5.98491L9.46969 6.84965C10.7367 6.11376 11.1686 4.4866 10.4388 3.21515L9.57154 3.71292ZM8.96746 5.98491C8.18045 6.44201 7.17273 6.17196 6.71653 5.37708L5.84922 5.87485C6.57992 7.14802 8.20092 7.58655 9.46969 6.84965L8.96746 5.98491ZM6.71653 5.37708C6.25933 4.58046 6.53184 3.5632 7.32061 3.10508L6.81837 2.24035C5.55136 2.97623 5.1195 4.60339 5.84922 5.87485L6.71653 5.37708ZM7.32061 3.10508C8.10762 2.64799 9.11534 2.91804 9.57154 3.71292L10.4388 3.21515C9.70814 1.94197 8.08715 1.50345 6.81837 2.24035L7.32061 3.10508ZM3.09581 11.4052C2.9008 10.0362 3.16182 8.65243 3.87008 7.49832L3.01778 6.97528C2.17945 8.34134 1.88023 9.96268 2.1058 11.5462L3.09581 11.4052ZM12.4853 2.50112C13.8626 2.47499 15.1944 2.9043 16.2409 3.74979L16.8693 2.97192C15.6271 1.96831 14.0619 1.47103 12.4663 1.5013L12.4853 2.50112Z" fill="#EE4242"/>
</svg>
