<svg width="257" height="33" viewBox="0 0 257 33" fill="none" xmlns="http://www.w3.org/2000/svg">
<path d="M9.32482 21.746C10.4121 22.8334 12.1881 22.8334 13.2754 21.746C14.3627 20.6587 14.3627 18.8828 13.2754 17.7955L4.79436 9.31448C3.70705 8.22717 1.93111 8.22717 0.843803 9.31448C-0.243507 10.4018 -0.243507 12.1777 0.843803 13.265L5.86355 18.2667L9.32482 21.746Z" fill="url(#paint0_radial_2_469)"/>
<path d="M13.2757 0.833518C12.1884 -0.253792 10.4125 -0.253792 9.32514 0.833518L0.844128 9.31454C-0.22506 10.3837 -0.297546 12.0509 0.735398 13.1564L0.771641 13.2107L0.826007 13.2651C0.826007 13.2651 0.826006 13.2651 0.844128 13.2832C0.844128 13.2832 0.862251 13.2832 0.862251 13.3013L5.86388 18.303C3.16372 15.6028 6.78809 11.3261 6.78809 11.3261L13.2938 4.82032C14.3811 3.69677 14.3811 1.92083 13.2757 0.833518Z" fill="url(#paint1_linear_2_469)"/>
<path d="M39.5737 11.2719C38.4863 10.1846 36.7104 10.1846 35.6231 11.2719C34.5358 12.3592 34.5358 14.1351 35.6231 15.2224L44.1041 23.7035C45.1914 24.7908 46.9674 24.7908 48.0547 23.7035C49.142 22.6162 49.142 20.8402 48.0547 19.7529L43.0349 14.7513L39.5737 11.2719Z" fill="url(#paint2_linear_2_469)"/>
<path d="M35.6233 32.1848C36.7107 33.2721 38.4866 33.2721 39.5739 32.1848L48.0549 23.7038C49.1241 22.6346 49.1966 20.9492 48.1636 19.8619L48.1274 19.8076L48.073 19.7532C48.073 19.7532 48.073 19.7532 48.0549 19.7351C48.0549 19.7351 48.0368 19.7351 48.0368 19.717L43.0352 14.7153C45.7353 17.4155 42.111 21.6922 42.111 21.6922L35.6052 28.198C34.5179 29.3215 34.5179 31.0975 35.6233 32.1848Z" fill="url(#paint3_linear_2_469)"/>
<path d="M22.7097 31.0791C22.2567 32.5107 20.7345 33.3081 19.321 32.8551C17.8893 32.402 17.092 30.8798 17.545 29.4663L26.316 1.90298C26.769 0.471358 28.2913 -0.326003 29.7048 0.127043C31.1364 0.580089 31.9337 2.10232 31.4807 3.51582L22.7097 31.0791Z" fill="#2F2A2A"/>
<path d="M66.3086 23.1278V10.0513H72.2491C73.6688 10.0513 74.9204 10.3253 76.0039 10.8733C77.0874 11.4088 77.9342 12.1622 78.5445 13.1336C79.1547 14.105 79.4598 15.257 79.4598 16.5896C79.4598 17.9097 79.1547 19.0617 78.5445 20.0455C77.9342 21.0169 77.0874 21.7766 76.0039 22.3246C74.9204 22.8601 73.6688 23.1278 72.2491 23.1278H66.3086ZM69.3349 20.6433H72.0996C72.9714 20.6433 73.7248 20.4814 74.36 20.1576C75.0076 19.8213 75.5057 19.3481 75.8545 18.7379C76.2156 18.1276 76.3962 17.4115 76.3962 16.5896C76.3962 15.7552 76.2156 15.0391 75.8545 14.4413C75.5057 13.8311 75.0076 13.364 74.36 13.0402C73.7248 12.704 72.9714 12.5359 72.0996 12.5359H69.3349V20.6433Z" fill="#2F2A2A"/>
<path d="M84.5255 15.3193H90.8209V17.6731H84.5255V15.3193ZM84.7497 20.6993H91.8671V23.1278H81.7421V10.0513H91.6242V12.4798H84.7497V20.6993Z" fill="#2F2A2A"/>
<path d="M98.0155 23.1278L92.3739 10.0513H95.643L100.575 21.6334H98.6506L103.657 10.0513H106.665L101.004 23.1278H98.0155Z" fill="#2F2A2A"/>
<path d="M110.54 15.3193H116.835V17.6731H110.54V15.3193ZM110.764 20.6993H117.881V23.1278H107.756V10.0513H117.639V12.4798H110.764V20.6993Z" fill="#2F2A2A"/>
<path d="M120.289 23.1278V10.0513H123.316V20.662H129.873V23.1278H120.289Z" fill="#2F2A2A"/>
<path d="M137.696 23.352C136.662 23.352 135.703 23.1839 134.819 22.8476C133.947 22.5114 133.188 22.0381 132.54 21.4279C131.905 20.8176 131.407 20.1016 131.046 19.2796C130.697 18.4576 130.523 17.561 130.523 16.5896C130.523 15.6182 130.697 14.7215 131.046 13.8995C131.407 13.0776 131.911 12.3615 132.559 11.7513C133.206 11.141 133.966 10.6678 134.838 10.3315C135.71 9.99527 136.656 9.82715 137.677 9.82715C138.711 9.82715 139.657 9.99527 140.517 10.3315C141.389 10.6678 142.142 11.141 142.777 11.7513C143.425 12.3615 143.929 13.0776 144.29 13.8995C144.651 14.709 144.832 15.6057 144.832 16.5896C144.832 17.561 144.651 18.4639 144.29 19.2983C143.929 20.1202 143.425 20.8363 142.777 21.4466C142.142 22.0444 141.389 22.5114 140.517 22.8476C139.657 23.1839 138.717 23.352 137.696 23.352ZM137.677 20.7741C138.263 20.7741 138.798 20.6744 139.284 20.4752C139.782 20.2759 140.218 19.9895 140.592 19.6159C140.965 19.2422 141.252 18.8001 141.451 18.2895C141.663 17.7789 141.768 17.2123 141.768 16.5896C141.768 15.9669 141.663 15.4002 141.451 14.8896C141.252 14.379 140.965 13.9369 140.592 13.5633C140.23 13.1897 139.801 12.9032 139.303 12.704C138.804 12.5047 138.263 12.4051 137.677 12.4051C137.092 12.4051 136.55 12.5047 136.052 12.704C135.566 12.9032 135.137 13.1897 134.763 13.5633C134.39 13.9369 134.097 14.379 133.885 14.8896C133.686 15.4002 133.586 15.9669 133.586 16.5896C133.586 17.1998 133.686 17.7665 133.885 18.2895C134.097 18.8001 134.383 19.2422 134.744 19.6159C135.118 19.9895 135.554 20.2759 136.052 20.4752C136.55 20.6744 137.092 20.7741 137.677 20.7741Z" fill="#2F2A2A"/>
<path d="M147.106 23.1278V10.0513H152.767C153.937 10.0513 154.946 10.2444 155.793 10.6304C156.64 11.004 157.294 11.5458 157.754 12.2556C158.215 12.9655 158.446 13.8124 158.446 14.7962C158.446 15.7676 158.215 16.6083 157.754 17.3181C157.294 18.028 156.64 18.576 155.793 18.962C154.946 19.3356 153.937 19.5225 152.767 19.5225H148.788L150.133 18.1588V23.1278H147.106ZM150.133 18.495L148.788 17.0566H152.599C153.533 17.0566 154.23 16.8573 154.691 16.4588C155.152 16.0603 155.382 15.5061 155.382 14.7962C155.382 14.0739 155.152 13.5135 154.691 13.115C154.23 12.7164 153.533 12.5172 152.599 12.5172H148.788L150.133 11.0788V18.495Z" fill="#2F2A2A"/>
<path d="M163.39 15.3193H169.685V17.6731H163.39V15.3193ZM163.614 20.6993H170.731V23.1278H160.606V10.0513H170.488V12.4798H163.614V20.6993Z" fill="#2F2A2A"/>
<path d="M173.139 23.1278V10.0513H178.799C179.97 10.0513 180.979 10.2444 181.826 10.6304C182.672 11.004 183.326 11.5458 183.787 12.2556C184.248 12.9655 184.478 13.8124 184.478 14.7962C184.478 15.7676 184.248 16.6083 183.787 17.3181C183.326 18.0155 182.672 18.5511 181.826 18.9247C180.979 19.2983 179.97 19.4851 178.799 19.4851H174.82L176.165 18.1588V23.1278H173.139ZM181.452 23.1278L178.183 18.3829H181.415L184.721 23.1278H181.452ZM176.165 18.495L174.82 17.0753H178.631C179.565 17.0753 180.263 16.876 180.723 16.4775C181.184 16.0665 181.415 15.5061 181.415 14.7962C181.415 14.0739 181.184 13.5135 180.723 13.115C180.263 12.7164 179.565 12.5172 178.631 12.5172H174.82L176.165 11.0788V18.495Z" fill="#2F2A2A"/>
<path d="M191.173 23.352C190.126 23.352 189.124 23.215 188.165 22.941C187.206 22.6546 186.434 22.2872 185.849 21.8389L186.876 19.5598C187.436 19.9583 188.096 20.2884 188.856 20.5499C189.628 20.799 190.407 20.9235 191.191 20.9235C191.789 20.9235 192.268 20.8675 192.63 20.7554C193.003 20.6308 193.277 20.4627 193.452 20.251C193.626 20.0393 193.713 19.7964 193.713 19.5225C193.713 19.1737 193.576 18.8998 193.302 18.7005C193.028 18.4888 192.667 18.3207 192.219 18.1961C191.77 18.0591 191.272 17.9346 190.724 17.8225C190.189 17.698 189.647 17.5485 189.099 17.3742C188.563 17.1998 188.072 16.9756 187.623 16.7017C187.175 16.4277 186.807 16.0665 186.521 15.6182C186.247 15.1698 186.11 14.597 186.11 13.8995C186.11 13.1523 186.309 12.4736 186.708 11.8633C187.119 11.2407 187.729 10.7487 188.539 10.3876C189.361 10.014 190.388 9.82715 191.621 9.82715C192.443 9.82715 193.252 9.92678 194.049 10.126C194.846 10.3128 195.55 10.5993 196.16 10.9854L195.226 13.2831C194.616 12.9344 194.006 12.6791 193.396 12.5172C192.785 12.3428 192.188 12.2556 191.602 12.2556C191.017 12.2556 190.537 12.3241 190.164 12.4611C189.79 12.5981 189.522 12.7787 189.361 13.0029C189.199 13.2146 189.118 13.4637 189.118 13.7501C189.118 14.0864 189.255 14.3603 189.529 14.5721C189.803 14.7713 190.164 14.9332 190.612 15.0578C191.06 15.1823 191.552 15.3068 192.088 15.4314C192.636 15.5559 193.178 15.6991 193.713 15.861C194.261 16.0229 194.759 16.2409 195.208 16.5149C195.656 16.7888 196.017 17.15 196.291 17.5983C196.577 18.0467 196.721 18.6133 196.721 19.2983C196.721 20.0331 196.515 20.7056 196.104 21.3158C195.693 21.926 195.077 22.418 194.255 22.7916C193.445 23.1652 192.418 23.352 191.173 23.352Z" fill="#2F2A2A"/>
<path d="M206.788 23.1278V12.5172H202.604V10.0513H213.999V12.5172H209.814V23.1278H206.788Z" fill="#2CEFB2"/>
<path d="M221.796 23.352C220.762 23.352 219.803 23.1839 218.919 22.8476C218.047 22.5114 217.288 22.0381 216.64 21.4279C216.005 20.8176 215.507 20.1016 215.146 19.2796C214.797 18.4576 214.623 17.561 214.623 16.5896C214.623 15.6182 214.797 14.7215 215.146 13.8995C215.507 13.0776 216.011 12.3615 216.659 11.7513C217.306 11.141 218.066 10.6678 218.938 10.3315C219.81 9.99527 220.756 9.82715 221.777 9.82715C222.811 9.82715 223.758 9.99527 224.617 10.3315C225.489 10.6678 226.242 11.141 226.877 11.7513C227.525 12.3615 228.029 13.0776 228.39 13.8995C228.752 14.709 228.932 15.6057 228.932 16.5896C228.932 17.561 228.752 18.4639 228.39 19.2983C228.029 20.1202 227.525 20.8363 226.877 21.4466C226.242 22.0444 225.489 22.5114 224.617 22.8476C223.758 23.1839 222.817 23.352 221.796 23.352ZM221.777 20.7741C222.363 20.7741 222.898 20.6744 223.384 20.4752C223.882 20.2759 224.318 19.9895 224.692 19.6159C225.065 19.2422 225.352 18.8001 225.551 18.2895C225.763 17.7789 225.868 17.2123 225.868 16.5896C225.868 15.9669 225.763 15.4002 225.551 14.8896C225.352 14.379 225.065 13.9369 224.692 13.5633C224.33 13.1897 223.901 12.9032 223.403 12.704C222.904 12.5047 222.363 12.4051 221.777 12.4051C221.192 12.4051 220.65 12.5047 220.152 12.704C219.666 12.9032 219.237 13.1897 218.863 13.5633C218.49 13.9369 218.197 14.379 217.985 14.8896C217.786 15.4002 217.686 15.9669 217.686 16.5896C217.686 17.1998 217.786 17.7665 217.985 18.2895C218.197 18.8001 218.483 19.2422 218.845 19.6159C219.218 19.9895 219.654 20.2759 220.152 20.4752C220.65 20.6744 221.192 20.7741 221.777 20.7741Z" fill="#2CEFB2"/>
<path d="M237.558 23.352C236.524 23.352 235.565 23.1839 234.681 22.8476C233.809 22.5114 233.05 22.0381 232.402 21.4279C231.767 20.8176 231.269 20.1016 230.908 19.2796C230.559 18.4576 230.385 17.561 230.385 16.5896C230.385 15.6182 230.559 14.7215 230.908 13.8995C231.269 13.0776 231.773 12.3615 232.421 11.7513C233.068 11.141 233.828 10.6678 234.7 10.3315C235.572 9.99527 236.518 9.82715 237.539 9.82715C238.573 9.82715 239.519 9.99527 240.379 10.3315C241.251 10.6678 242.004 11.141 242.639 11.7513C243.287 12.3615 243.791 13.0776 244.152 13.8995C244.513 14.709 244.694 15.6057 244.694 16.5896C244.694 17.561 244.513 18.4639 244.152 19.2983C243.791 20.1202 243.287 20.8363 242.639 21.4466C242.004 22.0444 241.251 22.5114 240.379 22.8476C239.519 23.1839 238.579 23.352 237.558 23.352ZM237.539 20.7741C238.125 20.7741 238.66 20.6744 239.146 20.4752C239.644 20.2759 240.08 19.9895 240.453 19.6159C240.827 19.2422 241.114 18.8001 241.313 18.2895C241.524 17.7789 241.63 17.2123 241.63 16.5896C241.63 15.9669 241.524 15.4002 241.313 14.8896C241.114 14.379 240.827 13.9369 240.453 13.5633C240.092 13.1897 239.663 12.9032 239.164 12.704C238.666 12.5047 238.125 12.4051 237.539 12.4051C236.954 12.4051 236.412 12.5047 235.914 12.704C235.428 12.9032 234.999 13.1897 234.625 13.5633C234.251 13.9369 233.959 14.379 233.747 14.8896C233.548 15.4002 233.448 15.9669 233.448 16.5896C233.448 17.1998 233.548 17.7665 233.747 18.2895C233.959 18.8001 234.245 19.2422 234.606 19.6159C234.98 19.9895 235.416 20.2759 235.914 20.4752C236.412 20.6744 236.954 20.7741 237.539 20.7741Z" fill="#2CEFB2"/>
<path d="M246.968 23.1278V10.0513H249.995V20.662H256.552V23.1278H246.968Z" fill="#2CEFB2"/>
<defs>
<radialGradient id="paint0_radial_2_469" cx="0" cy="0" r="1" gradientUnits="userSpaceOnUse" gradientTransform="translate(0.544466 10.5857) scale(15.5613)">
<stop offset="0.1667" stop-color="#4674B5"/>
<stop offset="0.3306" stop-color="#4878B5"/>
<stop offset="0.4942" stop-color="#4F84B6"/>
<stop offset="0.6576" stop-color="#5998B6"/>
<stop offset="0.821" stop-color="#68B4B7"/>
<stop offset="0.9831" stop-color="#7CD8B9"/>
<stop offset="1" stop-color="#7EDCB9"/>
</radialGradient>
<linearGradient id="paint1_linear_2_469" x1="2.90744" y1="9.13759" x2="22.6011" y2="9.13759" gradientUnits="userSpaceOnUse">
<stop stop-color="#7EDCB9"/>
<stop offset="0.0168892" stop-color="#7CD8B9"/>
<stop offset="0.179" stop-color="#68B4B7"/>
<stop offset="0.3424" stop-color="#5998B6"/>
<stop offset="0.5058" stop-color="#4F84B6"/>
<stop offset="0.6694" stop-color="#4878B5"/>
<stop offset="0.8333" stop-color="#4674B5"/>
</linearGradient>
<linearGradient id="paint2_linear_2_469" x1="48.8714" y1="17.4899" x2="34.7963" y2="17.4899" gradientUnits="userSpaceOnUse">
<stop offset="0.00955605" stop-color="#8C0053"/>
<stop offset="0.1433" stop-color="#8F0651"/>
<stop offset="0.3241" stop-color="#99174D"/>
<stop offset="0.5319" stop-color="#A93445"/>
<stop offset="0.7597" stop-color="#BF5B3B"/>
<stop offset="1" stop-color="#DB8D2E"/>
</linearGradient>
<linearGradient id="paint3_linear_2_469" x1="45.9921" y1="23.8782" x2="26.2984" y2="23.8782" gradientUnits="userSpaceOnUse">
<stop stop-color="#DB8D2E"/>
<stop offset="0.2403" stop-color="#BF5B3B"/>
<stop offset="0.4681" stop-color="#A93445"/>
<stop offset="0.6759" stop-color="#99174D"/>
<stop offset="0.8567" stop-color="#8F0651"/>
<stop offset="0.9904" stop-color="#8C0053"/>
</linearGradient>
</defs>
</svg>
