<svg width="34" height="34" viewBox="0 0 34 34" fill="none" xmlns="http://www.w3.org/2000/svg">
<circle cx="17" cy="17" r="17" fill="#FF7D7D"/>
<path d="M14.2956 23.568H19.7047C20.5583 23.568 21.2502 22.8761 21.2502 22.0226L21.603 13.5547C21.6213 13.1157 21.2703 12.7498 20.8309 12.7498H13.1694C12.73 12.7498 12.3791 13.1157 12.3974 13.5547L12.7502 22.0226C12.7502 22.8761 13.4421 23.568 14.2956 23.568Z" fill="white"/>
<path d="M10.8184 12.7498H23.182M14.682 10.4316H19.3184M19.7047 23.568H14.2956C13.4421 23.568 12.7502 22.8761 12.7502 22.0226L12.3974 13.5547C12.3791 13.1157 12.73 12.7498 13.1694 12.7498H20.8309C21.2703 12.7498 21.6213 13.1157 21.603 13.5547L21.2502 22.0226C21.2502 22.8761 20.5583 23.568 19.7047 23.568Z" stroke="white" stroke-width="2" stroke-linecap="round"/>
</svg>
