<svg width="21" height="24" viewBox="0 0 21 24" fill="none" xmlns="http://www.w3.org/2000/svg">
<path d="M18.6855 8.23148C16.8849 8.23148 15.1583 7.514 13.8755 6.22728C12.5928 4.94056 11.8775 3.20854 11.9021 1.40225C11.9021 0.932077 11.5322 0.536133 11.0387 0.536133C10.57 0.536133 10.1753 0.907218 10.1753 1.40225C10.1507 3.65398 11.0633 5.85612 12.6666 7.46447C14.2698 9.07272 16.4159 9.96354 18.6852 9.96354C19.1539 9.96354 19.5486 9.5676 19.5486 9.09742C19.5488 8.62725 19.1541 8.23148 18.6854 8.23148H18.6855Z" fill="#1DF3CD"/>
<path d="M18.683 4.64293C17.817 4.64293 17.0008 4.29659 16.3823 3.70279C15.7638 3.0843 15.4421 2.2679 15.4421 1.4021C15.4421 0.932009 15.0463 0.536133 14.5762 0.536133C14.1061 0.536133 13.7102 0.932004 13.7102 1.4021C13.7102 2.73795 14.2298 3.97492 15.1698 4.91511C16.1099 5.85526 17.3469 6.3747 18.6828 6.3747C19.1529 6.3747 19.5488 5.97883 19.5488 5.50873C19.5489 5.03881 19.1531 4.64293 18.683 4.64293Z" fill="#1DF3CD"/>
<path d="M20.0843 1.39269C20.0843 2.16188 19.4608 2.78537 18.6916 2.78537C17.9224 2.78537 17.299 2.16188 17.299 1.39269C17.299 0.623486 17.9224 0 18.6916 0C19.4608 0 20.0843 0.623486 20.0843 1.39269Z" fill="#1DF3CD"/>
<path d="M1.8832 22.0998C1.68531 22.6459 1.95739 23.2418 2.50156 23.4402C2.62527 23.4899 2.74898 23.5146 2.87251 23.5146C3.29297 23.5146 3.68874 23.2416 3.86179 22.8196L5.24687 19.0216L3.61454 17.4082L1.8832 22.0998Z" fill="#1DF3CD"/>
<path d="M11.3597 11.9255L9.52693 11.6531C9.42794 11.6284 9.32877 11.5788 9.27919 11.5046C7.74368 9.25115 7.42166 9.12729 6.97595 9.10262L5.48984 9.00365C5.19269 8.97895 4.94496 8.97895 2.71598 10.2913C2.24536 10.5637 1.87394 10.9599 1.60151 11.4551L0.635593 13.2876C0.41273 13.7332 0.561306 14.278 1.00703 14.5257C1.1309 14.6 1.27947 14.6247 1.42804 14.6247C1.75007 14.6247 2.07194 14.4513 2.22068 14.1295L3.18659 12.297C3.28558 12.0989 3.43433 11.9504 3.60761 11.8514C3.68189 11.8018 3.73148 11.7771 3.80577 11.7276L3.16187 14.5751C3.038 15.1446 3.18657 15.7389 3.60758 16.1352L6.53 19.057C6.55471 19.0817 6.57959 19.1066 6.57959 19.156L7.84266 22.8208C7.99123 23.2417 8.38753 23.5141 8.83325 23.5141C8.95712 23.5141 9.05611 23.4894 9.17998 23.4645C9.72485 23.2664 10.022 22.6721 9.82388 22.1275L8.5608 18.4627C8.43693 18.1407 8.26365 17.8189 8.01593 17.5713L6.38126 15.9369L7.57004 12.1979C7.64432 12.2968 7.71861 12.396 7.7929 12.5198C8.13963 13.015 8.68451 13.3617 9.27901 13.436L11.1118 13.7084C11.6071 13.7827 12.0777 13.436 12.152 12.9408C12.2018 12.4701 11.855 11.9998 11.3597 11.9255Z" fill="#1DF3CD"/>
<path d="M6.72296 4.56475C7.82564 4.68478 8.62239 5.67607 8.50234 6.77871C8.3823 7.88153 7.39098 8.67807 6.2883 8.55821C5.18562 8.43817 4.38887 7.44688 4.50891 6.34406C4.62896 5.24142 5.62028 4.44471 6.72296 4.56475Z" fill="#1DF3CD"/>
</svg>
