<svg width="25" height="26" viewBox="0 0 25 26" fill="none" xmlns="http://www.w3.org/2000/svg">
<path d="M23.7332 13C23.7332 19.1856 18.7188 24.2 12.5332 24.2C6.34766 24.2 1.33325 19.1856 1.33325 13C1.33325 6.81441 6.34766 1.8 12.5332 1.8C18.7188 1.8 23.7332 6.81441 23.7332 13Z" fill="#E8D420"/>
<path d="M12.5332 13V7.4M12.5332 17.1508V17.2M23.7332 13C23.7332 19.1856 18.7188 24.2 12.5332 24.2C6.34766 24.2 1.33325 19.1856 1.33325 13C1.33325 6.81441 6.34766 1.8 12.5332 1.8C18.7188 1.8 23.7332 6.81441 23.7332 13Z" stroke="#324658" stroke-width="2" stroke-linecap="round" stroke-linejoin="round"/>
</svg>
